Maitree-700.ufo
<glyph name="exclam" format="1">
  <advance width="348"/>
  <unicode hex="0021"/>
  <note>
	exclam
  </note>
  <outline>
    <contour>
      <point x="217" y="166" type="line"/>
      <point x="254" y="710" type="line"/>
      <point x="94" y="710" type="line"/>
      <point x="132" y="166" type="line"/>
    </contour>
    <contour>
      <point x="211" y="-15"/>
      <point x="240" y="10"/>
      <point x="240" y="51" type="curve" smooth="yes"/>
      <point x="240" y="91"/>
      <point x="211" y="116"/>
      <point x="174" y="116" type="curve" smooth="yes"/>
      <point x="138" y="116"/>
      <point x="109" y="91"/>
      <point x="109" y="51" type="curve" smooth="yes"/>
      <point x="109" y="10"/>
      <point x="138" y="-15"/>
      <point x="174" y="-15" type="curve" smooth="yes"/>
    </contour>
  </outline>
</glyph>
<glyph name="quotedbl" format="1">
  <advance width="450"/>
  <unicode hex="0022"/>
  <note>
	quotedbl
  </note>
  <outline>
    <contour>
      <point x="347" y="411" type="line"/>
      <point x="423" y="699" type="line"/>
      <point x="287" y="711" type="line"/>
      <point x="243" y="411" type="line"/>
    </contour>
    <contour>
      <point x="132" y="411" type="line"/>
      <point x="207" y="699" type="line"/>
      <point x="72" y="711" type="line"/>
      <point x="27" y="411" type="line"/>
    </contour>
  </outline>
</glyph>
<glyph name="numbersign" format="1">
  <advance width="636"/>
  <unicode hex="0023"/>
  <note>
	numbersign
  </note>
  <outline>
    <contour>
      <point x="198" y="0" type="line"/>
      <point x="225" y="144" type="line"/>
      <point x="341" y="144" type="line"/>
      <point x="314" y="0" type="line"/>
      <point x="437" y="0" type="line"/>
      <point x="464" y="144" type="line"/>
      <point x="571" y="144" type="line"/>
      <point x="571" y="239" type="line"/>
      <point x="481" y="239" type="line"/>
      <point x="502" y="349" type="line"/>
      <point x="604" y="349" type="line"/>
      <point x="604" y="444" type="line"/>
      <point x="519" y="444" type="line"/>
      <point x="545" y="582" type="line"/>
      <point x="422" y="582" type="line"/>
      <point x="396" y="444" type="line"/>
      <point x="280" y="444" type="line"/>
      <point x="306" y="582" type="line"/>
      <point x="183" y="582" type="line"/>
      <point x="157" y="444" type="line"/>
      <point x="52" y="444" type="line"/>
      <point x="52" y="349" type="line"/>
      <point x="140" y="349" type="line"/>
      <point x="119" y="239" type="line"/>
      <point x="17" y="239" type="line"/>
      <point x="17" y="144" type="line"/>
      <point x="102" y="144" type="line"/>
      <point x="75" y="0" type="line"/>
    </contour>
    <contour>
      <point x="263" y="349" type="line"/>
      <point x="379" y="349" type="line"/>
      <point x="358" y="239" type="line"/>
      <point x="242" y="239" type="line"/>
    </contour>
  </outline>
</glyph>
<glyph name="dollar" format="1">
  <advance width="690"/>
  <unicode hex="0024"/>
  <note>
	dollar
  </note>
  <outline>
    <contour>
      <point x="363" y="-94" type="line"/>
      <point x="363" y="-12" type="line"/>
      <point x="484" y="1"/>
      <point x="573" y="59"/>
      <point x="573" y="174" type="curve" smooth="yes"/>
      <point x="573" y="296"/>
      <point x="491" y="349"/>
      <point x="394" y="396" type="curve" smooth="yes"/>
      <point x="280" y="452"/>
      <point x="213" y="477"/>
      <point x="213" y="533" type="curve" smooth="yes"/>
      <point x="213" y="584"/>
      <point x="257" y="607"/>
      <point x="317" y="607" type="curve" smooth="yes"/>
      <point x="377" y="607"/>
      <point x="415" y="593"/>
      <point x="440" y="580" type="curve"/>
      <point x="458" y="524" type="line" smooth="yes"/>
      <point x="476" y="468"/>
      <point x="488" y="454"/>
      <point x="513" y="454" type="curve" smooth="yes"/>
      <point x="529" y="454"/>
      <point x="536" y="465"/>
      <point x="536" y="478" type="curve" smooth="yes"/>
      <point x="536" y="631" type="line"/>
      <point x="494" y="662"/>
      <point x="433" y="685"/>
      <point x="369" y="695" type="curve"/>
      <point x="369" y="781" type="line"/>
      <point x="259" y="781" type="line"/>
      <point x="259" y="697" type="line"/>
      <point x="154" y="684"/>
      <point x="65" y="626"/>
      <point x="65" y="517" type="curve" smooth="yes"/>
      <point x="65" y="400"/>
      <point x="168" y="343"/>
      <point x="277" y="293" type="curve" smooth="yes"/>
      <point x="390" y="240"/>
      <point x="425" y="215"/>
      <point x="425" y="158" type="curve" smooth="yes"/>
      <point x="425" y="97"/>
      <point x="357" y="78"/>
      <point x="292" y="78" type="curve" smooth="yes"/>
      <point x="238" y="78"/>
      <point x="183" y="92"/>
      <point x="159" y="107" type="curve"/>
      <point x="140" y="163" type="line" smooth="yes"/>
      <point x="121" y="219"/>
      <point x="110" y="233"/>
      <point x="86" y="233" type="curve" smooth="yes"/>
      <point x="69" y="233"/>
      <point x="62" y="222"/>
      <point x="62" y="209" type="curve" smooth="yes"/>
      <point x="62" y="44" type="line"/>
      <point x="106" y="19"/>
      <point x="182" y="-4"/>
      <point x="253" y="-12" type="curve"/>
      <point x="253" y="-94" type="line"/>
    </contour>
  </outline>
</glyph>
<glyph name="ampersand" format="1">
  <advance width="746"/>
  <unicode hex="0026"/>
  <note>
	ampersand
  </note>
  <outline>
    <contour>
      <point x="367" y="-15"/>
      <point x="435" y="13"/>
      <point x="479" y="49" type="curve"/>
      <point x="528" y="0" type="line"/>
      <point x="729" y="0" type="line" smooth="yes"/>
      <point x="744" y="0"/>
      <point x="748" y="8"/>
      <point x="748" y="21" type="curve" smooth="yes"/>
      <point x="748" y="41"/>
      <point x="733" y="53"/>
      <point x="701" y="64" type="curve" smooth="yes"/>
      <point x="653" y="81" type="line"/>
      <point x="573" y="159" type="line"/>
      <point x="603" y="200"/>
      <point x="624" y="252"/>
      <point x="633" y="301" type="curve"/>
      <point x="709" y="330" type="line" smooth="yes"/>
      <point x="733" y="339"/>
      <point x="744" y="351"/>
      <point x="744" y="371" type="curve" smooth="yes"/>
      <point x="744" y="383"/>
      <point x="740" y="391"/>
      <point x="726" y="391" type="curve" smooth="yes"/>
      <point x="533" y="391" type="line" smooth="yes"/>
      <point x="494" y="391"/>
      <point x="467" y="375"/>
      <point x="467" y="341" type="curve" smooth="yes"/>
      <point x="467" y="319"/>
      <point x="477" y="306"/>
      <point x="496" y="306" type="curve" smooth="yes"/>
      <point x="547" y="306" type="line"/>
      <point x="541" y="271"/>
      <point x="532" y="242"/>
      <point x="514" y="215" type="curve"/>
      <point x="368" y="355" type="line"/>
      <point x="451" y="390"/>
      <point x="499" y="440"/>
      <point x="499" y="520" type="curve" smooth="yes"/>
      <point x="499" y="609"/>
      <point x="424" y="687"/>
      <point x="293" y="687" type="curve" smooth="yes"/>
      <point x="182" y="687"/>
      <point x="86" y="629"/>
      <point x="86" y="521" type="curve" smooth="yes"/>
      <point x="86" y="455"/>
      <point x="122" y="402"/>
      <point x="169" y="356" type="curve"/>
      <point x="100" y="327"/>
      <point x="32" y="274"/>
      <point x="32" y="174" type="curve" smooth="yes"/>
      <point x="32" y="57"/>
      <point x="147" y="-15"/>
      <point x="283" y="-15" type="curve" smooth="yes"/>
    </contour>
    <contour>
      <point x="235" y="70"/>
      <point x="177" y="106"/>
      <point x="177" y="177" type="curve" smooth="yes"/>
      <point x="177" y="232"/>
      <point x="205" y="266"/>
      <point x="232" y="286" type="curve"/>
      <point x="422" y="108" type="line"/>
      <point x="386" y="83"/>
      <point x="345" y="70"/>
      <point x="302" y="70" type="curve" smooth="yes"/>
    </contour>
    <contour>
      <point x="262" y="446"/>
      <point x="231" y="489"/>
      <point x="231" y="533" type="curve" smooth="yes"/>
      <point x="231" y="580"/>
      <point x="258" y="602"/>
      <point x="295" y="602" type="curve" smooth="yes"/>
      <point x="333" y="602"/>
      <point x="358" y="573"/>
      <point x="358" y="527" type="curve" smooth="yes"/>
      <point x="358" y="475"/>
      <point x="335" y="439"/>
      <point x="297" y="417" type="curve"/>
    </contour>
  </outline>
</glyph>
<glyph name="quotesingle" format="1">
  <advance width="234"/>
  <unicode hex="0027"/>
  <note>
	quotesingle
  </note>
  <outline>
    <contour>
      <point x="132" y="411" type="line"/>
      <point x="207" y="699" type="line"/>
      <point x="72" y="711" type="line"/>
      <point x="27" y="411" type="line"/>
    </contour>
  </outline>
</glyph>
<glyph name="parenleft" format="1">
  <advance width="337"/>
  <unicode hex="0028"/>
  <note>
	parenleft
  </note>
  <outline>
    <contour>
      <point x="298" y="-79" type="line"/>
      <point x="233" y="47"/>
      <point x="189" y="187"/>
      <point x="189" y="350" type="curve" smooth="yes"/>
      <point x="189" y="512"/>
      <point x="233" y="649"/>
      <point x="298" y="775" type="curve"/>
      <point x="168" y="775" type="line"/>
      <point x="91" y="659"/>
      <point x="39" y="514"/>
      <point x="39" y="350" type="curve" smooth="yes"/>
      <point x="39" y="185"/>
      <point x="91" y="37"/>
      <point x="168" y="-79" type="curve"/>
    </contour>
  </outline>
</glyph>
<glyph name="parenright" format="1">
  <advance width="337"/>
  <unicode hex="0029"/>
  <note>
	parenright
  </note>
  <outline>
    <contour>
      <point x="169" y="-79" type="line"/>
      <point x="246" y="37"/>
      <point x="298" y="185"/>
      <point x="298" y="350" type="curve" smooth="yes"/>
      <point x="298" y="514"/>
      <point x="246" y="659"/>
      <point x="169" y="775" type="curve"/>
      <point x="39" y="775" type="line"/>
      <point x="104" y="649"/>
      <point x="148" y="512"/>
      <point x="148" y="350" type="curve" smooth="yes"/>
      <point x="148" y="187"/>
      <point x="104" y="47"/>
      <point x="39" y="-79" type="curve"/>
    </contour>
  </outline>
</glyph>
<glyph name="asterisk" format="1">
  <advance width="427"/>
  <unicode hex="002A"/>
  <note>
	asterisk
  </note>
  <outline>
    <contour>
      <point x="275" y="362" type="line"/>
      <point x="237" y="492" type="line"/>
      <point x="335" y="397" type="line"/>
      <point x="405" y="510" type="line"/>
      <point x="271" y="548" type="line"/>
      <point x="402" y="585" type="line"/>
      <point x="338" y="700" type="line"/>
      <point x="241" y="603" type="line"/>
      <point x="279" y="733" type="line"/>
      <point x="148" y="733" type="line"/>
      <point x="186" y="603" type="line"/>
      <point x="77" y="700" type="line"/>
      <point x="22" y="582" type="line"/>
      <point x="156" y="548" type="line"/>
      <point x="22" y="513" type="line"/>
      <point x="87" y="402" type="line"/>
      <point x="186" y="492" type="line"/>
      <point x="148" y="362" type="line"/>
    </contour>
  </outline>
</glyph>
<glyph name="plus" format="1">
  <advance width="595"/>
  <unicode hex="002B"/>
  <note>
	plus
  </note>
  <outline>
    <contour>
      <point x="372" y="96" type="line"/>
      <point x="372" y="273" type="line"/>
      <point x="546" y="273" type="line"/>
      <point x="546" y="388" type="line"/>
      <point x="372" y="388" type="line"/>
      <point x="372" y="572" type="line"/>
      <point x="223" y="572" type="line"/>
      <point x="223" y="388" type="line"/>
      <point x="49" y="388" type="line"/>
      <point x="49" y="273" type="line"/>
      <point x="223" y="273" type="line"/>
      <point x="223" y="96" type="line"/>
    </contour>
  </outline>
</glyph>
<glyph name="comma" format="1">
  <advance width="350"/>
  <unicode hex="002C"/>
  <note>
	comma
  </note>
  <outline>
    <contour>
      <point x="201" y="-104"/>
      <point x="259" y="18"/>
      <point x="278" y="88" type="curve"/>
      <point x="147" y="117" type="line" smooth="yes"/>
      <point x="107" y="126"/>
      <point x="79" y="108"/>
      <point x="79" y="75" type="curve" smooth="yes"/>
      <point x="79" y="57"/>
      <point x="88" y="49"/>
      <point x="103" y="44" type="curve" smooth="yes"/>
      <point x="134" y="34" type="line"/>
      <point x="130" y="-7"/>
      <point x="89" y="-90"/>
      <point x="57" y="-133" type="curve"/>
      <point x="131" y="-178" type="line"/>
    </contour>
  </outline>
</glyph>
<glyph name="hyphen" format="1">
  <advance width="348"/>
  <unicode hex="002D"/>
  <note>
	hyphen
  </note>
  <outline>
    <contour>
      <point x="333" y="242" type="line"/>
      <point x="333" y="357" type="line"/>
      <point x="15" y="357" type="line"/>
      <point x="15" y="242" type="line"/>
    </contour>
  </outline>
</glyph>
<glyph name="period" format="1">
  <advance width="285"/>
  <unicode hex="002E"/>
  <note>
	period
  </note>
  <outline>
    <contour>
      <point x="187" y="-15"/>
      <point x="223" y="19"/>
      <point x="223" y="66" type="curve" smooth="yes"/>
      <point x="223" y="113"/>
      <point x="187" y="147"/>
      <point x="143" y="147" type="curve" smooth="yes"/>
      <point x="98" y="147"/>
      <point x="62" y="113"/>
      <point x="62" y="66" type="curve" smooth="yes"/>
      <point x="62" y="19"/>
      <point x="98" y="-15"/>
      <point x="143" y="-15" type="curve" smooth="yes"/>
    </contour>
  </outline>
</glyph>
<glyph name="slash" format="1">
  <advance width="406"/>
  <unicode hex="002F"/>
  <note>
	slash
  </note>
  <outline>
    <contour>
      <point x="439" y="716" type="line"/>
      <point x="308" y="766" type="line"/>
      <point x="-38" y="-84" type="line"/>
      <point x="93" y="-134" type="line"/>
    </contour>
  </outline>
</glyph>
<glyph name="zero" format="1">
  <advance width="732"/>
  <unicode hex="0030"/>
  <note>
	zero
  </note>
  <outline>
    <contour>
      <point x="584" y="-15"/>
      <point x="685" y="148"/>
      <point x="685" y="342" type="curve" smooth="yes"/>
      <point x="685" y="536"/>
      <point x="584" y="700"/>
      <point x="366" y="700" type="curve" smooth="yes"/>
      <point x="148" y="700"/>
      <point x="47" y="536"/>
      <point x="47" y="342" type="curve" smooth="yes"/>
      <point x="47" y="148"/>
      <point x="148" y="-15"/>
      <point x="366" y="-15" type="curve" smooth="yes"/>
    </contour>
    <contour>
      <point x="255" y="78"/>
      <point x="197" y="176"/>
      <point x="197" y="342" type="curve" smooth="yes"/>
      <point x="197" y="508"/>
      <point x="255" y="607"/>
      <point x="366" y="607" type="curve" smooth="yes"/>
      <point x="477" y="607"/>
      <point x="535" y="508"/>
      <point x="535" y="342" type="curve" smooth="yes"/>
      <point x="535" y="176"/>
      <point x="477" y="78"/>
      <point x="366" y="78" type="curve" smooth="yes"/>
    </contour>
  </outline>
</glyph>
<glyph name="one" format="1">
  <advance width="462"/>
  <unicode hex="0031"/>
  <note>
	one
  </note>
  <outline>
    <contour>
      <point x="391" y="0" type="line" smooth="yes"/>
      <point x="406" y="0"/>
      <point x="410" y="10"/>
      <point x="410" y="23" type="curve" smooth="yes"/>
      <point x="410" y="43"/>
      <point x="397" y="55"/>
      <point x="360" y="67" type="curve" smooth="yes"/>
      <point x="308" y="84" type="line"/>
      <point x="308" y="685" type="line"/>
      <point x="166" y="685" type="line"/>
      <point x="92" y="661" type="line" smooth="yes"/>
      <point x="59" y="650"/>
      <point x="39" y="635"/>
      <point x="39" y="602" type="curve" smooth="yes"/>
      <point x="39" y="580"/>
      <point x="52" y="569"/>
      <point x="70" y="569" type="curve"/>
      <point x="159" y="596" type="line"/>
      <point x="159" y="85" type="line"/>
      <point x="115" y="85" type="line" smooth="yes"/>
      <point x="76" y="85"/>
      <point x="49" y="69"/>
      <point x="49" y="35" type="curve" smooth="yes"/>
      <point x="49" y="13"/>
      <point x="59" y="0"/>
      <point x="78" y="0" type="curve" smooth="yes"/>
    </contour>
  </outline>
</glyph>
<glyph name="two" format="1">
  <advance width="596"/>
  <unicode hex="0032"/>
  <note>
	two
  </note>
  <outline>
    <contour>
      <point x="544" y="0" type="line"/>
      <point x="544" y="93" type="line"/>
      <point x="243" y="93" type="line"/>
      <point x="243" y="97" type="line"/>
      <point x="387" y="242" type="line" smooth="yes"/>
      <point x="478" y="333"/>
      <point x="535" y="414"/>
      <point x="535" y="502" type="curve" smooth="yes"/>
      <point x="535" y="633"/>
      <point x="454" y="695"/>
      <point x="309" y="695" type="curve" smooth="yes"/>
      <point x="227" y="695"/>
      <point x="147" y="669"/>
      <point x="72" y="629" type="curve"/>
      <point x="72" y="474" type="line" smooth="yes"/>
      <point x="72" y="461"/>
      <point x="79" y="450"/>
      <point x="96" y="450" type="curve" smooth="yes"/>
      <point x="121" y="450"/>
      <point x="132" y="464"/>
      <point x="151" y="521" type="curve" smooth="yes"/>
      <point x="170" y="577" type="line"/>
      <point x="201" y="590"/>
      <point x="242" y="601"/>
      <point x="280" y="601" type="curve" smooth="yes"/>
      <point x="336" y="601"/>
      <point x="381" y="576"/>
      <point x="381" y="513" type="curve" smooth="yes"/>
      <point x="381" y="448"/>
      <point x="336" y="392"/>
      <point x="272" y="328" type="curve" smooth="yes"/>
      <point x="54" y="109" type="line"/>
      <point x="54" y="0" type="line"/>
    </contour>
  </outline>
</glyph>
<glyph name="three" format="1">
  <advance width="597"/>
  <unicode hex="0033"/>
  <note>
	three
  </note>
  <outline>
    <contour>
      <point x="417" y="-10"/>
      <point x="538" y="62"/>
      <point x="538" y="187" type="curve" smooth="yes"/>
      <point x="538" y="284"/>
      <point x="465" y="343"/>
      <point x="370" y="358" type="curve"/>
      <point x="459" y="383"/>
      <point x="515" y="443"/>
      <point x="515" y="528" type="curve" smooth="yes"/>
      <point x="515" y="645"/>
      <point x="410" y="695"/>
      <point x="292" y="695" type="curve" smooth="yes"/>
      <point x="210" y="695"/>
      <point x="126" y="669"/>
      <point x="51" y="629" type="curve"/>
      <point x="51" y="474" type="line" smooth="yes"/>
      <point x="51" y="461"/>
      <point x="58" y="450"/>
      <point x="75" y="450" type="curve" smooth="yes"/>
      <point x="100" y="450"/>
      <point x="111" y="464"/>
      <point x="130" y="521" type="curve" smooth="yes"/>
      <point x="149" y="577" type="line"/>
      <point x="180" y="590"/>
      <point x="221" y="601"/>
      <point x="259" y="601" type="curve" smooth="yes"/>
      <point x="324" y="601"/>
      <point x="366" y="567"/>
      <point x="366" y="508" type="curve" smooth="yes"/>
      <point x="366" y="446"/>
      <point x="324" y="408"/>
      <point x="237" y="397" type="curve" smooth="yes"/>
      <point x="161" y="387" type="line"/>
      <point x="161" y="294" type="line"/>
      <point x="202" y="301"/>
      <point x="235" y="306"/>
      <point x="266" y="306" type="curve" smooth="yes"/>
      <point x="341" y="306"/>
      <point x="389" y="260"/>
      <point x="389" y="200" type="curve" smooth="yes"/>
      <point x="389" y="132"/>
      <point x="355" y="83"/>
      <point x="251" y="83" type="curve" smooth="yes"/>
      <point x="184" y="83"/>
      <point x="102" y="101"/>
      <point x="44" y="125" type="curve"/>
      <point x="44" y="29" type="line"/>
      <point x="93" y="8"/>
      <point x="182" y="-10"/>
      <point x="262" y="-10" type="curve" smooth="yes"/>
    </contour>
  </outline>
</glyph>
<glyph name="four" format="1">
  <advance width="657"/>
  <unicode hex="0034"/>
  <note>
	four
  </note>
  <outline>
    <contour>
      <point x="524" y="0" type="line"/>
      <point x="524" y="137" type="line"/>
      <point x="610" y="137" type="line"/>
      <point x="610" y="230" type="line"/>
      <point x="524" y="230" type="line"/>
      <point x="524" y="685" type="line"/>
      <point x="354" y="685" type="line"/>
      <point x="27" y="224" type="line"/>
      <point x="27" y="137" type="line"/>
      <point x="375" y="137" type="line"/>
      <point x="375" y="0" type="line"/>
    </contour>
    <contour>
      <point x="375" y="548" type="line"/>
      <point x="375" y="230" type="line"/>
      <point x="150" y="230" type="line"/>
    </contour>
  </outline>
</glyph>
<glyph name="five" format="1">
  <advance width="560"/>
  <unicode hex="0035"/>
  <note>
	five
  </note>
  <outline>
    <contour>
      <point x="387" y="-10"/>
      <point x="523" y="49"/>
      <point x="523" y="219" type="curve" smooth="yes"/>
      <point x="523" y="351"/>
      <point x="434" y="427"/>
      <point x="309" y="427" type="curve" smooth="yes"/>
      <point x="277" y="427"/>
      <point x="236" y="422"/>
      <point x="206" y="415" type="curve"/>
      <point x="221" y="592" type="line"/>
      <point x="468" y="592" type="line"/>
      <point x="468" y="685" type="line"/>
      <point x="79" y="685" type="line"/>
      <point x="53" y="373" type="line"/>
      <point x="115" y="315" type="line"/>
      <point x="161" y="326"/>
      <point x="197" y="334"/>
      <point x="243" y="334" type="curve" smooth="yes"/>
      <point x="320" y="334"/>
      <point x="374" y="290"/>
      <point x="374" y="208" type="curve" smooth="yes"/>
      <point x="374" y="112"/>
      <point x="304" y="83"/>
      <point x="224" y="83" type="curve" smooth="yes"/>
      <point x="157" y="83"/>
      <point x="82" y="104"/>
      <point x="37" y="122" type="curve"/>
      <point x="37" y="28" type="line"/>
      <point x="97" y="4"/>
      <point x="171" y="-10"/>
      <point x="243" y="-10" type="curve" smooth="yes"/>
    </contour>
  </outline>
</glyph>
<glyph name="six" format="1">
  <advance width="618"/>
  <unicode hex="0036"/>
  <note>
	six
  </note>
  <outline>
    <contour>
      <point x="460" y="-10"/>
      <point x="571" y="70"/>
      <point x="571" y="216" type="curve" smooth="yes"/>
      <point x="571" y="337"/>
      <point x="486" y="425"/>
      <point x="337" y="425" type="curve" smooth="yes"/>
      <point x="285" y="425"/>
      <point x="232" y="408"/>
      <point x="195" y="387" type="curve"/>
      <point x="195" y="529"/>
      <point x="286" y="602"/>
      <point x="392" y="602" type="curve" smooth="yes"/>
      <point x="419" y="602"/>
      <point x="448" y="600"/>
      <point x="479" y="592" type="curve"/>
      <point x="479" y="683" type="line"/>
      <point x="448" y="690"/>
      <point x="419" y="695"/>
      <point x="390" y="695" type="curve" smooth="yes"/>
      <point x="171" y="695"/>
      <point x="47" y="538"/>
      <point x="47" y="329" type="curve" smooth="yes"/>
      <point x="47" y="120"/>
      <point x="140" y="-10"/>
      <point x="319" y="-10" type="curve" smooth="yes"/>
    </contour>
    <contour>
      <point x="236" y="83"/>
      <point x="196" y="159"/>
      <point x="196" y="292" type="curve"/>
      <point x="229" y="315"/>
      <point x="274" y="332"/>
      <point x="311" y="332" type="curve" smooth="yes"/>
      <point x="382" y="332"/>
      <point x="422" y="288"/>
      <point x="422" y="211" type="curve" smooth="yes"/>
      <point x="422" y="152"/>
      <point x="395" y="83"/>
      <point x="315" y="83" type="curve" smooth="yes"/>
    </contour>
  </outline>
</glyph>
<glyph name="seven" format="1">
  <advance width="584"/>
  <unicode hex="0037"/>
  <note>
	seven
  </note>
  <outline>
    <contour>
      <point x="305" y="0" type="line"/>
      <point x="547" y="605" type="line"/>
      <point x="547" y="685" type="line"/>
      <point x="37" y="685" type="line"/>
      <point x="37" y="530" type="line" smooth="yes"/>
      <point x="37" y="517"/>
      <point x="44" y="506"/>
      <point x="61" y="506" type="curve" smooth="yes"/>
      <point x="86" y="506"/>
      <point x="99" y="525"/>
      <point x="108" y="553" type="curve" smooth="yes"/>
      <point x="121" y="592" type="line"/>
      <point x="383" y="592" type="line"/>
      <point x="140" y="0" type="line"/>
    </contour>
  </outline>
</glyph>
<glyph name="eight" format="1">
  <advance width="664"/>
  <unicode hex="0038"/>
  <note>
	eight
  </note>
  <outline>
    <contour>
      <point x="486" y="-13"/>
      <point x="607" y="63"/>
      <point x="607" y="187" type="curve" smooth="yes"/>
      <point x="607" y="262"/>
      <point x="553" y="322"/>
      <point x="465" y="362" type="curve"/>
      <point x="538" y="410"/>
      <point x="574" y="456"/>
      <point x="574" y="524" type="curve" smooth="yes"/>
      <point x="574" y="623"/>
      <point x="485" y="698"/>
      <point x="336" y="698" type="curve" smooth="yes"/>
      <point x="185" y="698"/>
      <point x="86" y="622"/>
      <point x="86" y="523" type="curve" smooth="yes"/>
      <point x="86" y="454"/>
      <point x="120" y="401"/>
      <point x="199" y="358" type="curve"/>
      <point x="111" y="320"/>
      <point x="57" y="255"/>
      <point x="57" y="182" type="curve" smooth="yes"/>
      <point x="57" y="59"/>
      <point x="173" y="-13"/>
      <point x="328" y="-13" type="curve" smooth="yes"/>
    </contour>
    <contour>
      <point x="258" y="80"/>
      <point x="200" y="117"/>
      <point x="200" y="179" type="curve" smooth="yes"/>
      <point x="200" y="238"/>
      <point x="268" y="280"/>
      <point x="326" y="303" type="curve"/>
      <point x="384" y="280"/>
      <point x="452" y="238"/>
      <point x="452" y="179" type="curve" smooth="yes"/>
      <point x="452" y="117"/>
      <point x="394" y="80"/>
      <point x="326" y="80" type="curve" smooth="yes"/>
    </contour>
    <contour>
      <point x="279" y="445"/>
      <point x="238" y="478"/>
      <point x="238" y="525" type="curve" smooth="yes"/>
      <point x="238" y="577"/>
      <point x="284" y="605"/>
      <point x="336" y="605" type="curve" smooth="yes"/>
      <point x="388" y="605"/>
      <point x="434" y="577"/>
      <point x="434" y="525" type="curve" smooth="yes"/>
      <point x="434" y="478"/>
      <point x="393" y="445"/>
      <point x="336" y="419" type="curve"/>
    </contour>
  </outline>
</glyph>
<glyph name="nine" format="1">
  <advance width="618"/>
  <unicode hex="0039"/>
  <note>
	nine
  </note>
  <outline>
    <contour>
      <point x="454" y="-10"/>
      <point x="571" y="154"/>
      <point x="571" y="356" type="curve" smooth="yes"/>
      <point x="571" y="575"/>
      <point x="478" y="695"/>
      <point x="299" y="695" type="curve" smooth="yes"/>
      <point x="158" y="695"/>
      <point x="47" y="607"/>
      <point x="47" y="459" type="curve" smooth="yes"/>
      <point x="47" y="338"/>
      <point x="132" y="240"/>
      <point x="281" y="240" type="curve" smooth="yes"/>
      <point x="333" y="240"/>
      <point x="386" y="257"/>
      <point x="423" y="278" type="curve"/>
      <point x="418" y="140"/>
      <point x="328" y="83"/>
      <point x="227" y="83" type="curve" smooth="yes"/>
      <point x="196" y="83"/>
      <point x="163" y="87"/>
      <point x="129" y="97" type="curve"/>
      <point x="129" y="6" type="line"/>
      <point x="158" y="-4"/>
      <point x="206" y="-10"/>
      <point x="242" y="-10" type="curve" smooth="yes"/>
    </contour>
    <contour>
      <point x="236" y="333"/>
      <point x="196" y="387"/>
      <point x="196" y="464" type="curve" smooth="yes"/>
      <point x="196" y="533"/>
      <point x="223" y="602"/>
      <point x="303" y="602" type="curve" smooth="yes"/>
      <point x="382" y="602"/>
      <point x="422" y="516"/>
      <point x="422" y="373" type="curve"/>
      <point x="389" y="350"/>
      <point x="344" y="333"/>
      <point x="307" y="333" type="curve" smooth="yes"/>
    </contour>
  </outline>
</glyph>
<glyph name="colon" format="1">
  <advance width="310"/>
  <unicode hex="003A"/>
  <note>
	colon
  </note>
  <outline>
    <contour>
      <point x="208" y="356"/>
      <point x="248" y="393"/>
      <point x="248" y="449" type="curve" smooth="yes"/>
      <point x="248" y="505"/>
      <point x="208" y="542"/>
      <point x="155" y="542" type="curve" smooth="yes"/>
      <point x="102" y="542"/>
      <point x="62" y="505"/>
      <point x="62" y="449" type="curve" smooth="yes"/>
      <point x="62" y="393"/>
      <point x="102" y="356"/>
      <point x="155" y="356" type="curve" smooth="yes"/>
    </contour>
    <contour>
      <point x="208" y="-4"/>
      <point x="248" y="33"/>
      <point x="248" y="89" type="curve" smooth="yes"/>
      <point x="248" y="145"/>
      <point x="208" y="182"/>
      <point x="155" y="182" type="curve" smooth="yes"/>
      <point x="102" y="182"/>
      <point x="62" y="145"/>
      <point x="62" y="89" type="curve" smooth="yes"/>
      <point x="62" y="33"/>
      <point x="102" y="-4"/>
      <point x="155" y="-4" type="curve" smooth="yes"/>
    </contour>
  </outline>
</glyph>
<glyph name="semicolon" format="1">
  <advance width="313"/>
  <unicode hex="003B"/>
  <note>
	semicolon
  </note>
  <outline>
    <contour>
      <point x="168" y="-104"/>
      <point x="236" y="18"/>
      <point x="255" y="88" type="curve"/>
      <point x="124" y="117" type="line" smooth="yes"/>
      <point x="84" y="126"/>
      <point x="56" y="108"/>
      <point x="56" y="75" type="curve" smooth="yes"/>
      <point x="56" y="57"/>
      <point x="65" y="49"/>
      <point x="80" y="44" type="curve" smooth="yes"/>
      <point x="111" y="34" type="line"/>
      <point x="107" y="-7"/>
      <point x="63" y="-85"/>
      <point x="34" y="-123" type="curve"/>
      <point x="108" y="-168" type="line"/>
    </contour>
    <contour>
      <point x="216" y="356"/>
      <point x="256" y="393"/>
      <point x="256" y="449" type="curve" smooth="yes"/>
      <point x="256" y="505"/>
      <point x="216" y="542"/>
      <point x="163" y="542" type="curve" smooth="yes"/>
      <point x="110" y="542"/>
      <point x="70" y="505"/>
      <point x="70" y="449" type="curve" smooth="yes"/>
      <point x="70" y="393"/>
      <point x="110" y="356"/>
      <point x="163" y="356" type="curve" smooth="yes"/>
    </contour>
  </outline>
</glyph>
<glyph name="less" format="1">
  <advance width="572"/>
  <unicode hex="003C"/>
  <note>
	less
  </note>
  <outline>
    <contour>
      <point x="510" y="145" type="line"/>
      <point x="193" y="316" type="line"/>
      <point x="510" y="487" type="line"/>
      <point x="454" y="595" type="line"/>
      <point x="52" y="372" type="line"/>
      <point x="52" y="260" type="line"/>
      <point x="454" y="37" type="line"/>
    </contour>
  </outline>
</glyph>
<glyph name="equal" format="1">
  <advance width="542"/>
  <unicode hex="003D"/>
  <note>
	equal
  </note>
  <outline>
    <contour>
      <point x="493" y="363" type="line"/>
      <point x="493" y="473" type="line"/>
      <point x="49" y="473" type="line"/>
      <point x="49" y="363" type="line"/>
    </contour>
    <contour>
      <point x="493" y="167" type="line"/>
      <point x="493" y="277" type="line"/>
      <point x="49" y="277" type="line"/>
      <point x="49" y="167" type="line"/>
    </contour>
  </outline>
</glyph>
<glyph name="greater" format="1">
  <advance width="572"/>
  <unicode hex="003E"/>
  <note>
	greater
  </note>
  <outline>
    <contour>
      <point x="520" y="260" type="line"/>
      <point x="520" y="372" type="line"/>
      <point x="118" y="595" type="line"/>
      <point x="62" y="487" type="line"/>
      <point x="379" y="316" type="line"/>
      <point x="62" y="145" type="line"/>
      <point x="118" y="37" type="line"/>
    </contour>
  </outline>
</glyph>
<glyph name="question" format="1">
  <advance width="489"/>
  <unicode hex="003F"/>
  <note>
	question
  </note>
  <outline>
    <contour>
      <point x="305" y="166" type="line"/>
      <point x="305" y="256" type="line" smooth="yes"/>
      <point x="305" y="327"/>
      <point x="322" y="346"/>
      <point x="373" y="404" type="curve" smooth="yes"/>
      <point x="406" y="441"/>
      <point x="447" y="487"/>
      <point x="447" y="563" type="curve" smooth="yes"/>
      <point x="447" y="650"/>
      <point x="382" y="720"/>
      <point x="254" y="720" type="curve" smooth="yes"/>
      <point x="171" y="720"/>
      <point x="101" y="687"/>
      <point x="67" y="659" type="curve"/>
      <point x="67" y="548" type="line" smooth="yes"/>
      <point x="67" y="536"/>
      <point x="75" y="526"/>
      <point x="93" y="526" type="curve" smooth="yes"/>
      <point x="118" y="526"/>
      <point x="131" y="542"/>
      <point x="138" y="570" type="curve" smooth="yes"/>
      <point x="150" y="614" type="line"/>
      <point x="174" y="627"/>
      <point x="206" y="635"/>
      <point x="238" y="635" type="curve" smooth="yes"/>
      <point x="290" y="635"/>
      <point x="317" y="597"/>
      <point x="317" y="554" type="curve" smooth="yes"/>
      <point x="317" y="506"/>
      <point x="294" y="470"/>
      <point x="263" y="437" type="curve" smooth="yes"/>
      <point x="220" y="391"/>
      <point x="185" y="350"/>
      <point x="185" y="278" type="curve" smooth="yes"/>
      <point x="185" y="166" type="line"/>
    </contour>
    <contour>
      <point x="282" y="-15"/>
      <point x="311" y="10"/>
      <point x="311" y="51" type="curve" smooth="yes"/>
      <point x="311" y="91"/>
      <point x="282" y="116"/>
      <point x="245" y="116" type="curve" smooth="yes"/>
      <point x="209" y="116"/>
      <point x="180" y="91"/>
      <point x="180" y="51" type="curve" smooth="yes"/>
      <point x="180" y="10"/>
      <point x="209" y="-15"/>
      <point x="245" y="-15" type="curve" smooth="yes"/>
    </contour>
  </outline>
</glyph>
<glyph name="at" format="1">
  <advance width="856"/>
  <unicode hex="0040"/>
  <note>
	at
  </note>
  <outline>
    <contour>
      <point x="493" y="-95"/>
      <point x="577" y="-76"/>
      <point x="652" y="-51" type="curve"/>
      <point x="652" y="53" type="line"/>
      <point x="551" y="16"/>
      <point x="479" y="3"/>
      <point x="422" y="3" type="curve" smooth="yes"/>
      <point x="251" y="3"/>
      <point x="142" y="104"/>
      <point x="142" y="283" type="curve" smooth="yes"/>
      <point x="142" y="489"/>
      <point x="271" y="623"/>
      <point x="471" y="623" type="curve" smooth="yes"/>
      <point x="627" y="623"/>
      <point x="737" y="519"/>
      <point x="737" y="358" type="curve" smooth="yes"/>
      <point x="737" y="257"/>
      <point x="703" y="192"/>
      <point x="659" y="192" type="curve" smooth="yes"/>
      <point x="633" y="192"/>
      <point x="609" y="210"/>
      <point x="611" y="247" type="curve" smooth="yes"/>
      <point x="628" y="503" type="line"/>
      <point x="565" y="522"/>
      <point x="513" y="533"/>
      <point x="458" y="533" type="curve" smooth="yes"/>
      <point x="322" y="533"/>
      <point x="239" y="434"/>
      <point x="239" y="295" type="curve" smooth="yes"/>
      <point x="239" y="160"/>
      <point x="311" y="95"/>
      <point x="418" y="95" type="curve" smooth="yes"/>
      <point x="463" y="95"/>
      <point x="509" y="116"/>
      <point x="548" y="149" type="curve"/>
      <point x="575" y="114"/>
      <point x="616" y="95"/>
      <point x="658" y="95" type="curve" smooth="yes"/>
      <point x="764" y="95"/>
      <point x="839" y="214"/>
      <point x="839" y="357" type="curve" smooth="yes"/>
      <point x="839" y="582"/>
      <point x="685" y="720"/>
      <point x="462" y="720" type="curve" smooth="yes"/>
      <point x="207" y="720"/>
      <point x="39" y="535"/>
      <point x="39" y="280" type="curve" smooth="yes"/>
      <point x="39" y="39"/>
      <point x="189" y="-95"/>
      <point x="422" y="-95" type="curve" smooth="yes"/>
    </contour>
    <contour>
      <point x="369" y="192"/>
      <point x="343" y="226"/>
      <point x="343" y="293" type="curve" smooth="yes"/>
      <point x="343" y="382"/>
      <point x="388" y="435"/>
      <point x="459" y="435" type="curve" smooth="yes"/>
      <point x="477" y="435"/>
      <point x="496" y="434"/>
      <point x="521" y="430" type="curve"/>
      <point x="508" y="233" type="line"/>
      <point x="484" y="202"/>
      <point x="453" y="192"/>
      <point x="419" y="192" type="curve" smooth="yes"/>
    </contour>
  </outline>
</glyph>
<glyph name="B" format="1">
  <advance width="737"/>
  <unicode hex="0042"/>
  <note>
	B
  </note>
  <outline>
    <contour>
      <point x="450" y="0" type="line" smooth="yes"/>
      <point x="595" y="0"/>
      <point x="690" y="72"/>
      <point x="690" y="195" type="curve" smooth="yes"/>
      <point x="690" y="270"/>
      <point x="644" y="335"/>
      <point x="554" y="361" type="curve"/>
      <point x="554" y="365" type="line"/>
      <point x="617" y="390"/>
      <point x="653" y="445"/>
      <point x="653" y="504" type="curve" smooth="yes"/>
      <point x="653" y="615"/>
      <point x="575" y="695"/>
      <point x="412" y="695" type="curve" smooth="yes"/>
      <point x="69" y="695" type="line" smooth="yes"/>
      <point x="57" y="695"/>
      <point x="47" y="687"/>
      <point x="47" y="666" type="curve" smooth="yes"/>
      <point x="47" y="636"/>
      <point x="67" y="625"/>
      <point x="113" y="607" type="curve" smooth="yes"/>
      <point x="126" y="602" type="line"/>
      <point x="126" y="93" type="line"/>
      <point x="113" y="88" type="line" smooth="yes"/>
      <point x="67" y="70"/>
      <point x="47" y="59"/>
      <point x="47" y="29" type="curve" smooth="yes"/>
      <point x="47" y="8"/>
      <point x="57" y="0"/>
      <point x="69" y="0" type="curve" smooth="yes"/>
    </contour>
    <contour>
      <point x="276" y="310" type="line"/>
      <point x="429" y="310" type="line" smooth="yes"/>
      <point x="502" y="310"/>
      <point x="540" y="265"/>
      <point x="540" y="198" type="curve" smooth="yes"/>
      <point x="540" y="131"/>
      <point x="502" y="92"/>
      <point x="429" y="92" type="curve" smooth="yes"/>
      <point x="276" y="92" type="line"/>
    </contour>
    <contour>
      <point x="276" y="603" type="line"/>
      <point x="406" y="603" type="line" smooth="yes"/>
      <point x="469" y="603"/>
      <point x="503" y="558"/>
      <point x="503" y="501" type="curve" smooth="yes"/>
      <point x="503" y="444"/>
      <point x="469" y="400"/>
      <point x="406" y="400" type="curve" smooth="yes"/>
      <point x="276" y="400" type="line"/>
    </contour>
  </outline>
</glyph>
<glyph name="C" format="1">
  <advance width="676"/>
  <unicode hex="0043"/>
  <note>
	C
  </note>
  <outline>
    <contour>
      <point x="498" y="-15"/>
      <point x="564" y="15"/>
      <point x="597" y="38" type="curve" smooth="yes"/>
      <point x="616" y="51"/>
      <point x="634" y="67"/>
      <point x="634" y="94" type="curve" smooth="yes"/>
      <point x="634" y="119"/>
      <point x="614" y="136"/>
      <point x="595" y="136" type="curve" smooth="yes"/>
      <point x="584" y="136"/>
      <point x="575" y="130"/>
      <point x="554" y="116" type="curve" smooth="yes"/>
      <point x="515" y="90"/>
      <point x="471" y="79"/>
      <point x="412" y="79" type="curve" smooth="yes"/>
      <point x="290" y="79"/>
      <point x="188" y="168"/>
      <point x="188" y="349" type="curve" smooth="yes"/>
      <point x="188" y="529"/>
      <point x="283" y="616"/>
      <point x="408" y="616" type="curve" smooth="yes"/>
      <point x="467" y="616"/>
      <point x="509" y="600"/>
      <point x="529" y="590" type="curve"/>
      <point x="550" y="521" type="line" smooth="yes"/>
      <point x="562" y="481"/>
      <point x="573" y="463"/>
      <point x="599" y="463" type="curve" smooth="yes"/>
      <point x="620" y="463"/>
      <point x="624" y="475"/>
      <point x="624" y="489" type="curve" smooth="yes"/>
      <point x="624" y="633" type="line"/>
      <point x="575" y="673"/>
      <point x="495" y="710"/>
      <point x="380" y="710" type="curve" smooth="yes"/>
      <point x="207" y="710"/>
      <point x="36" y="590"/>
      <point x="36" y="349" type="curve" smooth="yes"/>
      <point x="36" y="106"/>
      <point x="200" y="-15"/>
      <point x="390" y="-15" type="curve" smooth="yes"/>
    </contour>
  </outline>
</glyph>
<glyph name="F" format="1">
  <advance width="679"/>
  <unicode hex="0046"/>
  <note>
	F
  </note>
  <outline>
    <contour>
      <point x="339" y="0" type="line" smooth="yes"/>
      <point x="354" y="0"/>
      <point x="358" y="7"/>
      <point x="358" y="20" type="curve" smooth="yes"/>
      <point x="358" y="40"/>
      <point x="345" y="50"/>
      <point x="314" y="65" type="curve" smooth="yes"/>
      <point x="276" y="84" type="line"/>
      <point x="276" y="282" type="line"/>
      <point x="476" y="282" type="line"/>
      <point x="493" y="246" type="line" smooth="yes"/>
      <point x="505" y="221"/>
      <point x="515" y="209"/>
      <point x="528" y="209" type="curve" smooth="yes"/>
      <point x="544" y="209"/>
      <point x="549" y="219"/>
      <point x="549" y="229" type="curve" smooth="yes"/>
      <point x="549" y="429" type="line" smooth="yes"/>
      <point x="549" y="439"/>
      <point x="544" y="449"/>
      <point x="528" y="449" type="curve" smooth="yes"/>
      <point x="515" y="449"/>
      <point x="505" y="437"/>
      <point x="493" y="412" type="curve" smooth="yes"/>
      <point x="476" y="376" type="line"/>
      <point x="276" y="376" type="line"/>
      <point x="276" y="601" type="line"/>
      <point x="542" y="601" type="line"/>
      <point x="554" y="568" type="line" smooth="yes"/>
      <point x="571" y="521"/>
      <point x="582" y="498"/>
      <point x="602" y="498" type="curve" smooth="yes"/>
      <point x="620" y="498"/>
      <point x="625" y="507"/>
      <point x="625" y="521" type="curve" smooth="yes"/>
      <point x="625" y="695" type="line"/>
      <point x="69" y="695" type="line" smooth="yes"/>
      <point x="57" y="695"/>
      <point x="47" y="687"/>
      <point x="47" y="666" type="curve" smooth="yes"/>
      <point x="47" y="636"/>
      <point x="67" y="625"/>
      <point x="113" y="607" type="curve" smooth="yes"/>
      <point x="126" y="602" type="line"/>
      <point x="126" y="85" type="line"/>
      <point x="117" y="85" type="line" smooth="yes"/>
      <point x="77" y="85"/>
      <point x="51" y="69"/>
      <point x="51" y="35" type="curve" smooth="yes"/>
      <point x="51" y="13"/>
      <point x="61" y="0"/>
      <point x="80" y="0" type="curve" smooth="yes"/>
    </contour>
  </outline>
</glyph>
<glyph name="H" format="1">
  <advance width="847"/>
  <unicode hex="0048"/>
  <note>
	H
  </note>
  <outline>
    <contour>
      <point x="335" y="0" type="line" smooth="yes"/>
      <point x="350" y="0"/>
      <point x="354" y="7"/>
      <point x="354" y="20" type="curve" smooth="yes"/>
      <point x="354" y="40"/>
      <point x="341" y="50"/>
      <point x="310" y="65" type="curve" smooth="yes"/>
      <point x="272" y="84" type="line"/>
      <point x="272" y="314" type="line"/>
      <point x="573" y="314" type="line"/>
      <point x="573" y="85" type="line"/>
      <point x="559" y="85" type="line" smooth="yes"/>
      <point x="520" y="85"/>
      <point x="493" y="69"/>
      <point x="493" y="35" type="curve" smooth="yes"/>
      <point x="493" y="13"/>
      <point x="503" y="0"/>
      <point x="522" y="0" type="curve" smooth="yes"/>
      <point x="782" y="0" type="line" smooth="yes"/>
      <point x="796" y="0"/>
      <point x="800" y="8"/>
      <point x="800" y="20" type="curve" smooth="yes"/>
      <point x="800" y="40"/>
      <point x="788" y="49"/>
      <point x="765" y="61" type="curve" smooth="yes"/>
      <point x="723" y="84" type="line"/>
      <point x="723" y="611" type="line"/>
      <point x="765" y="634" type="line" smooth="yes"/>
      <point x="788" y="646"/>
      <point x="800" y="655"/>
      <point x="800" y="675" type="curve" smooth="yes"/>
      <point x="800" y="687"/>
      <point x="796" y="695"/>
      <point x="782" y="695" type="curve" smooth="yes"/>
      <point x="559" y="695" type="line" smooth="yes"/>
      <point x="520" y="695"/>
      <point x="493" y="679"/>
      <point x="493" y="645" type="curve" smooth="yes"/>
      <point x="493" y="623"/>
      <point x="503" y="610"/>
      <point x="522" y="610" type="curve" smooth="yes"/>
      <point x="573" y="610" type="line"/>
      <point x="573" y="408" type="line"/>
      <point x="272" y="408" type="line"/>
      <point x="272" y="611" type="line"/>
      <point x="310" y="630" type="line" smooth="yes"/>
      <point x="341" y="645"/>
      <point x="354" y="655"/>
      <point x="354" y="675" type="curve" smooth="yes"/>
      <point x="354" y="688"/>
      <point x="350" y="695"/>
      <point x="335" y="695" type="curve" smooth="yes"/>
      <point x="113" y="695" type="line" smooth="yes"/>
      <point x="74" y="695"/>
      <point x="47" y="679"/>
      <point x="47" y="645" type="curve" smooth="yes"/>
      <point x="47" y="623"/>
      <point x="57" y="610"/>
      <point x="76" y="610" type="curve" smooth="yes"/>
      <point x="122" y="610" type="line"/>
      <point x="122" y="85" type="line"/>
      <point x="113" y="85" type="line" smooth="yes"/>
      <point x="73" y="85"/>
      <point x="47" y="69"/>
      <point x="47" y="35" type="curve" smooth="yes"/>
      <point x="47" y="13"/>
      <point x="57" y="0"/>
      <point x="76" y="0" type="curve" smooth="yes"/>
    </contour>
  </outline>
</glyph>
<glyph name="J" format="1">
  <advance width="459"/>
  <unicode hex="004A"/>
  <note>
	J
  </note>
  <outline>
    <contour>
      <point x="142" y="-15"/>
      <point x="178" y="-7"/>
      <point x="211" y="12" type="curve" smooth="yes"/>
      <point x="263" y="42"/>
      <point x="343" y="116"/>
      <point x="343" y="267" type="curve" smooth="yes"/>
      <point x="343" y="611" type="line"/>
      <point x="381" y="630" type="line" smooth="yes"/>
      <point x="412" y="645"/>
      <point x="425" y="655"/>
      <point x="425" y="675" type="curve" smooth="yes"/>
      <point x="425" y="688"/>
      <point x="421" y="695"/>
      <point x="406" y="695" type="curve" smooth="yes"/>
      <point x="164" y="695" type="line" smooth="yes"/>
      <point x="125" y="695"/>
      <point x="98" y="679"/>
      <point x="98" y="645" type="curve" smooth="yes"/>
      <point x="98" y="623"/>
      <point x="108" y="610"/>
      <point x="127" y="610" type="curve" smooth="yes"/>
      <point x="193" y="610" type="line"/>
      <point x="193" y="277" type="line" smooth="yes"/>
      <point x="193" y="164"/>
      <point x="137" y="124"/>
      <point x="27" y="84" type="curve"/>
      <point x="31" y="12"/>
      <point x="66" y="-15"/>
      <point x="111" y="-15" type="curve" smooth="yes"/>
    </contour>
  </outline>
</glyph>
<glyph name="K" format="1">
  <advance width="762"/>
  <unicode hex="004B"/>
  <note>
	K
  </note>
  <outline>
    <contour>
      <point x="743" y="0" type="line" smooth="yes"/>
      <point x="758" y="0"/>
      <point x="762" y="8"/>
      <point x="762" y="21" type="curve" smooth="yes"/>
      <point x="762" y="41"/>
      <point x="747" y="53"/>
      <point x="715" y="64" type="curve" smooth="yes"/>
      <point x="667" y="81" type="line"/>
      <point x="429" y="364" type="line"/>
      <point x="665" y="611" type="line"/>
      <point x="697" y="622" type="line" smooth="yes"/>
      <point x="729" y="633"/>
      <point x="745" y="647"/>
      <point x="745" y="667" type="curve" smooth="yes"/>
      <point x="745" y="687"/>
      <point x="737" y="695"/>
      <point x="722" y="695" type="curve" smooth="yes"/>
      <point x="510" y="695" type="line" smooth="yes"/>
      <point x="471" y="695"/>
      <point x="444" y="679"/>
      <point x="444" y="645" type="curve" smooth="yes"/>
      <point x="444" y="623"/>
      <point x="454" y="610"/>
      <point x="473" y="610" type="curve" smooth="yes"/>
      <point x="533" y="610" type="line"/>
      <point x="272" y="340" type="line"/>
      <point x="535" y="0" type="line"/>
    </contour>
    <contour>
      <point x="335" y="0" type="line" smooth="yes"/>
      <point x="347" y="0"/>
      <point x="354" y="7"/>
      <point x="354" y="20" type="curve" smooth="yes"/>
      <point x="354" y="40"/>
      <point x="341" y="50"/>
      <point x="310" y="65" type="curve" smooth="yes"/>
      <point x="272" y="84" type="line"/>
      <point x="272" y="611" type="line"/>
      <point x="310" y="630" type="line" smooth="yes"/>
      <point x="341" y="645"/>
      <point x="352" y="655"/>
      <point x="352" y="675" type="curve" smooth="yes"/>
      <point x="352" y="688"/>
      <point x="344" y="695"/>
      <point x="333" y="695" type="curve" smooth="yes"/>
      <point x="113" y="695" type="line" smooth="yes"/>
      <point x="74" y="695"/>
      <point x="47" y="679"/>
      <point x="47" y="645" type="curve" smooth="yes"/>
      <point x="47" y="623"/>
      <point x="57" y="610"/>
      <point x="76" y="610" type="curve" smooth="yes"/>
      <point x="122" y="610" type="line"/>
      <point x="122" y="85" type="line"/>
      <point x="113" y="85" type="line" smooth="yes"/>
      <point x="74" y="85"/>
      <point x="47" y="69"/>
      <point x="47" y="35" type="curve" smooth="yes"/>
      <point x="47" y="13"/>
      <point x="57" y="0"/>
      <point x="76" y="0" type="curve" smooth="yes"/>
    </contour>
  </outline>
</glyph>
<glyph name="M" format="1">
  <advance width="1097"/>
  <unicode hex="004D"/>
  <note>
	M
  </note>
  <outline>
    <contour>
      <point x="285" y="0" type="line" smooth="yes"/>
      <point x="296" y="0"/>
      <point x="302" y="7"/>
      <point x="302" y="22" type="curve" smooth="yes"/>
      <point x="302" y="41"/>
      <point x="291" y="51"/>
      <point x="255" y="64" type="curve" smooth="yes"/>
      <point x="201" y="84" type="line"/>
      <point x="278" y="510" type="line" smooth="yes"/>
      <point x="284" y="543"/>
      <point x="286" y="595"/>
      <point x="286" y="595" type="curve"/>
      <point x="290" y="595" type="line"/>
      <point x="290" y="595"/>
      <point x="295" y="543"/>
      <point x="304" y="510" type="curve" smooth="yes"/>
      <point x="449" y="0" type="line"/>
      <point x="612" y="0" type="line"/>
      <point x="741" y="510" type="line" smooth="yes"/>
      <point x="749" y="543"/>
      <point x="756" y="595"/>
      <point x="756" y="595" type="curve"/>
      <point x="760" y="595" type="line"/>
      <point x="760" y="595"/>
      <point x="763" y="543"/>
      <point x="770" y="510" type="curve" smooth="yes"/>
      <point x="860" y="85" type="line"/>
      <point x="827" y="85" type="line" smooth="yes"/>
      <point x="788" y="85"/>
      <point x="761" y="69"/>
      <point x="761" y="35" type="curve" smooth="yes"/>
      <point x="761" y="13"/>
      <point x="771" y="0"/>
      <point x="790" y="0" type="curve" smooth="yes"/>
      <point x="1067" y="0" type="line" smooth="yes"/>
      <point x="1080" y="0"/>
      <point x="1084" y="11"/>
      <point x="1084" y="26" type="curve" smooth="yes"/>
      <point x="1084" y="47"/>
      <point x="1071" y="57"/>
      <point x="1040" y="70" type="curve" smooth="yes"/>
      <point x="1005" y="85" type="line"/>
      <point x="893" y="602" type="line"/>
      <point x="906" y="607" type="line" smooth="yes"/>
      <point x="952" y="625"/>
      <point x="972" y="636"/>
      <point x="972" y="666" type="curve" smooth="yes"/>
      <point x="972" y="687"/>
      <point x="962" y="695"/>
      <point x="950" y="695" type="curve" smooth="yes"/>
      <point x="682" y="695" type="line"/>
      <point x="571" y="258" type="line" smooth="yes"/>
      <point x="557" y="203"/>
      <point x="549" y="99"/>
      <point x="549" y="99" type="curve" smooth="yes"/>
      <point x="545" y="99" type="line" smooth="yes"/>
      <point x="545" y="99"/>
      <point x="537" y="203"/>
      <point x="522" y="258" type="curve" smooth="yes"/>
      <point x="400" y="695" type="line"/>
      <point x="134" y="695" type="line" smooth="yes"/>
      <point x="122" y="695"/>
      <point x="112" y="687"/>
      <point x="112" y="666" type="curve" smooth="yes"/>
      <point x="112" y="636"/>
      <point x="132" y="625"/>
      <point x="178" y="607" type="curve" smooth="yes"/>
      <point x="191" y="602" type="line"/>
      <point x="92" y="85" type="line"/>
      <point x="82" y="85" type="line" smooth="yes"/>
      <point x="43" y="85"/>
      <point x="16" y="69"/>
      <point x="16" y="35" type="curve" smooth="yes"/>
      <point x="16" y="13"/>
      <point x="26" y="0"/>
      <point x="45" y="0" type="curve" smooth="yes"/>
    </contour>
  </outline>
</glyph>
<glyph name="O" format="1">
  <advance width="766"/>
  <unicode hex="004F"/>
  <note>
	O
  </note>
  <outline>
    <contour>
      <point x="571" y="-15"/>
      <point x="727" y="93"/>
      <point x="727" y="347" type="curve" smooth="yes"/>
      <point x="727" y="601"/>
      <point x="571" y="710"/>
      <point x="383" y="710" type="curve" smooth="yes"/>
      <point x="195" y="710"/>
      <point x="39" y="601"/>
      <point x="39" y="347" type="curve" smooth="yes"/>
      <point x="39" y="93"/>
      <point x="195" y="-15"/>
      <point x="383" y="-15" type="curve" smooth="yes"/>
    </contour>
    <contour>
      <point x="256" y="79"/>
      <point x="191" y="174"/>
      <point x="191" y="347" type="curve" smooth="yes"/>
      <point x="191" y="520"/>
      <point x="256" y="616"/>
      <point x="383" y="616" type="curve" smooth="yes"/>
      <point x="510" y="616"/>
      <point x="575" y="520"/>
      <point x="575" y="347" type="curve" smooth="yes"/>
      <point x="575" y="174"/>
      <point x="510" y="79"/>
      <point x="383" y="79" type="curve" smooth="yes"/>
    </contour>
  </outline>
</glyph>
<glyph name="P" format="1">
  <advance width="665"/>
  <unicode hex="0050"/>
  <note>
	P
  </note>
  <outline>
    <contour>
      <point x="349" y="0" type="line" smooth="yes"/>
      <point x="364" y="0"/>
      <point x="368" y="7"/>
      <point x="368" y="20" type="curve" smooth="yes"/>
      <point x="368" y="40"/>
      <point x="352" y="48"/>
      <point x="316" y="65" type="curve" smooth="yes"/>
      <point x="276" y="84" type="line"/>
      <point x="276" y="263" type="line"/>
      <point x="394" y="263" type="line" smooth="yes"/>
      <point x="547" y="263"/>
      <point x="647" y="348"/>
      <point x="647" y="479" type="curve" smooth="yes"/>
      <point x="647" y="610"/>
      <point x="547" y="695"/>
      <point x="394" y="695" type="curve" smooth="yes"/>
      <point x="69" y="695" type="line" smooth="yes"/>
      <point x="57" y="695"/>
      <point x="47" y="687"/>
      <point x="47" y="666" type="curve" smooth="yes"/>
      <point x="47" y="636"/>
      <point x="67" y="625"/>
      <point x="113" y="607" type="curve" smooth="yes"/>
      <point x="126" y="602" type="line"/>
      <point x="126" y="85" type="line"/>
      <point x="117" y="85" type="line" smooth="yes"/>
      <point x="78" y="85"/>
      <point x="51" y="69"/>
      <point x="51" y="35" type="curve" smooth="yes"/>
      <point x="51" y="13"/>
      <point x="61" y="0"/>
      <point x="80" y="0" type="curve" smooth="yes"/>
    </contour>
    <contour>
      <point x="276" y="601" type="line"/>
      <point x="380" y="601" type="line" smooth="yes"/>
      <point x="451" y="601"/>
      <point x="497" y="553"/>
      <point x="497" y="479" type="curve" smooth="yes"/>
      <point x="497" y="405"/>
      <point x="451" y="357"/>
      <point x="380" y="357" type="curve" smooth="yes"/>
      <point x="276" y="357" type="line"/>
    </contour>
  </outline>
</glyph>
<glyph name="Q" format="1">
  <advance width="766"/>
  <unicode hex="0051"/>
  <note>
	Q
  </note>
  <outline>
    <contour>
      <point x="580" y="-160"/>
      <point x="605" y="-141"/>
      <point x="605" y="-102" type="curve" smooth="yes"/>
      <point x="605" y="-71"/>
      <point x="587" y="-60"/>
      <point x="545" y="-47" type="curve" smooth="yes"/>
      <point x="513" y="-37"/>
      <point x="485" y="-26"/>
      <point x="458" y="-13" type="curve" smooth="yes"/>
      <point x="452" y="-10" type="line"/>
      <point x="607" y="14"/>
      <point x="727" y="125"/>
      <point x="727" y="347" type="curve" smooth="yes"/>
      <point x="727" y="601"/>
      <point x="571" y="710"/>
      <point x="383" y="710" type="curve" smooth="yes"/>
      <point x="195" y="710"/>
      <point x="39" y="601"/>
      <point x="39" y="347" type="curve" smooth="yes"/>
      <point x="39" y="121"/>
      <point x="162" y="11"/>
      <point x="322" y="-11" type="curve"/>
      <point x="343" y="-36"/>
      <point x="366" y="-62"/>
      <point x="391" y="-85" type="curve" smooth="yes"/>
      <point x="436" y="-127"/>
      <point x="486" y="-160"/>
      <point x="539" y="-160" type="curve" smooth="yes"/>
    </contour>
    <contour>
      <point x="256" y="79"/>
      <point x="191" y="174"/>
      <point x="191" y="347" type="curve" smooth="yes"/>
      <point x="191" y="520"/>
      <point x="256" y="616"/>
      <point x="383" y="616" type="curve" smooth="yes"/>
      <point x="510" y="616"/>
      <point x="575" y="520"/>
      <point x="575" y="347" type="curve" smooth="yes"/>
      <point x="575" y="174"/>
      <point x="510" y="79"/>
      <point x="383" y="79" type="curve" smooth="yes"/>
    </contour>
  </outline>
</glyph>
<glyph name="T" format="1">
  <advance width="652"/>
  <unicode hex="0054"/>
  <note>
	T
  </note>
  <outline>
    <contour>
      <point x="464" y="0" type="line" smooth="yes"/>
      <point x="479" y="0"/>
      <point x="483" y="7"/>
      <point x="483" y="20" type="curve" smooth="yes"/>
      <point x="483" y="40"/>
      <point x="470" y="50"/>
      <point x="439" y="65" type="curve" smooth="yes"/>
      <point x="401" y="84" type="line"/>
      <point x="401" y="601" type="line"/>
      <point x="542" y="601" type="line"/>
      <point x="556" y="554" type="line" smooth="yes"/>
      <point x="567" y="517"/>
      <point x="577" y="494"/>
      <point x="602" y="494" type="curve" smooth="yes"/>
      <point x="616" y="494"/>
      <point x="630" y="501"/>
      <point x="630" y="520" type="curve" smooth="yes"/>
      <point x="630" y="695" type="line"/>
      <point x="22" y="695" type="line"/>
      <point x="22" y="520" type="line" smooth="yes"/>
      <point x="22" y="501"/>
      <point x="36" y="494"/>
      <point x="50" y="494" type="curve" smooth="yes"/>
      <point x="75" y="494"/>
      <point x="85" y="517"/>
      <point x="96" y="554" type="curve" smooth="yes"/>
      <point x="110" y="601" type="line"/>
      <point x="251" y="601" type="line"/>
      <point x="251" y="85" type="line"/>
      <point x="242" y="85" type="line" smooth="yes"/>
      <point x="203" y="85"/>
      <point x="176" y="69"/>
      <point x="176" y="35" type="curve" smooth="yes"/>
      <point x="176" y="13"/>
      <point x="186" y="0"/>
      <point x="205" y="0" type="curve" smooth="yes"/>
    </contour>
  </outline>
</glyph>
<glyph name="V" format="1">
  <advance width="795"/>
  <unicode hex="0056"/>
  <note>
	V
  </note>
  <outline>
    <contour>
      <point x="477" y="0" type="line"/>
      <point x="707" y="610" type="line"/>
      <point x="757" y="633" type="line" smooth="yes"/>
      <point x="780" y="644"/>
      <point x="795" y="657"/>
      <point x="795" y="675" type="curve" smooth="yes"/>
      <point x="795" y="687"/>
      <point x="790" y="695"/>
      <point x="776" y="695" type="curve" smooth="yes"/>
      <point x="571" y="695" type="line" smooth="yes"/>
      <point x="532" y="695"/>
      <point x="505" y="679"/>
      <point x="505" y="645" type="curve" smooth="yes"/>
      <point x="505" y="623"/>
      <point x="515" y="610"/>
      <point x="534" y="610" type="curve" smooth="yes"/>
      <point x="593" y="610" type="line"/>
      <point x="424" y="150" type="line" smooth="yes"/>
      <point x="413" y="121"/>
      <point x="410" y="89"/>
      <point x="410" y="89" type="curve" smooth="yes"/>
      <point x="406" y="89" type="line" smooth="yes"/>
      <point x="406" y="89"/>
      <point x="403" y="121"/>
      <point x="393" y="150" type="curve" smooth="yes"/>
      <point x="236" y="611" type="line"/>
      <point x="280" y="627" type="line" smooth="yes"/>
      <point x="313" y="639"/>
      <point x="333" y="651"/>
      <point x="333" y="675" type="curve" smooth="yes"/>
      <point x="333" y="688"/>
      <point x="327" y="695"/>
      <point x="314" y="695" type="curve" smooth="yes"/>
      <point x="66" y="695" type="line" smooth="yes"/>
      <point x="27" y="695"/>
      <point x="0" y="679"/>
      <point x="0" y="645" type="curve" smooth="yes"/>
      <point x="0" y="623"/>
      <point x="10" y="610"/>
      <point x="29" y="610" type="curve" smooth="yes"/>
      <point x="77" y="610" type="line"/>
      <point x="302" y="0" type="line"/>
    </contour>
  </outline>
</glyph>
<glyph name="X" format="1">
  <advance width="755"/>
  <unicode hex="0058"/>
  <note>
	X
  </note>
  <outline>
    <contour>
      <point x="281" y="0" type="line" smooth="yes"/>
      <point x="295" y="0"/>
      <point x="300" y="8"/>
      <point x="300" y="20" type="curve" smooth="yes"/>
      <point x="300" y="38"/>
      <point x="285" y="51"/>
      <point x="262" y="62" type="curve" smooth="yes"/>
      <point x="212" y="85" type="line"/>
      <point x="348" y="280" type="line"/>
      <point x="482" y="85" type="line"/>
      <point x="453" y="85" type="line" smooth="yes"/>
      <point x="414" y="85"/>
      <point x="387" y="69"/>
      <point x="387" y="35" type="curve" smooth="yes"/>
      <point x="387" y="13"/>
      <point x="397" y="0"/>
      <point x="416" y="0" type="curve" smooth="yes"/>
      <point x="732" y="0" type="line" smooth="yes"/>
      <point x="745" y="0"/>
      <point x="751" y="7"/>
      <point x="751" y="20" type="curve" smooth="yes"/>
      <point x="751" y="44"/>
      <point x="731" y="56"/>
      <point x="698" y="68" type="curve" smooth="yes"/>
      <point x="670" y="78" type="line"/>
      <point x="468" y="372" type="line"/>
      <point x="637" y="610" type="line"/>
      <point x="687" y="633" type="line" smooth="yes"/>
      <point x="710" y="644"/>
      <point x="725" y="657"/>
      <point x="725" y="675" type="curve" smooth="yes"/>
      <point x="725" y="687"/>
      <point x="720" y="695"/>
      <point x="706" y="695" type="curve" smooth="yes"/>
      <point x="513" y="695" type="line" smooth="yes"/>
      <point x="474" y="695"/>
      <point x="447" y="679"/>
      <point x="447" y="645" type="curve" smooth="yes"/>
      <point x="447" y="623"/>
      <point x="457" y="610"/>
      <point x="476" y="610" type="curve" smooth="yes"/>
      <point x="521" y="610" type="line"/>
      <point x="401" y="441" type="line"/>
      <point x="282" y="617" type="line"/>
      <point x="310" y="627" type="line" smooth="yes"/>
      <point x="343" y="639"/>
      <point x="363" y="651"/>
      <point x="363" y="675" type="curve" smooth="yes"/>
      <point x="363" y="688"/>
      <point x="357" y="695"/>
      <point x="344" y="695" type="curve" smooth="yes"/>
      <point x="95" y="695" type="line" smooth="yes"/>
      <point x="56" y="695"/>
      <point x="29" y="679"/>
      <point x="29" y="645" type="curve" smooth="yes"/>
      <point x="29" y="623"/>
      <point x="39" y="610"/>
      <point x="58" y="610" type="curve" smooth="yes"/>
      <point x="106" y="610" type="line"/>
      <point x="281" y="350" type="line"/>
      <point x="98" y="85" type="line"/>
      <point x="70" y="85" type="line" smooth="yes"/>
      <point x="31" y="85"/>
      <point x="4" y="69"/>
      <point x="4" y="35" type="curve" smooth="yes"/>
      <point x="4" y="13"/>
      <point x="14" y="0"/>
      <point x="33" y="0" type="curve" smooth="yes"/>
    </contour>
  </outline>
</glyph>
<glyph name="bracketleft" format="1">
  <advance width="336"/>
  <unicode hex="005B"/>
  <note>
	bracketleft
  </note>
  <outline>
    <contour>
      <point x="299" y="-155" type="line"/>
      <point x="299" y="-61" type="line"/>
      <point x="190" y="-61" type="line"/>
      <point x="190" y="691" type="line"/>
      <point x="299" y="691" type="line"/>
      <point x="299" y="785" type="line"/>
      <point x="50" y="785" type="line"/>
      <point x="50" y="-155" type="line"/>
    </contour>
  </outline>
</glyph>
<glyph name="backslash" format="1">
  <advance width="402"/>
  <unicode hex="005C"/>
  <note>
	backslash
  </note>
  <outline>
    <contour>
      <point x="439" y="-84" type="line"/>
      <point x="93" y="766" type="line"/>
      <point x="-38" y="716" type="line"/>
      <point x="308" y="-134" type="line"/>
    </contour>
  </outline>
</glyph>
<glyph name="bracketright" format="1">
  <advance width="336"/>
  <unicode hex="005D"/>
  <note>
	bracketright
  </note>
  <outline>
    <contour>
      <point x="286" y="-155" type="line"/>
      <point x="286" y="785" type="line"/>
      <point x="37" y="785" type="line"/>
      <point x="37" y="691" type="line"/>
      <point x="146" y="691" type="line"/>
      <point x="146" y="-61" type="line"/>
      <point x="37" y="-61" type="line"/>
      <point x="37" y="-155" type="line"/>
    </contour>
  </outline>
</glyph>
<glyph name="asciicircum" format="1">
  <advance width="592"/>
  <unicode hex="005E"/>
  <note>
	asciicircum
  </note>
  <outline>
    <contour>
      <point x="296" y="517" type="line"/>
      <point x="431" y="294" type="line"/>
      <point x="539" y="355" type="line"/>
      <point x="337" y="680" type="line"/>
      <point x="254" y="680" type="line"/>
      <point x="52" y="355" type="line"/>
      <point x="160" y="294" type="line"/>
    </contour>
  </outline>
</glyph>
<glyph name="underscore" format="1">
  <advance width="479"/>
  <unicode hex="005F"/>
  <note>
	underscore
  </note>
  <outline>
    <contour>
      <point x="498" y="-215" type="line"/>
      <point x="498" y="-100" type="line"/>
      <point x="-19" y="-100" type="line"/>
      <point x="-19" y="-215" type="line"/>
    </contour>
  </outline>
</glyph>
<glyph name="grave" format="1">
  <advance width="340"/>
  <unicode hex="0060"/>
  <note>
	grave
  </note>
  <outline>
    <contour>
      <point x="278" y="592" type="line"/>
      <point x="167" y="780" type="line"/>
      <point x="62" y="711" type="line"/>
      <point x="198" y="539" type="line"/>
    </contour>
  </outline>
</glyph>
<glyph name="b" format="1">
  <advance width="622"/>
  <unicode hex="0062"/>
  <note>
	b
  </note>
  <outline>
    <contour>
      <point x="464" y="-15"/>
      <point x="592" y="64"/>
      <point x="592" y="240" type="curve" smooth="yes"/>
      <point x="592" y="427"/>
      <point x="483" y="502"/>
      <point x="366" y="502" type="curve" smooth="yes"/>
      <point x="310" y="502"/>
      <point x="259" y="480"/>
      <point x="221" y="448" type="curve"/>
      <point x="218" y="450" type="line"/>
      <point x="218" y="710" type="line"/>
      <point x="72" y="710" type="line" smooth="yes"/>
      <point x="35" y="710"/>
      <point x="10" y="695"/>
      <point x="10" y="663" type="curve" smooth="yes"/>
      <point x="10" y="642"/>
      <point x="19" y="630"/>
      <point x="37" y="630" type="curve" smooth="yes"/>
      <point x="81" y="630" type="line"/>
      <point x="81" y="45" type="line"/>
      <point x="150" y="7"/>
      <point x="237" y="-15"/>
      <point x="319" y="-15" type="curve" smooth="yes"/>
    </contour>
    <contour>
      <point x="287" y="70"/>
      <point x="251" y="76"/>
      <point x="220" y="92" type="curve"/>
      <point x="220" y="321" type="line" smooth="yes"/>
      <point x="220" y="383"/>
      <point x="274" y="417"/>
      <point x="326" y="417" type="curve" smooth="yes"/>
      <point x="405" y="417"/>
      <point x="452" y="363"/>
      <point x="452" y="239" type="curve" smooth="yes"/>
      <point x="452" y="115"/>
      <point x="396" y="70"/>
      <point x="315" y="70" type="curve" smooth="yes"/>
    </contour>
  </outline>
</glyph>
<glyph name="d" format="1">
  <advance width="634"/>
  <unicode hex="0064"/>
  <note>
	d
  </note>
  <outline>
    <contour>
      <point x="325" y="-15"/>
      <point x="373" y="11"/>
      <point x="402" y="46" type="curve"/>
      <point x="406" y="46" type="line"/>
      <point x="406" y="0" type="line"/>
      <point x="599" y="0" type="line" smooth="yes"/>
      <point x="613" y="0"/>
      <point x="617" y="7"/>
      <point x="617" y="19" type="curve" smooth="yes"/>
      <point x="617" y="38"/>
      <point x="604" y="47"/>
      <point x="576" y="61" type="curve" smooth="yes"/>
      <point x="540" y="79" type="line"/>
      <point x="540" y="710" type="line"/>
      <point x="394" y="710" type="line" smooth="yes"/>
      <point x="357" y="710"/>
      <point x="332" y="695"/>
      <point x="332" y="663" type="curve" smooth="yes"/>
      <point x="332" y="642"/>
      <point x="341" y="630"/>
      <point x="359" y="630" type="curve" smooth="yes"/>
      <point x="403" y="630" type="line"/>
      <point x="403" y="475" type="line"/>
      <point x="362" y="495"/>
      <point x="321" y="502"/>
      <point x="281" y="502" type="curve" smooth="yes"/>
      <point x="142" y="502"/>
      <point x="28" y="405"/>
      <point x="28" y="240" type="curve" smooth="yes"/>
      <point x="28" y="62"/>
      <point x="141" y="-15"/>
      <point x="262" y="-15" type="curve" smooth="yes"/>
    </contour>
    <contour>
      <point x="224" y="70"/>
      <point x="168" y="120"/>
      <point x="168" y="241" type="curve" smooth="yes"/>
      <point x="168" y="356"/>
      <point x="229" y="417"/>
      <point x="306" y="417" type="curve" smooth="yes"/>
      <point x="340" y="417"/>
      <point x="378" y="405"/>
      <point x="401" y="389" type="curve"/>
      <point x="401" y="171" type="line" smooth="yes"/>
      <point x="401" y="107"/>
      <point x="357" y="70"/>
      <point x="295" y="70" type="curve" smooth="yes"/>
    </contour>
  </outline>
</glyph>
<glyph name="e" format="1">
  <advance width="542"/>
  <unicode hex="0065"/>
  <note>
	e
  </note>
  <outline>
    <contour>
      <point x="350" y="-15"/>
      <point x="403" y="-4"/>
      <point x="449" y="23" type="curve" smooth="yes"/>
      <point x="477" y="40"/>
      <point x="491" y="55"/>
      <point x="491" y="78" type="curve" smooth="yes"/>
      <point x="491" y="103"/>
      <point x="474" y="118"/>
      <point x="455" y="118" type="curve" smooth="yes"/>
      <point x="446" y="118"/>
      <point x="440" y="114"/>
      <point x="422" y="104" type="curve" smooth="yes"/>
      <point x="378" y="79"/>
      <point x="350" y="70"/>
      <point x="304" y="70" type="curve" smooth="yes"/>
      <point x="241" y="70"/>
      <point x="171" y="107"/>
      <point x="171" y="203" type="curve"/>
      <point x="494" y="203" type="line"/>
      <point x="506" y="226"/>
      <point x="515" y="261"/>
      <point x="515" y="289" type="curve" smooth="yes"/>
      <point x="515" y="420"/>
      <point x="416" y="502"/>
      <point x="283" y="502" type="curve" smooth="yes"/>
      <point x="143" y="502"/>
      <point x="30" y="413"/>
      <point x="30" y="239" type="curve" smooth="yes"/>
      <point x="30" y="68"/>
      <point x="152" y="-15"/>
      <point x="297" y="-15" type="curve" smooth="yes"/>
    </contour>
    <contour>
      <point x="176" y="371"/>
      <point x="225" y="417"/>
      <point x="281" y="417" type="curve" smooth="yes"/>
      <point x="340" y="417"/>
      <point x="375" y="379"/>
      <point x="375" y="319" type="curve" smooth="yes"/>
      <point x="375" y="309"/>
      <point x="373" y="297"/>
      <point x="369" y="288" type="curve"/>
      <point x="171" y="288" type="line"/>
    </contour>
  </outline>
</glyph>
<glyph name="f" format="1">
  <advance width="500"/>
  <unicode hex="0066"/>
  <note>
	f
  </note>
  <outline>
    <contour>
      <point x="314" y="0" type="line" smooth="yes"/>
      <point x="328" y="0"/>
      <point x="332" y="7"/>
      <point x="332" y="19" type="curve" smooth="yes"/>
      <point x="332" y="38"/>
      <point x="319" y="47"/>
      <point x="291" y="61" type="curve" smooth="yes"/>
      <point x="255" y="79" type="line"/>
      <point x="255" y="402" type="line"/>
      <point x="340" y="412" type="line" smooth="yes"/>
      <point x="391" y="418"/>
      <point x="411" y="436"/>
      <point x="411" y="465" type="curve" smooth="yes"/>
      <point x="411" y="479"/>
      <point x="405" y="487"/>
      <point x="391" y="487" type="curve" smooth="yes"/>
      <point x="255" y="487" type="line"/>
      <point x="255" y="541" type="line" smooth="yes"/>
      <point x="255" y="608"/>
      <point x="297" y="637"/>
      <point x="345" y="637" type="curve" smooth="yes"/>
      <point x="370" y="637"/>
      <point x="396" y="630"/>
      <point x="420" y="616" type="curve"/>
      <point x="432" y="575" type="line" smooth="yes"/>
      <point x="440" y="547"/>
      <point x="452" y="531"/>
      <point x="477" y="531" type="curve" smooth="yes"/>
      <point x="495" y="531"/>
      <point x="503" y="541"/>
      <point x="503" y="553" type="curve" smooth="yes"/>
      <point x="503" y="659" type="line"/>
      <point x="459" y="694"/>
      <point x="392" y="722"/>
      <point x="310" y="722" type="curve" smooth="yes"/>
      <point x="206" y="722"/>
      <point x="115" y="667"/>
      <point x="115" y="535" type="curve" smooth="yes"/>
      <point x="115" y="487" type="line"/>
      <point x="96" y="487" type="line" smooth="yes"/>
      <point x="59" y="487"/>
      <point x="34" y="469"/>
      <point x="34" y="437" type="curve" smooth="yes"/>
      <point x="34" y="416"/>
      <point x="45" y="402"/>
      <point x="63" y="402" type="curve" smooth="yes"/>
      <point x="115" y="402" type="line"/>
      <point x="115" y="80" type="line"/>
      <point x="106" y="80" type="line" smooth="yes"/>
      <point x="69" y="80"/>
      <point x="44" y="65"/>
      <point x="44" y="33" type="curve" smooth="yes"/>
      <point x="44" y="12"/>
      <point x="53" y="0"/>
      <point x="71" y="0" type="curve" smooth="yes"/>
    </contour>
  </outline>
</glyph>
<glyph name="i" format="1">
  <advance width="329"/>
  <unicode hex="0069"/>
  <note>
	i
  </note>
  <outline>
    <contour>
      <point x="302" y="0" type="line" smooth="yes"/>
      <point x="316" y="0"/>
      <point x="320" y="7"/>
      <point x="320" y="19" type="curve" smooth="yes"/>
      <point x="320" y="38"/>
      <point x="308" y="47"/>
      <point x="279" y="61" type="curve" smooth="yes"/>
      <point x="243" y="79" type="line"/>
      <point x="243" y="492" type="line"/>
      <point x="94" y="492" type="line" smooth="yes"/>
      <point x="57" y="492"/>
      <point x="32" y="477"/>
      <point x="32" y="445" type="curve" smooth="yes"/>
      <point x="32" y="424"/>
      <point x="41" y="412"/>
      <point x="59" y="412" type="curve" smooth="yes"/>
      <point x="103" y="412" type="line"/>
      <point x="103" y="80" type="line"/>
      <point x="94" y="80" type="line" smooth="yes"/>
      <point x="57" y="80"/>
      <point x="32" y="65"/>
      <point x="32" y="33" type="curve" smooth="yes"/>
      <point x="32" y="12"/>
      <point x="41" y="0"/>
      <point x="59" y="0" type="curve" smooth="yes"/>
    </contour>
    <contour>
      <point x="220" y="557"/>
      <point x="260" y="591"/>
      <point x="260" y="647" type="curve" smooth="yes"/>
      <point x="260" y="703"/>
      <point x="220" y="737"/>
      <point x="170" y="737" type="curve" smooth="yes"/>
      <point x="120" y="737"/>
      <point x="80" y="703"/>
      <point x="80" y="647" type="curve" smooth="yes"/>
      <point x="80" y="591"/>
      <point x="120" y="557"/>
      <point x="170" y="557" type="curve" smooth="yes"/>
    </contour>
  </outline>
</glyph>
<glyph name="j" format="1">
  <advance width="373"/>
  <unicode hex="006A"/>
  <note>
	j
  </note>
  <outline>
    <contour>
      <point x="114" y="-240"/>
      <point x="140" y="-232"/>
      <point x="173" y="-213" type="curve" smooth="yes"/>
      <point x="225" y="-183"/>
      <point x="305" y="-109"/>
      <point x="305" y="42" type="curve" smooth="yes"/>
      <point x="305" y="492" type="line"/>
      <point x="156" y="492" type="line" smooth="yes"/>
      <point x="119" y="492"/>
      <point x="94" y="477"/>
      <point x="94" y="445" type="curve" smooth="yes"/>
      <point x="94" y="424"/>
      <point x="103" y="412"/>
      <point x="121" y="412" type="curve" smooth="yes"/>
      <point x="165" y="412" type="line"/>
      <point x="165" y="52" type="line" smooth="yes"/>
      <point x="165" y="-61"/>
      <point x="109" y="-101"/>
      <point x="-1" y="-141" type="curve"/>
      <point x="3" y="-213"/>
      <point x="38" y="-240"/>
      <point x="83" y="-240" type="curve" smooth="yes"/>
    </contour>
    <contour>
      <point x="286" y="557"/>
      <point x="326" y="591"/>
      <point x="326" y="647" type="curve" smooth="yes"/>
      <point x="326" y="703"/>
      <point x="286" y="737"/>
      <point x="236" y="737" type="curve" smooth="yes"/>
      <point x="186" y="737"/>
      <point x="146" y="703"/>
      <point x="146" y="647" type="curve" smooth="yes"/>
      <point x="146" y="591"/>
      <point x="186" y="557"/>
      <point x="236" y="557" type="curve" smooth="yes"/>
    </contour>
  </outline>
</glyph>
<glyph name="k" format="1">
  <advance width="665"/>
  <unicode hex="006B"/>
  <note>
	k
  </note>
  <outline>
    <contour>
      <point x="308" y="0" type="line" smooth="yes"/>
      <point x="322" y="0"/>
      <point x="326" y="7"/>
      <point x="326" y="19" type="curve" smooth="yes"/>
      <point x="326" y="37"/>
      <point x="314" y="45"/>
      <point x="285" y="61" type="curve" smooth="yes"/>
      <point x="251" y="79" type="line"/>
      <point x="251" y="710" type="line"/>
      <point x="102" y="710" type="line" smooth="yes"/>
      <point x="65" y="710"/>
      <point x="40" y="695"/>
      <point x="40" y="663" type="curve" smooth="yes"/>
      <point x="40" y="642"/>
      <point x="49" y="630"/>
      <point x="67" y="630" type="curve" smooth="yes"/>
      <point x="111" y="630" type="line"/>
      <point x="111" y="80" type="line"/>
      <point x="102" y="80" type="line" smooth="yes"/>
      <point x="65" y="80"/>
      <point x="40" y="65"/>
      <point x="40" y="33" type="curve" smooth="yes"/>
      <point x="40" y="12"/>
      <point x="49" y="0"/>
      <point x="67" y="0" type="curve" smooth="yes"/>
    </contour>
    <contour>
      <point x="631" y="0" type="line" smooth="yes"/>
      <point x="646" y="0"/>
      <point x="650" y="8"/>
      <point x="650" y="21" type="curve" smooth="yes"/>
      <point x="650" y="41"/>
      <point x="635" y="53"/>
      <point x="603" y="64" type="curve" smooth="yes"/>
      <point x="555" y="81" type="line"/>
      <point x="398" y="275" type="line"/>
      <point x="538" y="408" type="line"/>
      <point x="570" y="419" type="line" smooth="yes"/>
      <point x="603" y="430"/>
      <point x="618" y="444"/>
      <point x="618" y="464" type="curve" smooth="yes"/>
      <point x="618" y="484"/>
      <point x="610" y="492"/>
      <point x="595" y="492" type="curve" smooth="yes"/>
      <point x="397" y="492" type="line" smooth="yes"/>
      <point x="358" y="492"/>
      <point x="331" y="476"/>
      <point x="331" y="442" type="curve" smooth="yes"/>
      <point x="331" y="420"/>
      <point x="341" y="407"/>
      <point x="360" y="407" type="curve" smooth="yes"/>
      <point x="420" y="407" type="line"/>
      <point x="251" y="252" type="line"/>
      <point x="441" y="0" type="line"/>
    </contour>
  </outline>
</glyph>
<glyph name="l" format="1">
  <advance width="347"/>
  <unicode hex="006C"/>
  <note>
	l
  </note>
  <outline>
    <contour>
      <point x="312" y="0" type="line" smooth="yes"/>
      <point x="326" y="0"/>
      <point x="330" y="7"/>
      <point x="330" y="19" type="curve" smooth="yes"/>
      <point x="330" y="38"/>
      <point x="318" y="47"/>
      <point x="289" y="61" type="curve" smooth="yes"/>
      <point x="253" y="79" type="line"/>
      <point x="253" y="710" type="line"/>
      <point x="104" y="710" type="line" smooth="yes"/>
      <point x="67" y="710"/>
      <point x="42" y="695"/>
      <point x="42" y="663" type="curve" smooth="yes"/>
      <point x="42" y="642"/>
      <point x="51" y="630"/>
      <point x="69" y="630" type="curve" smooth="yes"/>
      <point x="113" y="630" type="line"/>
      <point x="113" y="80" type="line"/>
      <point x="104" y="80" type="line" smooth="yes"/>
      <point x="67" y="80"/>
      <point x="42" y="65"/>
      <point x="42" y="33" type="curve" smooth="yes"/>
      <point x="42" y="12"/>
      <point x="51" y="0"/>
      <point x="69" y="0" type="curve" smooth="yes"/>
    </contour>
  </outline>
</glyph>
<glyph name="p" format="1">
  <advance width="654"/>
  <unicode hex="0070"/>
  <note>
	p
  </note>
  <outline>
    <contour>
      <point x="309" y="-213" type="line" smooth="yes"/>
      <point x="323" y="-213"/>
      <point x="327" y="-206"/>
      <point x="327" y="-194" type="curve" smooth="yes"/>
      <point x="327" y="-175"/>
      <point x="315" y="-166"/>
      <point x="286" y="-152" type="curve" smooth="yes"/>
      <point x="250" y="-134" type="line"/>
      <point x="250" y="9" type="line"/>
      <point x="284" y="-5"/>
      <point x="332" y="-15"/>
      <point x="367" y="-15" type="curve" smooth="yes"/>
      <point x="519" y="-15"/>
      <point x="624" y="74"/>
      <point x="624" y="240" type="curve" smooth="yes"/>
      <point x="624" y="427"/>
      <point x="508" y="502"/>
      <point x="391" y="502" type="curve" smooth="yes"/>
      <point x="335" y="502"/>
      <point x="289" y="480"/>
      <point x="251" y="448" type="curve"/>
      <point x="248" y="450" type="line"/>
      <point x="248" y="492" type="line"/>
      <point x="102" y="492" type="line" smooth="yes"/>
      <point x="65" y="492"/>
      <point x="40" y="477"/>
      <point x="40" y="445" type="curve" smooth="yes"/>
      <point x="40" y="424"/>
      <point x="49" y="412"/>
      <point x="67" y="412" type="curve" smooth="yes"/>
      <point x="111" y="412" type="line"/>
      <point x="111" y="-133" type="line"/>
      <point x="102" y="-133" type="line" smooth="yes"/>
      <point x="65" y="-133"/>
      <point x="40" y="-148"/>
      <point x="40" y="-180" type="curve" smooth="yes"/>
      <point x="40" y="-201"/>
      <point x="49" y="-213"/>
      <point x="67" y="-213" type="curve" smooth="yes"/>
    </contour>
    <contour>
      <point x="317" y="70"/>
      <point x="278" y="77"/>
      <point x="250" y="92" type="curve"/>
      <point x="250" y="321" type="line" smooth="yes"/>
      <point x="250" y="383"/>
      <point x="304" y="417"/>
      <point x="356" y="417" type="curve" smooth="yes"/>
      <point x="435" y="417"/>
      <point x="484" y="363"/>
      <point x="484" y="239" type="curve" smooth="yes"/>
      <point x="484" y="115"/>
      <point x="426" y="70"/>
      <point x="345" y="70" type="curve" smooth="yes"/>
    </contour>
  </outline>
</glyph>
<glyph name="q" format="1">
  <advance width="627"/>
  <unicode hex="0071"/>
  <note>
	q
  </note>
  <outline>
    <contour>
      <point x="599" y="-213" type="line" smooth="yes"/>
      <point x="613" y="-213"/>
      <point x="617" y="-206"/>
      <point x="617" y="-194" type="curve" smooth="yes"/>
      <point x="617" y="-175"/>
      <point x="605" y="-166"/>
      <point x="576" y="-152" type="curve" smooth="yes"/>
      <point x="540" y="-134" type="line"/>
      <point x="540" y="492" type="line"/>
      <point x="438" y="492" type="line" smooth="yes"/>
      <point x="423" y="492"/>
      <point x="409" y="485"/>
      <point x="403" y="473" type="curve"/>
      <point x="362" y="493"/>
      <point x="321" y="502"/>
      <point x="281" y="502" type="curve" smooth="yes"/>
      <point x="142" y="502"/>
      <point x="28" y="405"/>
      <point x="28" y="240" type="curve" smooth="yes"/>
      <point x="28" y="62"/>
      <point x="141" y="-15"/>
      <point x="262" y="-15" type="curve" smooth="yes"/>
      <point x="325" y="-15"/>
      <point x="373" y="8"/>
      <point x="402" y="43" type="curve"/>
      <point x="406" y="43" type="line"/>
      <point x="406" y="-133" type="line"/>
      <point x="384" y="-133" type="line" smooth="yes"/>
      <point x="347" y="-133"/>
      <point x="322" y="-148"/>
      <point x="322" y="-180" type="curve" smooth="yes"/>
      <point x="322" y="-201"/>
      <point x="331" y="-213"/>
      <point x="349" y="-213" type="curve" smooth="yes"/>
    </contour>
    <contour>
      <point x="224" y="70"/>
      <point x="168" y="120"/>
      <point x="168" y="241" type="curve" smooth="yes"/>
      <point x="168" y="356"/>
      <point x="229" y="417"/>
      <point x="306" y="417" type="curve" smooth="yes"/>
      <point x="340" y="417"/>
      <point x="378" y="405"/>
      <point x="401" y="389" type="curve"/>
      <point x="401" y="171" type="line" smooth="yes"/>
      <point x="401" y="107"/>
      <point x="357" y="70"/>
      <point x="295" y="70" type="curve" smooth="yes"/>
    </contour>
  </outline>
</glyph>
<glyph name="s" format="1">
  <advance width="465"/>
  <unicode hex="0073"/>
  <note>
	s
  </note>
  <outline>
    <contour>
      <point x="329" y="-15"/>
      <point x="433" y="19"/>
      <point x="433" y="121" type="curve" smooth="yes"/>
      <point x="433" y="198"/>
      <point x="387" y="232"/>
      <point x="302" y="277" type="curve" smooth="yes"/>
      <point x="201" y="330"/>
      <point x="172" y="337"/>
      <point x="172" y="371" type="curve" smooth="yes"/>
      <point x="172" y="403"/>
      <point x="204" y="417"/>
      <point x="245" y="417" type="curve" smooth="yes"/>
      <point x="281" y="417"/>
      <point x="309" y="408"/>
      <point x="329" y="396" type="curve"/>
      <point x="341" y="352" type="line" smooth="yes"/>
      <point x="348" y="324"/>
      <point x="361" y="308"/>
      <point x="386" y="308" type="curve" smooth="yes"/>
      <point x="404" y="308"/>
      <point x="412" y="318"/>
      <point x="412" y="330" type="curve" smooth="yes"/>
      <point x="412" y="441" type="line"/>
      <point x="378" y="469"/>
      <point x="308" y="502"/>
      <point x="225" y="502" type="curve" smooth="yes"/>
      <point x="117" y="502"/>
      <point x="32" y="448"/>
      <point x="32" y="361" type="curve" smooth="yes"/>
      <point x="32" y="289"/>
      <point x="71" y="252"/>
      <point x="171" y="202" type="curve" smooth="yes"/>
      <point x="261" y="157"/>
      <point x="293" y="147"/>
      <point x="293" y="113" type="curve" smooth="yes"/>
      <point x="293" y="83"/>
      <point x="263" y="70"/>
      <point x="212" y="70" type="curve" smooth="yes"/>
      <point x="172" y="70"/>
      <point x="133" y="80"/>
      <point x="114" y="94" type="curve"/>
      <point x="103" y="135" type="line" smooth="yes"/>
      <point x="96" y="163"/>
      <point x="83" y="180"/>
      <point x="58" y="180" type="curve" smooth="yes"/>
      <point x="40" y="180"/>
      <point x="32" y="168"/>
      <point x="32" y="156" type="curve" smooth="yes"/>
      <point x="32" y="39" type="line"/>
      <point x="69" y="12"/>
      <point x="149" y="-15"/>
      <point x="226" y="-15" type="curve" smooth="yes"/>
    </contour>
  </outline>
</glyph>
<glyph name="t" format="1">
  <advance width="456"/>
  <unicode hex="0074"/>
  <note>
	t
  </note>
  <outline>
    <contour>
      <point x="328" y="-15"/>
      <point x="363" y="-5"/>
      <point x="395" y="15" type="curve" smooth="yes"/>
      <point x="425" y="34"/>
      <point x="439" y="54"/>
      <point x="439" y="72" type="curve" smooth="yes"/>
      <point x="439" y="95"/>
      <point x="423" y="108"/>
      <point x="404" y="108" type="curve" smooth="yes"/>
      <point x="392" y="108"/>
      <point x="383" y="98"/>
      <point x="373" y="91" type="curve" smooth="yes"/>
      <point x="354" y="77"/>
      <point x="338" y="70"/>
      <point x="317" y="70" type="curve" smooth="yes"/>
      <point x="285" y="70"/>
      <point x="263" y="87"/>
      <point x="263" y="125" type="curve" smooth="yes"/>
      <point x="263" y="402" type="line"/>
      <point x="375" y="424" type="line" smooth="yes"/>
      <point x="415" y="432"/>
      <point x="436" y="443"/>
      <point x="436" y="470" type="curve" smooth="yes"/>
      <point x="436" y="482"/>
      <point x="427" y="487"/>
      <point x="418" y="487" type="curve" smooth="yes"/>
      <point x="263" y="487" type="line"/>
      <point x="263" y="602" type="line"/>
      <point x="146" y="602" type="line"/>
      <point x="125" y="487" type="line"/>
      <point x="87" y="487" type="line" smooth="yes"/>
      <point x="50" y="487"/>
      <point x="25" y="469"/>
      <point x="25" y="437" type="curve" smooth="yes"/>
      <point x="25" y="416"/>
      <point x="36" y="402"/>
      <point x="54" y="402" type="curve" smooth="yes"/>
      <point x="123" y="402" type="line"/>
      <point x="123" y="134" type="line" smooth="yes"/>
      <point x="123" y="38"/>
      <point x="197" y="-15"/>
      <point x="284" y="-15" type="curve" smooth="yes"/>
    </contour>
  </outline>
</glyph>
<glyph name="v" format="1">
  <advance width="615"/>
  <unicode hex="0076"/>
  <note>
	v
  </note>
  <outline>
    <contour>
      <point x="389" y="0" type="line"/>
      <point x="543" y="411" type="line"/>
      <point x="580" y="431" type="line" smooth="yes"/>
      <point x="602" y="443"/>
      <point x="621" y="455"/>
      <point x="621" y="473" type="curve" smooth="yes"/>
      <point x="621" y="485"/>
      <point x="617" y="492"/>
      <point x="603" y="492" type="curve" smooth="yes"/>
      <point x="426" y="492" type="line" smooth="yes"/>
      <point x="389" y="492"/>
      <point x="364" y="477"/>
      <point x="364" y="445" type="curve" smooth="yes"/>
      <point x="364" y="424"/>
      <point x="373" y="412"/>
      <point x="391" y="412" type="curve" smooth="yes"/>
      <point x="441" y="412" type="line"/>
      <point x="332" y="116" type="line" smooth="yes"/>
      <point x="325" y="96"/>
      <point x="319" y="63"/>
      <point x="319" y="63" type="curve" smooth="yes"/>
      <point x="315" y="63" type="line" smooth="yes"/>
      <point x="315" y="63"/>
      <point x="309" y="96"/>
      <point x="302" y="116" type="curve" smooth="yes"/>
      <point x="202" y="411" type="line"/>
      <point x="241" y="431" type="line" smooth="yes"/>
      <point x="265" y="443"/>
      <point x="282" y="454"/>
      <point x="282" y="473" type="curve" smooth="yes"/>
      <point x="282" y="485"/>
      <point x="278" y="492"/>
      <point x="264" y="492" type="curve" smooth="yes"/>
      <point x="56" y="492" type="line" smooth="yes"/>
      <point x="19" y="492"/>
      <point x="-6" y="477"/>
      <point x="-6" y="445" type="curve" smooth="yes"/>
      <point x="-6" y="424"/>
      <point x="3" y="412"/>
      <point x="21" y="412" type="curve" smooth="yes"/>
      <point x="57" y="412" type="line"/>
      <point x="209" y="0" type="line"/>
    </contour>
  </outline>
</glyph>
<glyph name="w" format="1">
  <advance width="938"/>
  <unicode hex="0077"/>
  <note>
	w
  </note>
  <outline>
    <contour>
      <point x="364" y="0" type="line"/>
      <point x="448" y="331" type="line" smooth="yes"/>
      <point x="457" y="365"/>
      <point x="460" y="415"/>
      <point x="460" y="415" type="curve"/>
      <point x="464" y="415" type="line"/>
      <point x="464" y="415"/>
      <point x="467" y="365"/>
      <point x="477" y="331" type="curve" smooth="yes"/>
      <point x="569" y="0" type="line"/>
      <point x="748" y="0" type="line"/>
      <point x="866" y="411" type="line"/>
      <point x="903" y="431" type="line" smooth="yes"/>
      <point x="925" y="443"/>
      <point x="944" y="455"/>
      <point x="944" y="473" type="curve" smooth="yes"/>
      <point x="944" y="485"/>
      <point x="940" y="492"/>
      <point x="926" y="492" type="curve" smooth="yes"/>
      <point x="749" y="492" type="line" smooth="yes"/>
      <point x="712" y="492"/>
      <point x="687" y="477"/>
      <point x="687" y="445" type="curve" smooth="yes"/>
      <point x="687" y="424"/>
      <point x="696" y="412"/>
      <point x="714" y="412" type="curve" smooth="yes"/>
      <point x="767" y="412" type="line"/>
      <point x="692" y="134" type="line" smooth="yes"/>
      <point x="684" y="106"/>
      <point x="682" y="72"/>
      <point x="682" y="72" type="curve" smooth="yes"/>
      <point x="678" y="72" type="line" smooth="yes"/>
      <point x="678" y="72"/>
      <point x="676" y="106"/>
      <point x="668" y="134" type="curve" smooth="yes"/>
      <point x="566" y="492" type="line"/>
      <point x="392" y="492" type="line"/>
      <point x="303" y="134" type="line" smooth="yes"/>
      <point x="296" y="106"/>
      <point x="293" y="72"/>
      <point x="293" y="72" type="curve" smooth="yes"/>
      <point x="289" y="72" type="line" smooth="yes"/>
      <point x="289" y="72"/>
      <point x="287" y="106"/>
      <point x="279" y="134" type="curve" smooth="yes"/>
      <point x="195" y="411" type="line"/>
      <point x="241" y="431" type="line" smooth="yes"/>
      <point x="266" y="442"/>
      <point x="282" y="454"/>
      <point x="282" y="473" type="curve" smooth="yes"/>
      <point x="282" y="485"/>
      <point x="278" y="492"/>
      <point x="264" y="492" type="curve" smooth="yes"/>
      <point x="56" y="492" type="line" smooth="yes"/>
      <point x="19" y="492"/>
      <point x="-6" y="477"/>
      <point x="-6" y="445" type="curve" smooth="yes"/>
      <point x="-6" y="424"/>
      <point x="3" y="412"/>
      <point x="21" y="412" type="curve" smooth="yes"/>
      <point x="57" y="412" type="line"/>
      <point x="185" y="0" type="line"/>
    </contour>
  </outline>
</glyph>
<glyph name="x" format="1">
  <advance width="581"/>
  <unicode hex="0078"/>
  <note>
	x
  </note>
  <outline>
    <contour>
      <point x="230" y="0" type="line" smooth="yes"/>
      <point x="241" y="0"/>
      <point x="245" y="9"/>
      <point x="245" y="19" type="curve" smooth="yes"/>
      <point x="245" y="35"/>
      <point x="234" y="46"/>
      <point x="207" y="61" type="curve" smooth="yes"/>
      <point x="172" y="81" type="line"/>
      <point x="252" y="199" type="line"/>
      <point x="388" y="0" type="line"/>
      <point x="561" y="0" type="line" smooth="yes"/>
      <point x="572" y="0"/>
      <point x="576" y="9"/>
      <point x="576" y="19" type="curve" smooth="yes"/>
      <point x="576" y="35"/>
      <point x="565" y="46"/>
      <point x="538" y="61" type="curve" smooth="yes"/>
      <point x="501" y="81" type="line"/>
      <point x="380" y="254" type="line"/>
      <point x="492" y="411" type="line"/>
      <point x="527" y="431" type="line" smooth="yes"/>
      <point x="554" y="446"/>
      <point x="565" y="457"/>
      <point x="565" y="473" type="curve" smooth="yes"/>
      <point x="565" y="483"/>
      <point x="561" y="492"/>
      <point x="550" y="492" type="curve" smooth="yes"/>
      <point x="380" y="492" type="line" smooth="yes"/>
      <point x="352" y="492"/>
      <point x="325" y="474"/>
      <point x="325" y="445" type="curve" smooth="yes"/>
      <point x="325" y="424"/>
      <point x="334" y="412"/>
      <point x="352" y="412" type="curve" smooth="yes"/>
      <point x="388" y="412" type="line"/>
      <point x="317" y="311" type="line"/>
      <point x="198" y="492" type="line"/>
      <point x="68" y="492" type="line" smooth="yes"/>
      <point x="40" y="492"/>
      <point x="13" y="474"/>
      <point x="13" y="445" type="curve" smooth="yes"/>
      <point x="13" y="424"/>
      <point x="22" y="412"/>
      <point x="40" y="412" type="curve" smooth="yes"/>
      <point x="83" y="412" type="line"/>
      <point x="189" y="254" type="line"/>
      <point x="68" y="80" type="line"/>
      <point x="60" y="80" type="line" smooth="yes"/>
      <point x="32" y="80"/>
      <point x="5" y="62"/>
      <point x="5" y="33" type="curve" smooth="yes"/>
      <point x="5" y="12"/>
      <point x="14" y="0"/>
      <point x="32" y="0" type="curve" smooth="yes"/>
    </contour>
  </outline>
</glyph>
<glyph name="z" format="1">
  <advance width="462"/>
  <unicode hex="007A"/>
  <note>
	z
  </note>
  <outline>
    <contour>
      <point x="431" y="0" type="line"/>
      <point x="431" y="147" type="line" smooth="yes"/>
      <point x="431" y="159"/>
      <point x="423" y="171"/>
      <point x="405" y="171" type="curve" smooth="yes"/>
      <point x="380" y="171"/>
      <point x="369" y="154"/>
      <point x="362" y="126" type="curve" smooth="yes"/>
      <point x="351" y="85" type="line"/>
      <point x="193" y="85" type="line"/>
      <point x="420" y="394" type="line"/>
      <point x="420" y="492" type="line"/>
      <point x="42" y="492" type="line"/>
      <point x="42" y="345" type="line" smooth="yes"/>
      <point x="42" y="333"/>
      <point x="50" y="321"/>
      <point x="68" y="321" type="curve" smooth="yes"/>
      <point x="93" y="321"/>
      <point x="104" y="338"/>
      <point x="111" y="366" type="curve" smooth="yes"/>
      <point x="122" y="407" type="line"/>
      <point x="257" y="407" type="line"/>
      <point x="31" y="98" type="line"/>
      <point x="31" y="0" type="line"/>
    </contour>
  </outline>
</glyph>
<glyph name="braceleft" format="1">
  <advance width="452"/>
  <unicode hex="007B"/>
  <note>
	braceleft
  </note>
  <outline>
    <contour>
      <point x="415" y="-165" type="line"/>
      <point x="415" y="-71" type="line"/>
      <point x="336" y="-71" type="line" smooth="yes"/>
      <point x="301" y="-71"/>
      <point x="286" y="-58"/>
      <point x="286" y="-22" type="curve" smooth="yes"/>
      <point x="286" y="172" type="line" smooth="yes"/>
      <point x="286" y="244"/>
      <point x="262" y="284"/>
      <point x="196" y="315" type="curve"/>
      <point x="262" y="346"/>
      <point x="286" y="386"/>
      <point x="286" y="458" type="curve" smooth="yes"/>
      <point x="286" y="652" type="line" smooth="yes"/>
      <point x="286" y="688"/>
      <point x="301" y="701"/>
      <point x="336" y="701" type="curve" smooth="yes"/>
      <point x="415" y="701" type="line"/>
      <point x="415" y="795" type="line"/>
      <point x="309" y="795" type="line" smooth="yes"/>
      <point x="218" y="795"/>
      <point x="146" y="757"/>
      <point x="146" y="639" type="curve" smooth="yes"/>
      <point x="146" y="476" type="line" smooth="yes"/>
      <point x="146" y="433"/>
      <point x="127" y="386"/>
      <point x="44" y="377" type="curve"/>
      <point x="44" y="253" type="line"/>
      <point x="127" y="244"/>
      <point x="146" y="197"/>
      <point x="146" y="154" type="curve" smooth="yes"/>
      <point x="146" y="-9" type="line" smooth="yes"/>
      <point x="146" y="-127"/>
      <point x="218" y="-165"/>
      <point x="309" y="-165" type="curve" smooth="yes"/>
    </contour>
  </outline>
</glyph>
<glyph name="bar" format="1">
  <advance width="332"/>
  <unicode hex="007C"/>
  <note>
	bar
  </note>
  <outline>
    <contour>
      <point x="236" y="-120" type="line"/>
      <point x="236" y="740" type="line"/>
      <point x="96" y="740" type="line"/>
      <point x="96" y="-120" type="line"/>
    </contour>
  </outline>
</glyph>
<glyph name="braceright" format="1">
  <advance width="452"/>
  <unicode hex="007D"/>
  <note>
	braceright
  </note>
  <outline>
    <contour>
      <point x="143" y="-165" type="line" smooth="yes"/>
      <point x="234" y="-165"/>
      <point x="306" y="-127"/>
      <point x="306" y="-9" type="curve" smooth="yes"/>
      <point x="306" y="154" type="line" smooth="yes"/>
      <point x="306" y="197"/>
      <point x="325" y="244"/>
      <point x="408" y="253" type="curve"/>
      <point x="408" y="377" type="line"/>
      <point x="325" y="386"/>
      <point x="306" y="433"/>
      <point x="306" y="476" type="curve" smooth="yes"/>
      <point x="306" y="639" type="line" smooth="yes"/>
      <point x="306" y="757"/>
      <point x="234" y="795"/>
      <point x="143" y="795" type="curve" smooth="yes"/>
      <point x="37" y="795" type="line"/>
      <point x="37" y="701" type="line"/>
      <point x="116" y="701" type="line" smooth="yes"/>
      <point x="151" y="701"/>
      <point x="166" y="688"/>
      <point x="166" y="652" type="curve" smooth="yes"/>
      <point x="166" y="458" type="line" smooth="yes"/>
      <point x="166" y="386"/>
      <point x="190" y="346"/>
      <point x="256" y="315" type="curve"/>
      <point x="190" y="284"/>
      <point x="166" y="244"/>
      <point x="166" y="172" type="curve" smooth="yes"/>
      <point x="166" y="-22" type="line" smooth="yes"/>
      <point x="166" y="-58"/>
      <point x="151" y="-71"/>
      <point x="116" y="-71" type="curve" smooth="yes"/>
      <point x="37" y="-71" type="line"/>
      <point x="37" y="-165" type="line"/>
    </contour>
  </outline>
</glyph>
<glyph name="asciitilde" format="1">
  <advance width="625"/>
  <unicode hex="007E"/>
  <note>
	asciitilde
  </note>
  <outline>
    <contour>
      <point x="470" y="221"/>
      <point x="512" y="242"/>
      <point x="573" y="289" type="curve"/>
      <point x="528" y="385" type="line"/>
      <point x="489" y="354"/>
      <point x="454" y="341"/>
      <point x="415" y="341" type="curve" smooth="yes"/>
      <point x="383" y="341"/>
      <point x="350" y="350"/>
      <point x="315" y="365" type="curve" smooth="yes"/>
      <point x="274" y="383"/>
      <point x="244" y="393"/>
      <point x="209" y="393" type="curve" smooth="yes"/>
      <point x="155" y="393"/>
      <point x="106" y="372"/>
      <point x="45" y="325" type="curve"/>
      <point x="90" y="229" type="line"/>
      <point x="131" y="259"/>
      <point x="167" y="273"/>
      <point x="208" y="273" type="curve" smooth="yes"/>
      <point x="238" y="273"/>
      <point x="269" y="264"/>
      <point x="303" y="249" type="curve" smooth="yes"/>
      <point x="344" y="231"/>
      <point x="381" y="221"/>
      <point x="416" y="221" type="curve" smooth="yes"/>
    </contour>
  </outline>
</glyph>
<glyph name="exclamdown" format="1">
  <advance width="348"/>
  <unicode hex="00A1"/>
  <note>
	exclamdown
  </note>
  <outline>
    <contour>
      <point x="254" y="-233" type="line"/>
      <point x="217" y="311" type="line"/>
      <point x="132" y="311" type="line"/>
      <point x="94" y="-233" type="line"/>
    </contour>
    <contour>
      <point x="211" y="361"/>
      <point x="240" y="386"/>
      <point x="240" y="426" type="curve" smooth="yes"/>
      <point x="240" y="467"/>
      <point x="211" y="492"/>
      <point x="174" y="492" type="curve" smooth="yes"/>
      <point x="138" y="492"/>
      <point x="109" y="467"/>
      <point x="109" y="426" type="curve" smooth="yes"/>
      <point x="109" y="386"/>
      <point x="138" y="361"/>
      <point x="174" y="361" type="curve" smooth="yes"/>
    </contour>
  </outline>
</glyph>
<glyph name="cent" format="1">
  <advance width="584"/>
  <unicode hex="00A2"/>
  <note>
	cent
  </note>
  <outline>
    <contour>
      <point x="359" y="-69" type="line"/>
      <point x="359" y="17" type="line"/>
      <point x="404" y="19"/>
      <point x="446" y="31"/>
      <point x="481" y="52" type="curve" smooth="yes"/>
      <point x="510" y="70"/>
      <point x="528" y="91"/>
      <point x="528" y="115" type="curve" smooth="yes"/>
      <point x="528" y="141"/>
      <point x="511" y="158"/>
      <point x="491" y="158" type="curve" smooth="yes"/>
      <point x="482" y="158"/>
      <point x="476" y="154"/>
      <point x="460" y="143" type="curve"/>
      <point x="425" y="122"/>
      <point x="393" y="109"/>
      <point x="351" y="109" type="curve" smooth="yes"/>
      <point x="267" y="109"/>
      <point x="201" y="165"/>
      <point x="201" y="292" type="curve" smooth="yes"/>
      <point x="201" y="419"/>
      <point x="267" y="473"/>
      <point x="342" y="473" type="curve" smooth="yes"/>
      <point x="379" y="473"/>
      <point x="409" y="464"/>
      <point x="430" y="451" type="curve"/>
      <point x="443" y="402" type="line" smooth="yes"/>
      <point x="450" y="373"/>
      <point x="464" y="356"/>
      <point x="490" y="356" type="curve" smooth="yes"/>
      <point x="509" y="356"/>
      <point x="517" y="367"/>
      <point x="517" y="379" type="curve" smooth="yes"/>
      <point x="517" y="501" type="line"/>
      <point x="490" y="524"/>
      <point x="439" y="551"/>
      <point x="377" y="561" type="curve"/>
      <point x="377" y="642" type="line"/>
      <point x="267" y="642" type="line"/>
      <point x="267" y="561" type="line"/>
      <point x="153" y="541"/>
      <point x="52" y="454"/>
      <point x="52" y="293" type="curve" smooth="yes"/>
      <point x="52" y="150"/>
      <point x="133" y="58"/>
      <point x="249" y="27" type="curve"/>
      <point x="249" y="-69" type="line"/>
    </contour>
  </outline>
</glyph>
<glyph name="sterling" format="1">
  <advance width="656"/>
  <unicode hex="00A3"/>
  <note>
	sterling
  </note>
  <outline>
    <contour>
      <point x="554" y="0" type="line"/>
      <point x="554" y="135" type="line" smooth="yes"/>
      <point x="554" y="158"/>
      <point x="540" y="169"/>
      <point x="521" y="169" type="curve" smooth="yes"/>
      <point x="497" y="169"/>
      <point x="479" y="152"/>
      <point x="464" y="114" type="curve" smooth="yes"/>
      <point x="456" y="94" type="line"/>
      <point x="298" y="94" type="line"/>
      <point x="320" y="118"/>
      <point x="338" y="151"/>
      <point x="338" y="189" type="curve" smooth="yes"/>
      <point x="338" y="209"/>
      <point x="334" y="228"/>
      <point x="329" y="247" type="curve"/>
      <point x="453" y="266" type="line" smooth="yes"/>
      <point x="479" y="270"/>
      <point x="507" y="282"/>
      <point x="507" y="311" type="curve" smooth="yes"/>
      <point x="507" y="329"/>
      <point x="498" y="341"/>
      <point x="474" y="341" type="curve" smooth="yes"/>
      <point x="290" y="341" type="line"/>
      <point x="278" y="369"/>
      <point x="268" y="396"/>
      <point x="268" y="422" type="curve" smooth="yes"/>
      <point x="268" y="475"/>
      <point x="302" y="504"/>
      <point x="347" y="504" type="curve" smooth="yes"/>
      <point x="384" y="504"/>
      <point x="409" y="495"/>
      <point x="433" y="483" type="curve"/>
      <point x="448" y="435" type="line" smooth="yes"/>
      <point x="459" y="400"/>
      <point x="475" y="381"/>
      <point x="502" y="381" type="curve" smooth="yes"/>
      <point x="523" y="381"/>
      <point x="539" y="389"/>
      <point x="539" y="415" type="curve" smooth="yes"/>
      <point x="539" y="523" type="line"/>
      <point x="482" y="569"/>
      <point x="409" y="597"/>
      <point x="333" y="597" type="curve" smooth="yes"/>
      <point x="224" y="597"/>
      <point x="125" y="542"/>
      <point x="125" y="421" type="curve" smooth="yes"/>
      <point x="125" y="393"/>
      <point x="132" y="367"/>
      <point x="142" y="341" type="curve"/>
      <point x="126" y="341" type="line" smooth="yes"/>
      <point x="92" y="341"/>
      <point x="64" y="321"/>
      <point x="64" y="285" type="curve" smooth="yes"/>
      <point x="64" y="263"/>
      <point x="80" y="247"/>
      <point x="103" y="247" type="curve" smooth="yes"/>
      <point x="182" y="247" type="line"/>
      <point x="189" y="227"/>
      <point x="194" y="207"/>
      <point x="194" y="188" type="curve" smooth="yes"/>
      <point x="194" y="148"/>
      <point x="181" y="121"/>
      <point x="154" y="94" type="curve"/>
      <point x="106" y="94" type="line" smooth="yes"/>
      <point x="72" y="94"/>
      <point x="44" y="75"/>
      <point x="44" y="39" type="curve" smooth="yes"/>
      <point x="44" y="17"/>
      <point x="56" y="0"/>
      <point x="79" y="0" type="curve" smooth="yes"/>
    </contour>
  </outline>
</glyph>
<glyph name="currency" format="1">
  <advance width="617"/>
  <unicode hex="00A4"/>
  <note>
	currency
  </note>
  <outline>
    <contour>
      <point x="225" y="125" type="line"/>
      <point x="250" y="111"/>
      <point x="278" y="107"/>
      <point x="308" y="107" type="curve" smooth="yes"/>
      <point x="339" y="107"/>
      <point x="366" y="111"/>
      <point x="392" y="125" type="curve"/>
      <point x="448" y="56" type="line"/>
      <point x="550" y="131" type="line"/>
      <point x="484" y="203" type="line"/>
      <point x="508" y="238"/>
      <point x="522" y="275"/>
      <point x="522" y="321" type="curve" smooth="yes"/>
      <point x="522" y="367"/>
      <point x="507" y="405"/>
      <point x="484" y="440" type="curve"/>
      <point x="550" y="512" type="line"/>
      <point x="447" y="588" type="line"/>
      <point x="392" y="518" type="line"/>
      <point x="366" y="532"/>
      <point x="339" y="536"/>
      <point x="308" y="536" type="curve" smooth="yes"/>
      <point x="279" y="536"/>
      <point x="249" y="530"/>
      <point x="226" y="518" type="curve"/>
      <point x="170" y="589" type="line"/>
      <point x="67" y="512" type="line"/>
      <point x="132" y="440" type="line"/>
      <point x="103" y="400"/>
      <point x="94" y="368"/>
      <point x="94" y="321" type="curve" smooth="yes"/>
      <point x="94" y="276"/>
      <point x="109" y="239"/>
      <point x="132" y="204" type="curve"/>
      <point x="67" y="131" type="line"/>
      <point x="169" y="55" type="line"/>
    </contour>
    <contour>
      <point x="260" y="228"/>
      <point x="220" y="264"/>
      <point x="220" y="321" type="curve" smooth="yes"/>
      <point x="220" y="379"/>
      <point x="260" y="415"/>
      <point x="308" y="415" type="curve" smooth="yes"/>
      <point x="357" y="415"/>
      <point x="397" y="379"/>
      <point x="397" y="321" type="curve" smooth="yes"/>
      <point x="397" y="264"/>
      <point x="357" y="228"/>
      <point x="308" y="228" type="curve" smooth="yes"/>
    </contour>
  </outline>
</glyph>
<glyph name="yen" format="1">
  <advance width="674"/>
  <unicode hex="00A5"/>
  <note>
	yen
  </note>
  <outline>
    <contour>
      <point x="475" y="0" type="line" smooth="yes"/>
      <point x="490" y="0"/>
      <point x="494" y="7"/>
      <point x="494" y="20" type="curve" smooth="yes"/>
      <point x="494" y="39"/>
      <point x="481" y="49"/>
      <point x="450" y="64" type="curve" smooth="yes"/>
      <point x="412" y="83" type="line"/>
      <point x="412" y="180" type="line"/>
      <point x="615" y="180" type="line"/>
      <point x="615" y="270" type="line"/>
      <point x="412" y="270" type="line"/>
      <point x="412" y="300" type="line"/>
      <point x="450" y="356" type="line"/>
      <point x="615" y="356" type="line"/>
      <point x="615" y="446" type="line"/>
      <point x="510" y="446" type="line"/>
      <point x="616" y="605" type="line"/>
      <point x="666" y="628" type="line" smooth="yes"/>
      <point x="688" y="638"/>
      <point x="704" y="651"/>
      <point x="704" y="669" type="curve" smooth="yes"/>
      <point x="704" y="681"/>
      <point x="699" y="689"/>
      <point x="685" y="689" type="curve" smooth="yes"/>
      <point x="494" y="689" type="line" smooth="yes"/>
      <point x="455" y="689"/>
      <point x="428" y="673"/>
      <point x="428" y="639" type="curve" smooth="yes"/>
      <point x="428" y="618"/>
      <point x="438" y="605"/>
      <point x="457" y="605" type="curve" smooth="yes"/>
      <point x="503" y="605" type="line"/>
      <point x="364" y="395" type="line"/>
      <point x="232" y="606" type="line"/>
      <point x="274" y="621" type="line" smooth="yes"/>
      <point x="303" y="631"/>
      <point x="321" y="641"/>
      <point x="321" y="667" type="curve" smooth="yes"/>
      <point x="321" y="680"/>
      <point x="315" y="689"/>
      <point x="302" y="689" type="curve" smooth="yes"/>
      <point x="43" y="689" type="line" smooth="yes"/>
      <point x="5" y="689"/>
      <point x="-22" y="673"/>
      <point x="-22" y="639" type="curve" smooth="yes"/>
      <point x="-22" y="618"/>
      <point x="-12" y="605"/>
      <point x="7" y="605" type="curve" smooth="yes"/>
      <point x="54" y="605" type="line"/>
      <point x="155" y="446" type="line"/>
      <point x="61" y="446" type="line"/>
      <point x="61" y="356" type="line"/>
      <point x="213" y="356" type="line"/>
      <point x="264" y="275" type="line"/>
      <point x="264" y="270" type="line"/>
      <point x="61" y="270" type="line"/>
      <point x="61" y="180" type="line"/>
      <point x="264" y="180" type="line"/>
      <point x="264" y="84" type="line"/>
      <point x="255" y="84" type="line" smooth="yes"/>
      <point x="216" y="84"/>
      <point x="189" y="68"/>
      <point x="189" y="35" type="curve" smooth="yes"/>
      <point x="189" y="13"/>
      <point x="199" y="0"/>
      <point x="218" y="0" type="curve" smooth="yes"/>
    </contour>
  </outline>
</glyph>
<glyph name="brokenbar" format="1">
  <advance width="340"/>
  <unicode hex="00A6"/>
  <note>
	brokenbar
  </note>
  <outline>
    <contour>
      <point x="240" y="360" type="line"/>
      <point x="240" y="735" type="line"/>
      <point x="100" y="735" type="line"/>
      <point x="100" y="360" type="line"/>
    </contour>
    <contour>
      <point x="240" y="-170" type="line"/>
      <point x="240" y="205" type="line"/>
      <point x="100" y="205" type="line"/>
      <point x="100" y="-170" type="line"/>
    </contour>
  </outline>
</glyph>
<glyph name="section" format="1">
  <advance width="607"/>
  <unicode hex="00A7"/>
  <note>
	section
  </note>
  <outline>
    <contour>
      <point x="402" y="-113"/>
      <point x="502" y="-64"/>
      <point x="502" y="50" type="curve" smooth="yes"/>
      <point x="502" y="70"/>
      <point x="500" y="88"/>
      <point x="495" y="104" type="curve"/>
      <point x="525" y="130"/>
      <point x="545" y="169"/>
      <point x="545" y="217" type="curve" smooth="yes"/>
      <point x="545" y="321"/>
      <point x="475" y="367"/>
      <point x="391" y="408" type="curve" smooth="yes"/>
      <point x="293" y="456"/>
      <point x="235" y="478"/>
      <point x="235" y="525" type="curve" smooth="yes"/>
      <point x="235" y="569"/>
      <point x="273" y="590"/>
      <point x="325" y="590" type="curve" smooth="yes"/>
      <point x="376" y="590"/>
      <point x="409" y="578"/>
      <point x="430" y="565" type="curve"/>
      <point x="447" y="518" type="line" smooth="yes"/>
      <point x="464" y="470"/>
      <point x="472" y="458"/>
      <point x="493" y="458" type="curve" smooth="yes"/>
      <point x="507" y="458"/>
      <point x="513" y="467"/>
      <point x="513" y="478" type="curve" smooth="yes"/>
      <point x="513" y="609" type="line"/>
      <point x="465" y="646"/>
      <point x="390" y="669"/>
      <point x="314" y="669" type="curve" smooth="yes"/>
      <point x="209" y="669"/>
      <point x="108" y="619"/>
      <point x="108" y="511" type="curve" smooth="yes"/>
      <point x="108" y="491"/>
      <point x="112" y="474"/>
      <point x="118" y="458" type="curve"/>
      <point x="87" y="432"/>
      <point x="65" y="392"/>
      <point x="65" y="344" type="curve" smooth="yes"/>
      <point x="65" y="244"/>
      <point x="153" y="195"/>
      <point x="247" y="152" type="curve" smooth="yes"/>
      <point x="345" y="106"/>
      <point x="375" y="85"/>
      <point x="375" y="35" type="curve" smooth="yes"/>
      <point x="375" y="-16"/>
      <point x="316" y="-34"/>
      <point x="260" y="-34" type="curve" smooth="yes"/>
      <point x="213" y="-34"/>
      <point x="167" y="-22"/>
      <point x="145" y="-8" type="curve"/>
      <point x="129" y="40" type="line" smooth="yes"/>
      <point x="113" y="88"/>
      <point x="104" y="100"/>
      <point x="83" y="100" type="curve" smooth="yes"/>
      <point x="69" y="100"/>
      <point x="62" y="90"/>
      <point x="62" y="79" type="curve" smooth="yes"/>
      <point x="62" y="-62" type="line"/>
      <point x="111" y="-90"/>
      <point x="201" y="-113"/>
      <point x="273" y="-113" type="curve" smooth="yes"/>
    </contour>
    <contour>
      <point x="397" y="204"/>
      <point x="359" y="222"/>
      <point x="312" y="244" type="curve" smooth="yes"/>
      <point x="231" y="282"/>
      <point x="209" y="294"/>
      <point x="198" y="327" type="curve" smooth="yes"/>
      <point x="194" y="340"/>
      <point x="193" y="354"/>
      <point x="193" y="372" type="curve"/>
      <point x="221" y="356"/>
      <point x="285" y="328"/>
      <point x="319" y="312" type="curve" smooth="yes"/>
      <point x="403" y="273"/>
      <point x="420" y="262"/>
      <point x="426" y="223" type="curve" smooth="yes"/>
      <point x="427" y="215"/>
      <point x="428" y="185"/>
      <point x="428" y="174" type="curve"/>
    </contour>
  </outline>
</glyph>
<glyph name="dieresis" format="1">
  <advance width="438"/>
  <unicode hex="00A8"/>
  <note>
	dieresis
  </note>
  <outline>
    <contour>
      <point x="364" y="552"/>
      <point x="396" y="582"/>
      <point x="396" y="623" type="curve" smooth="yes"/>
      <point x="396" y="664"/>
      <point x="364" y="694"/>
      <point x="326" y="694" type="curve" smooth="yes"/>
      <point x="287" y="694"/>
      <point x="255" y="664"/>
      <point x="255" y="623" type="curve" smooth="yes"/>
      <point x="255" y="582"/>
      <point x="287" y="552"/>
      <point x="326" y="552" type="curve" smooth="yes"/>
    </contour>
    <contour>
      <point x="152" y="552"/>
      <point x="184" y="582"/>
      <point x="184" y="623" type="curve" smooth="yes"/>
      <point x="184" y="664"/>
      <point x="152" y="694"/>
      <point x="114" y="694" type="curve" smooth="yes"/>
      <point x="75" y="694"/>
      <point x="43" y="664"/>
      <point x="43" y="623" type="curve" smooth="yes"/>
      <point x="43" y="582"/>
      <point x="75" y="552"/>
      <point x="114" y="552" type="curve" smooth="yes"/>
    </contour>
  </outline>
</glyph>
<glyph name="copyright" format="1">
  <advance width="797"/>
  <unicode hex="00A9"/>
  <note>
	copyright
  </note>
  <outline>
    <contour>
      <point x="611" y="-16"/>
      <point x="762" y="126"/>
      <point x="762" y="338" type="curve" smooth="yes"/>
      <point x="762" y="548"/>
      <point x="611" y="690"/>
      <point x="398" y="690" type="curve" smooth="yes"/>
      <point x="188" y="690"/>
      <point x="35" y="548"/>
      <point x="35" y="338" type="curve" smooth="yes"/>
      <point x="35" y="126"/>
      <point x="188" y="-16"/>
      <point x="398" y="-16" type="curve" smooth="yes"/>
    </contour>
    <contour>
      <point x="459" y="132"/>
      <point x="496" y="140"/>
      <point x="527" y="159" type="curve" smooth="yes"/>
      <point x="549" y="173"/>
      <point x="563" y="186"/>
      <point x="563" y="204" type="curve" smooth="yes"/>
      <point x="563" y="225"/>
      <point x="550" y="236"/>
      <point x="536" y="236" type="curve" smooth="yes"/>
      <point x="529" y="236"/>
      <point x="524" y="233"/>
      <point x="512" y="225" type="curve"/>
      <point x="490" y="209"/>
      <point x="461" y="199"/>
      <point x="430" y="199" type="curve" smooth="yes"/>
      <point x="367" y="199"/>
      <point x="317" y="242"/>
      <point x="317" y="337" type="curve" smooth="yes"/>
      <point x="317" y="433"/>
      <point x="367" y="473"/>
      <point x="423" y="473" type="curve" smooth="yes"/>
      <point x="452" y="473"/>
      <point x="474" y="467"/>
      <point x="489" y="457" type="curve"/>
      <point x="500" y="421" type="line" smooth="yes"/>
      <point x="507" y="399"/>
      <point x="517" y="386"/>
      <point x="537" y="386" type="curve" smooth="yes"/>
      <point x="550" y="386"/>
      <point x="555" y="394"/>
      <point x="555" y="404" type="curve" smooth="yes"/>
      <point x="555" y="493" type="line"/>
      <point x="528" y="515"/>
      <point x="474" y="541"/>
      <point x="408" y="541" type="curve" smooth="yes"/>
      <point x="307" y="541"/>
      <point x="206" y="478"/>
      <point x="206" y="338" type="curve" smooth="yes"/>
      <point x="206" y="204"/>
      <point x="300" y="132"/>
      <point x="421" y="132" type="curve" smooth="yes"/>
    </contour>
    <contour>
      <point x="232" y="52"/>
      <point x="114" y="168"/>
      <point x="114" y="338" type="curve" smooth="yes"/>
      <point x="114" y="506"/>
      <point x="232" y="622"/>
      <point x="398" y="622" type="curve" smooth="yes"/>
      <point x="565" y="622"/>
      <point x="683" y="506"/>
      <point x="683" y="338" type="curve" smooth="yes"/>
      <point x="683" y="168"/>
      <point x="565" y="52"/>
      <point x="398" y="52" type="curve" smooth="yes"/>
    </contour>
  </outline>
</glyph>
<glyph name="ordfeminine" format="1">
  <advance width="399"/>
  <unicode hex="00AA"/>
  <note>
	ordfeminine
  </note>
  <outline>
    <contour>
      <point x="179" y="316"/>
      <point x="216" y="330"/>
      <point x="237" y="355" type="curve"/>
      <point x="241" y="355" type="line"/>
      <point x="241" y="325" type="line"/>
      <point x="361" y="325" type="line" smooth="yes"/>
      <point x="370" y="325"/>
      <point x="372" y="330"/>
      <point x="372" y="337" type="curve" smooth="yes"/>
      <point x="372" y="350"/>
      <point x="364" y="356"/>
      <point x="346" y="364" type="curve"/>
      <point x="327" y="374" type="line"/>
      <point x="327" y="536" type="line" smooth="yes"/>
      <point x="327" y="608"/>
      <point x="272" y="643"/>
      <point x="197" y="643" type="curve" smooth="yes"/>
      <point x="150" y="643"/>
      <point x="100" y="628"/>
      <point x="64" y="607" type="curve"/>
      <point x="64" y="534" type="line" smooth="yes"/>
      <point x="64" y="526"/>
      <point x="69" y="520"/>
      <point x="81" y="520" type="curve" smooth="yes"/>
      <point x="96" y="520"/>
      <point x="105" y="530"/>
      <point x="110" y="549" type="curve" smooth="yes"/>
      <point x="116" y="573" type="line"/>
      <point x="129" y="580"/>
      <point x="159" y="589"/>
      <point x="182" y="589" type="curve" smooth="yes"/>
      <point x="218" y="589"/>
      <point x="239" y="572"/>
      <point x="239" y="539" type="curve" smooth="yes"/>
      <point x="239" y="519" type="line"/>
      <point x="172" y="509" type="line" smooth="yes"/>
      <point x="113" y="500"/>
      <point x="45" y="479"/>
      <point x="45" y="405" type="curve" smooth="yes"/>
      <point x="45" y="344"/>
      <point x="94" y="316"/>
      <point x="145" y="316" type="curve" smooth="yes"/>
    </contour>
    <contour>
      <point x="147" y="372"/>
      <point x="133" y="388"/>
      <point x="133" y="409" type="curve" smooth="yes"/>
      <point x="133" y="439"/>
      <point x="155" y="454"/>
      <point x="188" y="460" type="curve" smooth="yes"/>
      <point x="239" y="468" type="line"/>
      <point x="239" y="433" type="line" smooth="yes"/>
      <point x="239" y="401"/>
      <point x="208" y="372"/>
      <point x="172" y="372" type="curve" smooth="yes"/>
    </contour>
  </outline>
</glyph>
<glyph name="guillemotleft" format="1">
  <advance width="625"/>
  <unicode hex="00AB"/>
  <note>
	guillemotleft
  </note>
  <outline>
    <contour>
      <point x="558" y="108" type="line"/>
      <point x="455" y="237" type="line"/>
      <point x="558" y="366" type="line"/>
      <point x="473" y="434" type="line"/>
      <point x="309" y="250" type="line"/>
      <point x="309" y="224" type="line"/>
      <point x="473" y="40" type="line"/>
    </contour>
    <contour>
      <point x="306" y="108" type="line"/>
      <point x="203" y="237" type="line"/>
      <point x="306" y="366" type="line"/>
      <point x="221" y="434" type="line"/>
      <point x="57" y="250" type="line"/>
      <point x="57" y="224" type="line"/>
      <point x="221" y="40" type="line"/>
    </contour>
  </outline>
</glyph>
<glyph name="logicalnot" format="1">
  <advance width="645"/>
  <unicode hex="00AC"/>
  <note>
	logicalnot
  </note>
  <outline>
    <contour>
      <point x="570" y="141" type="line"/>
      <point x="570" y="396" type="line"/>
      <point x="66" y="396" type="line"/>
      <point x="66" y="281" type="line"/>
      <point x="430" y="281" type="line"/>
      <point x="430" y="141" type="line"/>
    </contour>
  </outline>
</glyph>
<glyph name="softhyphen" format="1">
  <advance width="312"/>
  <unicode hex="00AD"/>
  <note>
	softhyphen
  </note>
  <outline>
    <contour>
      <point x="275" y="242" type="line"/>
      <point x="275" y="337" type="line"/>
      <point x="37" y="337" type="line"/>
      <point x="37" y="242" type="line"/>
    </contour>
  </outline>
</glyph>
<glyph name="registered" format="1">
  <advance width="468"/>
  <unicode hex="00AE"/>
  <note>
	registered
  </note>
  <outline>
    <contour>
      <point x="355" y="328"/>
      <point x="459" y="413"/>
      <point x="459" y="547" type="curve" smooth="yes"/>
      <point x="459" y="681"/>
      <point x="355" y="766"/>
      <point x="234" y="766" type="curve" smooth="yes"/>
      <point x="113" y="766"/>
      <point x="9" y="681"/>
      <point x="9" y="547" type="curve" smooth="yes"/>
      <point x="9" y="413"/>
      <point x="113" y="328"/>
      <point x="234" y="328" type="curve" smooth="yes"/>
    </contour>
    <contour>
      <point x="145" y="380"/>
      <point x="70" y="435"/>
      <point x="70" y="547" type="curve" smooth="yes"/>
      <point x="70" y="659"/>
      <point x="145" y="714"/>
      <point x="234" y="714" type="curve" smooth="yes"/>
      <point x="323" y="714"/>
      <point x="398" y="659"/>
      <point x="398" y="547" type="curve" smooth="yes"/>
      <point x="398" y="435"/>
      <point x="323" y="380"/>
      <point x="234" y="380" type="curve" smooth="yes"/>
    </contour>
    <contour>
      <point x="225" y="439" type="line" smooth="yes"/>
      <point x="233" y="439"/>
      <point x="236" y="442"/>
      <point x="236" y="449" type="curve" smooth="yes"/>
      <point x="236" y="456"/>
      <point x="229" y="461"/>
      <point x="220" y="466" type="curve" smooth="yes"/>
      <point x="211" y="471" type="line"/>
      <point x="211" y="521" type="line"/>
      <point x="271" y="439" type="line"/>
      <point x="338" y="439" type="line" smooth="yes"/>
      <point x="344" y="439"/>
      <point x="348" y="443"/>
      <point x="348" y="450" type="curve" smooth="yes"/>
      <point x="348" y="458"/>
      <point x="344" y="462"/>
      <point x="331" y="467" type="curve" smooth="yes"/>
      <point x="315" y="473" type="line"/>
      <point x="264" y="528" type="line"/>
      <point x="269" y="528" type="line" smooth="yes"/>
      <point x="302" y="528"/>
      <point x="323" y="554"/>
      <point x="323" y="592" type="curve" smooth="yes"/>
      <point x="323" y="632"/>
      <point x="292" y="660"/>
      <point x="242" y="660" type="curve" smooth="yes"/>
      <point x="141" y="660" type="line" smooth="yes"/>
      <point x="135" y="660"/>
      <point x="131" y="656"/>
      <point x="131" y="649" type="curve" smooth="yes"/>
      <point x="131" y="642"/>
      <point x="135" y="638"/>
      <point x="143" y="633" type="curve" smooth="yes"/>
      <point x="155" y="625" type="line"/>
      <point x="155" y="474" type="line"/>
      <point x="139" y="473"/>
      <point x="132" y="466"/>
      <point x="132" y="453" type="curve" smooth="yes"/>
      <point x="132" y="445"/>
      <point x="138" y="439"/>
      <point x="146" y="439" type="curve" smooth="yes"/>
    </contour>
    <contour>
      <point x="211" y="623" type="line"/>
      <point x="238" y="623" type="line" smooth="yes"/>
      <point x="257" y="623"/>
      <point x="267" y="611"/>
      <point x="267" y="593" type="curve" smooth="yes"/>
      <point x="267" y="574"/>
      <point x="257" y="562"/>
      <point x="238" y="562" type="curve" smooth="yes"/>
      <point x="211" y="562" type="line"/>
    </contour>
  </outline>
</glyph>
<glyph name="macron" format="1">
  <advance width="376"/>
  <unicode hex="00AF"/>
  <note>
	macron
  </note>
  <outline>
    <contour>
      <point x="338" y="573" type="line"/>
      <point x="338" y="667" type="line"/>
      <point x="38" y="667" type="line"/>
      <point x="38" y="573" type="line"/>
    </contour>
  </outline>
</glyph>
<glyph name="degree" format="1">
  <advance width="361"/>
  <unicode hex="00B0"/>
  <note>
	degree
  </note>
  <outline>
    <contour>
      <point x="259" y="544"/>
      <point x="323" y="591"/>
      <point x="323" y="672" type="curve" smooth="yes"/>
      <point x="323" y="753"/>
      <point x="259" y="800"/>
      <point x="180" y="800" type="curve" smooth="yes"/>
      <point x="101" y="800"/>
      <point x="37" y="753"/>
      <point x="37" y="672" type="curve" smooth="yes"/>
      <point x="37" y="591"/>
      <point x="101" y="544"/>
      <point x="180" y="544" type="curve" smooth="yes"/>
    </contour>
    <contour>
      <point x="149" y="613"/>
      <point x="127" y="633"/>
      <point x="127" y="672" type="curve" smooth="yes"/>
      <point x="127" y="711"/>
      <point x="149" y="731"/>
      <point x="180" y="731" type="curve" smooth="yes"/>
      <point x="211" y="731"/>
      <point x="233" y="711"/>
      <point x="233" y="672" type="curve" smooth="yes"/>
      <point x="233" y="633"/>
      <point x="211" y="613"/>
      <point x="180" y="613" type="curve" smooth="yes"/>
    </contour>
  </outline>
</glyph>
<glyph name="plusminus" format="1">
  <advance width="565"/>
  <unicode hex="00B1"/>
  <note>
	plusminus
  </note>
  <outline>
    <contour>
      <point x="355" y="174" type="line"/>
      <point x="355" y="337" type="line"/>
      <point x="516" y="337" type="line"/>
      <point x="516" y="430" type="line"/>
      <point x="355" y="430" type="line"/>
      <point x="355" y="600" type="line"/>
      <point x="210" y="600" type="line"/>
      <point x="210" y="430" type="line"/>
      <point x="49" y="430" type="line"/>
      <point x="49" y="337" type="line"/>
      <point x="210" y="337" type="line"/>
      <point x="210" y="174" type="line"/>
    </contour>
    <contour>
      <point x="516" y="0" type="line"/>
      <point x="516" y="93" type="line"/>
      <point x="49" y="93" type="line"/>
      <point x="49" y="0" type="line"/>
    </contour>
  </outline>
</glyph>
<glyph name="twosuperior" format="1">
  <advance width="317"/>
  <unicode hex="00B2"/>
  <note>
	twosuperior
  </note>
  <outline>
    <contour>
      <point x="295" y="388" type="line"/>
      <point x="295" y="448" type="line"/>
      <point x="138" y="448" type="line"/>
      <point x="221" y="533" type="line" smooth="yes"/>
      <point x="272" y="586"/>
      <point x="290" y="625"/>
      <point x="290" y="661" type="curve" smooth="yes"/>
      <point x="290" y="733"/>
      <point x="245" y="769"/>
      <point x="165" y="769" type="curve" smooth="yes"/>
      <point x="123" y="769"/>
      <point x="77" y="754"/>
      <point x="34" y="731" type="curve"/>
      <point x="34" y="646" type="line" smooth="yes"/>
      <point x="34" y="636"/>
      <point x="40" y="628"/>
      <point x="52" y="628" type="curve" smooth="yes"/>
      <point x="68" y="628"/>
      <point x="73" y="637"/>
      <point x="85" y="669" type="curve" smooth="yes"/>
      <point x="96" y="697" type="line"/>
      <point x="113" y="704"/>
      <point x="132" y="709"/>
      <point x="149" y="709" type="curve" smooth="yes"/>
      <point x="177" y="709"/>
      <point x="199" y="697"/>
      <point x="199" y="667" type="curve" smooth="yes"/>
      <point x="199" y="645"/>
      <point x="186" y="617"/>
      <point x="140" y="570" type="curve" smooth="yes"/>
      <point x="24" y="453" type="line"/>
      <point x="24" y="388" type="line"/>
    </contour>
  </outline>
</glyph>
<glyph name="threesuperior" format="1">
  <advance width="319"/>
  <unicode hex="00B3"/>
  <note>
	threesuperior
  </note>
  <outline>
    <contour>
      <point x="218" y="382"/>
      <point x="290" y="417"/>
      <point x="290" y="490" type="curve" smooth="yes"/>
      <point x="290" y="543"/>
      <point x="250" y="576"/>
      <point x="198" y="584" type="curve"/>
      <point x="247" y="598"/>
      <point x="277" y="631"/>
      <point x="277" y="678" type="curve" smooth="yes"/>
      <point x="277" y="742"/>
      <point x="215" y="769"/>
      <point x="151" y="769" type="curve" smooth="yes"/>
      <point x="105" y="769"/>
      <point x="59" y="754"/>
      <point x="18" y="732" type="curve"/>
      <point x="18" y="639" type="line" smooth="yes"/>
      <point x="18" y="632"/>
      <point x="22" y="626"/>
      <point x="32" y="626" type="curve" smooth="yes"/>
      <point x="45" y="626"/>
      <point x="51" y="634"/>
      <point x="62" y="665" type="curve" smooth="yes"/>
      <point x="72" y="695" type="line"/>
      <point x="88" y="702"/>
      <point x="111" y="709"/>
      <point x="132" y="709" type="curve" smooth="yes"/>
      <point x="168" y="709"/>
      <point x="186" y="695"/>
      <point x="186" y="663" type="curve" smooth="yes"/>
      <point x="186" y="629"/>
      <point x="168" y="611"/>
      <point x="120" y="605" type="curve" smooth="yes"/>
      <point x="78" y="600" type="line"/>
      <point x="78" y="549" type="line"/>
      <point x="101" y="553"/>
      <point x="119" y="556"/>
      <point x="136" y="556" type="curve" smooth="yes"/>
      <point x="177" y="556"/>
      <point x="199" y="533"/>
      <point x="199" y="500" type="curve" smooth="yes"/>
      <point x="199" y="464"/>
      <point x="184" y="442"/>
      <point x="128" y="442" type="curve" smooth="yes"/>
      <point x="91" y="442"/>
      <point x="46" y="452"/>
      <point x="14" y="465" type="curve"/>
      <point x="14" y="403" type="line"/>
      <point x="41" y="391"/>
      <point x="90" y="382"/>
      <point x="134" y="382" type="curve" smooth="yes"/>
    </contour>
  </outline>
</glyph>
<glyph name="acute" format="1">
  <advance width="339"/>
  <unicode hex="00B4"/>
  <note>
	acute
  </note>
  <outline>
    <contour>
      <point x="281" y="711" type="line"/>
      <point x="176" y="780" type="line"/>
      <point x="65" y="592" type="line"/>
      <point x="145" y="539" type="line"/>
    </contour>
  </outline>
</glyph>
<glyph name="mu" format="1">
  <advance width="642"/>
  <unicode hex="00B5"/>
  <note>
	mu
  </note>
  <outline>
    <contour>
      <point x="230" y="-240" type="line"/>
      <point x="218" y="7" type="line"/>
      <point x="243" y="-8"/>
      <point x="271" y="-15"/>
      <point x="298" y="-15" type="curve" smooth="yes"/>
      <point x="357" y="-15"/>
      <point x="401" y="17"/>
      <point x="429" y="55" type="curve"/>
      <point x="433" y="55" type="line"/>
      <point x="433" y="48" type="line" smooth="yes"/>
      <point x="433" y="1"/>
      <point x="469" y="-15"/>
      <point x="511" y="-15" type="curve" smooth="yes"/>
      <point x="555" y="-15"/>
      <point x="605" y="3"/>
      <point x="627" y="16" type="curve"/>
      <point x="627" y="85" type="line"/>
      <point x="611" y="75"/>
      <point x="593" y="69"/>
      <point x="578" y="69" type="curve" smooth="yes"/>
      <point x="562" y="69"/>
      <point x="551" y="74"/>
      <point x="551" y="99" type="curve" smooth="yes"/>
      <point x="551" y="492" type="line"/>
      <point x="411" y="492" type="line"/>
      <point x="411" y="134" type="line"/>
      <point x="373" y="93"/>
      <point x="341" y="74"/>
      <point x="295" y="74" type="curve" smooth="yes"/>
      <point x="243" y="74"/>
      <point x="221" y="104"/>
      <point x="221" y="153" type="curve" smooth="yes"/>
      <point x="221" y="492" type="line"/>
      <point x="81" y="492" type="line"/>
      <point x="81" y="48" type="line"/>
      <point x="69" y="-240" type="line"/>
    </contour>
  </outline>
</glyph>
<glyph name="paragraph" format="1">
  <advance width="749"/>
  <unicode hex="00B6"/>
  <note>
	paragraph
  </note>
  <outline>
    <contour>
      <point x="627" y="-160" type="line" smooth="yes"/>
      <point x="641" y="-160"/>
      <point x="647" y="-150"/>
      <point x="647" y="-138" type="curve" smooth="yes"/>
      <point x="647" y="-115"/>
      <point x="630" y="-101"/>
      <point x="581" y="-97" type="curve" smooth="yes"/>
      <point x="402" y="-81" type="line"/>
      <point x="402" y="615" type="line"/>
      <point x="482" y="615" type="line"/>
      <point x="482" y="-15" type="line"/>
      <point x="576" y="-15" type="line"/>
      <point x="576" y="614" type="line"/>
      <point x="606" y="634" type="line" smooth="yes"/>
      <point x="633" y="652"/>
      <point x="647" y="662"/>
      <point x="647" y="676" type="curve" smooth="yes"/>
      <point x="647" y="688"/>
      <point x="643" y="695"/>
      <point x="629" y="695" type="curve" smooth="yes"/>
      <point x="287" y="695" type="line" smooth="yes"/>
      <point x="166" y="695"/>
      <point x="82" y="633"/>
      <point x="82" y="514" type="curve" smooth="yes"/>
      <point x="82" y="412"/>
      <point x="156" y="332"/>
      <point x="257" y="332" type="curve" smooth="yes"/>
      <point x="308" y="332" type="line"/>
      <point x="308" y="-80" type="line"/>
      <point x="279" y="-80" type="line" smooth="yes"/>
      <point x="242" y="-80"/>
      <point x="217" y="-95"/>
      <point x="217" y="-127" type="curve" smooth="yes"/>
      <point x="217" y="-148"/>
      <point x="226" y="-160"/>
      <point x="244" y="-160" type="curve" smooth="yes"/>
    </contour>
  </outline>
</glyph>
<glyph name="periodcentered" format="1">
  <advance width="309"/>
  <unicode hex="00B7"/>
  <note>
	periodcentered
  </note>
  <outline>
    <contour>
      <point x="199" y="231"/>
      <point x="235" y="265"/>
      <point x="235" y="312" type="curve" smooth="yes"/>
      <point x="235" y="359"/>
      <point x="199" y="393"/>
      <point x="155" y="393" type="curve" smooth="yes"/>
      <point x="110" y="393"/>
      <point x="74" y="359"/>
      <point x="74" y="312" type="curve" smooth="yes"/>
      <point x="74" y="265"/>
      <point x="110" y="231"/>
      <point x="155" y="231" type="curve" smooth="yes"/>
    </contour>
  </outline>
</glyph>
<glyph name="cedilla" format="1">
  <advance width="400"/>
  <unicode hex="00B8"/>
  <note>
	cedilla
  </note>
  <outline>
    <contour>
      <point x="211" y="-206"/>
      <point x="279" y="-163"/>
      <point x="279" y="-112" type="curve" smooth="yes"/>
      <point x="279" y="-80"/>
      <point x="259" y="-60"/>
      <point x="230" y="-48" type="curve"/>
      <point x="251" y="0" type="line"/>
      <point x="161" y="0" type="line"/>
      <point x="140" y="-60" type="line"/>
      <point x="167" y="-69"/>
      <point x="181" y="-85"/>
      <point x="181" y="-108" type="curve" smooth="yes"/>
      <point x="181" y="-135"/>
      <point x="162" y="-159"/>
      <point x="115" y="-174" type="curve"/>
      <point x="134" y="-220" type="line"/>
    </contour>
  </outline>
</glyph>
<glyph name="onesuperior" format="1">
  <advance width="248"/>
  <unicode hex="00B9"/>
  <note>
	onesuperior
  </note>
  <outline>
    <contour>
      <point x="210" y="388" type="line" smooth="yes"/>
      <point x="223" y="388"/>
      <point x="226" y="395"/>
      <point x="226" y="405" type="curve" smooth="yes"/>
      <point x="226" y="419"/>
      <point x="218" y="426"/>
      <point x="195" y="434" type="curve" smooth="yes"/>
      <point x="172" y="442" type="line"/>
      <point x="172" y="761" type="line"/>
      <point x="79" y="761" type="line"/>
      <point x="9" y="737" type="line"/>
      <point x="9" y="689" type="line"/>
      <point x="71" y="707" type="line"/>
      <point x="71" y="444" type="line"/>
      <point x="52" y="444" type="line" smooth="yes"/>
      <point x="28" y="444"/>
      <point x="13" y="433"/>
      <point x="13" y="412" type="curve" smooth="yes"/>
      <point x="13" y="397"/>
      <point x="20" y="388"/>
      <point x="32" y="388" type="curve" smooth="yes"/>
    </contour>
  </outline>
</glyph>
<glyph name="ordmasculine" format="1">
  <advance width="400"/>
  <unicode hex="00BA"/>
  <note>
	ordmasculine
  </note>
  <outline>
    <contour>
      <point x="285" y="316"/>
      <point x="361" y="366"/>
      <point x="361" y="479" type="curve" smooth="yes"/>
      <point x="361" y="594"/>
      <point x="285" y="643"/>
      <point x="200" y="643" type="curve" smooth="yes"/>
      <point x="115" y="643"/>
      <point x="39" y="594"/>
      <point x="39" y="479" type="curve" smooth="yes"/>
      <point x="39" y="366"/>
      <point x="115" y="316"/>
      <point x="200" y="316" type="curve" smooth="yes"/>
    </contour>
    <contour>
      <point x="152" y="370"/>
      <point x="128" y="408"/>
      <point x="128" y="479" type="curve" smooth="yes"/>
      <point x="128" y="551"/>
      <point x="152" y="589"/>
      <point x="200" y="589" type="curve" smooth="yes"/>
      <point x="247" y="589"/>
      <point x="272" y="551"/>
      <point x="272" y="479" type="curve" smooth="yes"/>
      <point x="272" y="408"/>
      <point x="247" y="370"/>
      <point x="200" y="370" type="curve" smooth="yes"/>
    </contour>
  </outline>
</glyph>
<glyph name="guillemotright" format="1">
  <advance width="625"/>
  <unicode hex="00BB"/>
  <note>
	guillemotright
  </note>
  <outline>
    <contour>
      <point x="568" y="224" type="line"/>
      <point x="568" y="250" type="line"/>
      <point x="404" y="434" type="line"/>
      <point x="319" y="366" type="line"/>
      <point x="422" y="237" type="line"/>
      <point x="319" y="108" type="line"/>
      <point x="404" y="40" type="line"/>
    </contour>
    <contour>
      <point x="316" y="224" type="line"/>
      <point x="316" y="250" type="line"/>
      <point x="152" y="434" type="line"/>
      <point x="67" y="366" type="line"/>
      <point x="170" y="237" type="line"/>
      <point x="67" y="108" type="line"/>
      <point x="152" y="40" type="line"/>
    </contour>
  </outline>
</glyph>
<glyph name="onequarter" format="1">
  <advance width="821"/>
  <unicode hex="00BC"/>
  <note>
	onequarter
  </note>
  <outline>
    <contour>
      <point x="687" y="639" type="line"/>
      <point x="601" y="695" type="line"/>
      <point x="145" y="35" type="line"/>
      <point x="231" y="-21" type="line"/>
    </contour>
    <contour>
      <point x="226" y="307" type="line" smooth="yes"/>
      <point x="239" y="307"/>
      <point x="242" y="314"/>
      <point x="242" y="324" type="curve" smooth="yes"/>
      <point x="242" y="338"/>
      <point x="234" y="345"/>
      <point x="211" y="353" type="curve" smooth="yes"/>
      <point x="188" y="361" type="line"/>
      <point x="188" y="680" type="line"/>
      <point x="95" y="680" type="line"/>
      <point x="25" y="656" type="line"/>
      <point x="25" y="608" type="line"/>
      <point x="87" y="626" type="line"/>
      <point x="87" y="363" type="line"/>
      <point x="68" y="363" type="line" smooth="yes"/>
      <point x="44" y="363"/>
      <point x="29" y="352"/>
      <point x="29" y="331" type="curve" smooth="yes"/>
      <point x="29" y="316"/>
      <point x="36" y="307"/>
      <point x="48" y="307" type="curve" smooth="yes"/>
    </contour>
    <contour>
      <point x="658" y="279" type="line"/>
      <point x="658" y="132" type="line"/>
      <point x="551" y="132" type="line"/>
    </contour>
    <contour>
      <point x="758" y="0" type="line"/>
      <point x="758" y="72" type="line"/>
      <point x="804" y="72" type="line"/>
      <point x="804" y="132" type="line"/>
      <point x="758" y="132" type="line"/>
      <point x="758" y="373" type="line"/>
      <point x="659" y="373" type="line"/>
      <point x="483" y="126" type="line"/>
      <point x="483" y="72" type="line"/>
      <point x="668" y="72" type="line"/>
      <point x="668" y="0" type="line"/>
    </contour>
  </outline>
</glyph>
<glyph name="onehalf" format="1">
  <advance width="866"/>
  <unicode hex="00BD"/>
  <note>
	onehalf
  </note>
  <outline>
    <contour>
      <point x="687" y="639" type="line"/>
      <point x="601" y="695" type="line"/>
      <point x="145" y="35" type="line"/>
      <point x="231" y="-21" type="line"/>
    </contour>
    <contour>
      <point x="226" y="307" type="line" smooth="yes"/>
      <point x="239" y="307"/>
      <point x="242" y="314"/>
      <point x="242" y="324" type="curve" smooth="yes"/>
      <point x="242" y="338"/>
      <point x="234" y="345"/>
      <point x="211" y="353" type="curve" smooth="yes"/>
      <point x="188" y="361" type="line"/>
      <point x="188" y="680" type="line"/>
      <point x="95" y="680" type="line"/>
      <point x="25" y="656" type="line"/>
      <point x="25" y="608" type="line"/>
      <point x="87" y="626" type="line"/>
      <point x="87" y="363" type="line"/>
      <point x="68" y="363" type="line" smooth="yes"/>
      <point x="44" y="363"/>
      <point x="29" y="352"/>
      <point x="29" y="331" type="curve" smooth="yes"/>
      <point x="29" y="316"/>
      <point x="36" y="307"/>
      <point x="48" y="307" type="curve" smooth="yes"/>
    </contour>
    <contour>
      <point x="844" y="0" type="line"/>
      <point x="844" y="60" type="line"/>
      <point x="687" y="60" type="line"/>
      <point x="765" y="140" type="line" smooth="yes"/>
      <point x="819" y="196"/>
      <point x="839" y="230"/>
      <point x="839" y="273" type="curve" smooth="yes"/>
      <point x="839" y="345"/>
      <point x="794" y="381"/>
      <point x="714" y="381" type="curve" smooth="yes"/>
      <point x="672" y="381"/>
      <point x="626" y="366"/>
      <point x="583" y="343" type="curve"/>
      <point x="583" y="258" type="line" smooth="yes"/>
      <point x="583" y="248"/>
      <point x="589" y="240"/>
      <point x="601" y="240" type="curve" smooth="yes"/>
      <point x="617" y="240"/>
      <point x="622" y="249"/>
      <point x="634" y="281" type="curve" smooth="yes"/>
      <point x="645" y="309" type="line"/>
      <point x="662" y="316"/>
      <point x="681" y="321"/>
      <point x="698" y="321" type="curve" smooth="yes"/>
      <point x="726" y="321"/>
      <point x="748" y="309"/>
      <point x="748" y="279" type="curve" smooth="yes"/>
      <point x="748" y="252"/>
      <point x="735" y="228"/>
      <point x="687" y="180" type="curve" smooth="yes"/>
      <point x="573" y="65" type="line"/>
      <point x="573" y="0" type="line"/>
    </contour>
  </outline>
</glyph>
<glyph name="threequarters" format="1">
  <advance width="819"/>
  <unicode hex="00BE"/>
  <note>
	threequarters
  </note>
  <outline>
    <contour>
      <point x="685" y="639" type="line"/>
      <point x="599" y="695" type="line"/>
      <point x="143" y="35" type="line"/>
      <point x="229" y="-21" type="line"/>
    </contour>
    <contour>
      <point x="220" y="300"/>
      <point x="292" y="335"/>
      <point x="292" y="408" type="curve" smooth="yes"/>
      <point x="292" y="461"/>
      <point x="252" y="494"/>
      <point x="200" y="502" type="curve"/>
      <point x="249" y="516"/>
      <point x="279" y="549"/>
      <point x="279" y="596" type="curve" smooth="yes"/>
      <point x="279" y="660"/>
      <point x="217" y="687"/>
      <point x="153" y="687" type="curve" smooth="yes"/>
      <point x="107" y="687"/>
      <point x="61" y="672"/>
      <point x="20" y="650" type="curve"/>
      <point x="20" y="557" type="line" smooth="yes"/>
      <point x="20" y="550"/>
      <point x="24" y="544"/>
      <point x="34" y="544" type="curve" smooth="yes"/>
      <point x="47" y="544"/>
      <point x="53" y="552"/>
      <point x="64" y="583" type="curve" smooth="yes"/>
      <point x="74" y="613" type="line"/>
      <point x="90" y="620"/>
      <point x="113" y="627"/>
      <point x="134" y="627" type="curve" smooth="yes"/>
      <point x="170" y="627"/>
      <point x="188" y="613"/>
      <point x="188" y="581" type="curve" smooth="yes"/>
      <point x="188" y="547"/>
      <point x="170" y="529"/>
      <point x="122" y="523" type="curve" smooth="yes"/>
      <point x="80" y="518" type="line"/>
      <point x="80" y="467" type="line"/>
      <point x="103" y="471"/>
      <point x="121" y="474"/>
      <point x="138" y="474" type="curve" smooth="yes"/>
      <point x="179" y="474"/>
      <point x="201" y="451"/>
      <point x="201" y="418" type="curve" smooth="yes"/>
      <point x="201" y="382"/>
      <point x="186" y="360"/>
      <point x="130" y="360" type="curve" smooth="yes"/>
      <point x="93" y="360"/>
      <point x="48" y="370"/>
      <point x="16" y="383" type="curve"/>
      <point x="16" y="321" type="line"/>
      <point x="43" y="309"/>
      <point x="92" y="300"/>
      <point x="136" y="300" type="curve" smooth="yes"/>
    </contour>
    <contour>
      <point x="658" y="279" type="line"/>
      <point x="658" y="132" type="line"/>
      <point x="551" y="132" type="line"/>
    </contour>
    <contour>
      <point x="758" y="0" type="line"/>
      <point x="758" y="72" type="line"/>
      <point x="804" y="72" type="line"/>
      <point x="804" y="132" type="line"/>
      <point x="758" y="132" type="line"/>
      <point x="758" y="373" type="line"/>
      <point x="659" y="373" type="line"/>
      <point x="483" y="126" type="line"/>
      <point x="483" y="72" type="line"/>
      <point x="668" y="72" type="line"/>
      <point x="668" y="0" type="line"/>
    </contour>
  </outline>
</glyph>
<glyph name="questiondown" format="1">
  <advance width="489"/>
  <unicode hex="00BF"/>
  <note>
	questiondown
  </note>
  <outline>
    <contour>
      <point x="318" y="-243"/>
      <point x="388" y="-210"/>
      <point x="422" y="-182" type="curve"/>
      <point x="422" y="-71" type="line" smooth="yes"/>
      <point x="422" y="-59"/>
      <point x="414" y="-49"/>
      <point x="396" y="-49" type="curve" smooth="yes"/>
      <point x="371" y="-49"/>
      <point x="358" y="-65"/>
      <point x="351" y="-93" type="curve" smooth="yes"/>
      <point x="339" y="-137" type="line"/>
      <point x="319" y="-149"/>
      <point x="287" y="-158"/>
      <point x="251" y="-158" type="curve" smooth="yes"/>
      <point x="199" y="-158"/>
      <point x="172" y="-120"/>
      <point x="172" y="-77" type="curve" smooth="yes"/>
      <point x="172" y="-29"/>
      <point x="195" y="7"/>
      <point x="226" y="40" type="curve" smooth="yes"/>
      <point x="269" y="86"/>
      <point x="304" y="127"/>
      <point x="304" y="199" type="curve" smooth="yes"/>
      <point x="304" y="311" type="line"/>
      <point x="184" y="311" type="line"/>
      <point x="184" y="221" type="line" smooth="yes"/>
      <point x="184" y="150"/>
      <point x="167" y="131"/>
      <point x="116" y="73" type="curve" smooth="yes"/>
      <point x="83" y="36"/>
      <point x="42" y="-10"/>
      <point x="42" y="-86" type="curve" smooth="yes"/>
      <point x="42" y="-173"/>
      <point x="107" y="-243"/>
      <point x="235" y="-243" type="curve" smooth="yes"/>
    </contour>
    <contour>
      <point x="280" y="361"/>
      <point x="309" y="386"/>
      <point x="309" y="426" type="curve" smooth="yes"/>
      <point x="309" y="467"/>
      <point x="280" y="492"/>
      <point x="244" y="492" type="curve" smooth="yes"/>
      <point x="207" y="492"/>
      <point x="178" y="467"/>
      <point x="178" y="426" type="curve" smooth="yes"/>
      <point x="178" y="386"/>
      <point x="207" y="361"/>
      <point x="244" y="361" type="curve" smooth="yes"/>
    </contour>
  </outline>
</glyph>
<glyph name="Aacute" format="1">
  <advance width="771"/>
  <unicode hex="00C1"/>
  <note>
	Aacute
  </note>
  <outline>
    <contour>
      <point x="267" y="0" type="line" smooth="yes"/>
      <point x="278" y="0"/>
      <point x="284" y="7"/>
      <point x="284" y="22" type="curve" smooth="yes"/>
      <point x="284" y="41"/>
      <point x="273" y="51"/>
      <point x="237" y="64" type="curve" smooth="yes"/>
      <point x="183" y="84" type="line"/>
      <point x="226" y="199" type="line"/>
      <point x="500" y="199" type="line"/>
      <point x="545" y="85" type="line"/>
      <point x="518" y="85" type="line" smooth="yes"/>
      <point x="479" y="85"/>
      <point x="452" y="69"/>
      <point x="452" y="35" type="curve" smooth="yes"/>
      <point x="452" y="13"/>
      <point x="462" y="0"/>
      <point x="481" y="0" type="curve" smooth="yes"/>
      <point x="757" y="0" type="line" smooth="yes"/>
      <point x="770" y="0"/>
      <point x="774" y="11"/>
      <point x="774" y="26" type="curve" smooth="yes"/>
      <point x="774" y="47"/>
      <point x="761" y="57"/>
      <point x="730" y="70" type="curve" smooth="yes"/>
      <point x="696" y="84" type="line"/>
      <point x="464" y="695" type="line"/>
      <point x="303" y="695" type="line"/>
      <point x="73" y="85" type="line"/>
      <point x="63" y="85" type="line" smooth="yes"/>
      <point x="24" y="85"/>
      <point x="-3" y="69"/>
      <point x="-3" y="35" type="curve" smooth="yes"/>
      <point x="-3" y="13"/>
      <point x="7" y="0"/>
      <point x="26" y="0" type="curve" smooth="yes"/>
    </contour>
    <contour>
      <point x="364" y="570" type="line"/>
      <point x="466" y="293" type="line"/>
      <point x="261" y="293" type="line"/>
    </contour>
    <contour>
      <point x="546" y="926" type="line"/>
      <point x="441" y="995" type="line"/>
      <point x="330" y="807" type="line"/>
      <point x="410" y="754" type="line"/>
    </contour>
  </outline>
</glyph>
<glyph name="Atilde" format="1">
  <advance width="771"/>
  <unicode hex="00C3"/>
  <note>
	Atilde
  </note>
  <outline>
    <contour>
      <point x="267" y="0" type="line" smooth="yes"/>
      <point x="278" y="0"/>
      <point x="284" y="7"/>
      <point x="284" y="22" type="curve" smooth="yes"/>
      <point x="284" y="41"/>
      <point x="273" y="51"/>
      <point x="237" y="64" type="curve" smooth="yes"/>
      <point x="183" y="84" type="line"/>
      <point x="226" y="199" type="line"/>
      <point x="500" y="199" type="line"/>
      <point x="545" y="85" type="line"/>
      <point x="518" y="85" type="line" smooth="yes"/>
      <point x="479" y="85"/>
      <point x="452" y="69"/>
      <point x="452" y="35" type="curve" smooth="yes"/>
      <point x="452" y="13"/>
      <point x="462" y="0"/>
      <point x="481" y="0" type="curve" smooth="yes"/>
      <point x="757" y="0" type="line" smooth="yes"/>
      <point x="770" y="0"/>
      <point x="774" y="11"/>
      <point x="774" y="26" type="curve" smooth="yes"/>
      <point x="774" y="47"/>
      <point x="761" y="57"/>
      <point x="730" y="70" type="curve" smooth="yes"/>
      <point x="696" y="84" type="line"/>
      <point x="464" y="695" type="line"/>
      <point x="303" y="695" type="line"/>
      <point x="73" y="85" type="line"/>
      <point x="63" y="85" type="line" smooth="yes"/>
      <point x="24" y="85"/>
      <point x="-3" y="69"/>
      <point x="-3" y="35" type="curve" smooth="yes"/>
      <point x="-3" y="13"/>
      <point x="7" y="0"/>
      <point x="26" y="0" type="curve" smooth="yes"/>
    </contour>
    <contour>
      <point x="364" y="570" type="line"/>
      <point x="466" y="293" type="line"/>
      <point x="261" y="293" type="line"/>
    </contour>
    <contour>
      <point x="486" y="765"/>
      <point x="524" y="784"/>
      <point x="557" y="818" type="curve"/>
      <point x="510" y="885" type="line"/>
      <point x="490" y="870"/>
      <point x="472" y="862"/>
      <point x="451" y="862" type="curve" smooth="yes"/>
      <point x="405" y="862"/>
      <point x="368" y="903"/>
      <point x="320" y="903" type="curve" smooth="yes"/>
      <point x="286" y="903"/>
      <point x="244" y="880"/>
      <point x="211" y="850" type="curve"/>
      <point x="258" y="782" type="line"/>
      <point x="277" y="796"/>
      <point x="294" y="806"/>
      <point x="320" y="806" type="curve" smooth="yes"/>
      <point x="366" y="806"/>
      <point x="403" y="765"/>
      <point x="452" y="765" type="curve" smooth="yes"/>
    </contour>
  </outline>
</glyph>
<glyph name="Adieresis" format="1">
  <advance width="771"/>
  <unicode hex="00C4"/>
  <note>
	Adieresis
  </note>
  <outline>
    <contour>
      <point x="267" y="0" type="line" smooth="yes"/>
      <point x="278" y="0"/>
      <point x="284" y="7"/>
      <point x="284" y="22" type="curve" smooth="yes"/>
      <point x="284" y="41"/>
      <point x="273" y="51"/>
      <point x="237" y="64" type="curve" smooth="yes"/>
      <point x="183" y="84" type="line"/>
      <point x="226" y="199" type="line"/>
      <point x="500" y="199" type="line"/>
      <point x="545" y="85" type="line"/>
      <point x="518" y="85" type="line" smooth="yes"/>
      <point x="479" y="85"/>
      <point x="452" y="69"/>
      <point x="452" y="35" type="curve" smooth="yes"/>
      <point x="452" y="13"/>
      <point x="462" y="0"/>
      <point x="481" y="0" type="curve" smooth="yes"/>
      <point x="757" y="0" type="line" smooth="yes"/>
      <point x="770" y="0"/>
      <point x="774" y="11"/>
      <point x="774" y="26" type="curve" smooth="yes"/>
      <point x="774" y="47"/>
      <point x="761" y="57"/>
      <point x="730" y="70" type="curve" smooth="yes"/>
      <point x="696" y="84" type="line"/>
      <point x="464" y="695" type="line"/>
      <point x="303" y="695" type="line"/>
      <point x="73" y="85" type="line"/>
      <point x="63" y="85" type="line" smooth="yes"/>
      <point x="24" y="85"/>
      <point x="-3" y="69"/>
      <point x="-3" y="35" type="curve" smooth="yes"/>
      <point x="-3" y="13"/>
      <point x="7" y="0"/>
      <point x="26" y="0" type="curve" smooth="yes"/>
    </contour>
    <contour>
      <point x="364" y="570" type="line"/>
      <point x="466" y="293" type="line"/>
      <point x="261" y="293" type="line"/>
    </contour>
    <contour>
      <point x="312" y="765"/>
      <point x="344" y="795"/>
      <point x="344" y="836" type="curve" smooth="yes"/>
      <point x="344" y="877"/>
      <point x="312" y="907"/>
      <point x="274" y="907" type="curve" smooth="yes"/>
      <point x="235" y="907"/>
      <point x="203" y="877"/>
      <point x="203" y="836" type="curve" smooth="yes"/>
      <point x="203" y="795"/>
      <point x="235" y="765"/>
      <point x="274" y="765" type="curve" smooth="yes"/>
    </contour>
    <contour>
      <point x="524" y="765"/>
      <point x="556" y="795"/>
      <point x="556" y="836" type="curve" smooth="yes"/>
      <point x="556" y="877"/>
      <point x="524" y="907"/>
      <point x="486" y="907" type="curve" smooth="yes"/>
      <point x="447" y="907"/>
      <point x="415" y="877"/>
      <point x="415" y="836" type="curve" smooth="yes"/>
      <point x="415" y="795"/>
      <point x="447" y="765"/>
      <point x="486" y="765" type="curve" smooth="yes"/>
    </contour>
  </outline>
</glyph>
<glyph name="Aring" format="1">
  <advance width="771"/>
  <unicode hex="00C5"/>
  <note>
	Aring
  </note>
  <outline>
    <contour>
      <point x="267" y="0" type="line" smooth="yes"/>
      <point x="278" y="0"/>
      <point x="284" y="7"/>
      <point x="284" y="22" type="curve" smooth="yes"/>
      <point x="284" y="41"/>
      <point x="273" y="51"/>
      <point x="237" y="64" type="curve" smooth="yes"/>
      <point x="183" y="84" type="line"/>
      <point x="226" y="199" type="line"/>
      <point x="500" y="199" type="line"/>
      <point x="545" y="85" type="line"/>
      <point x="518" y="85" type="line" smooth="yes"/>
      <point x="479" y="85"/>
      <point x="452" y="69"/>
      <point x="452" y="35" type="curve" smooth="yes"/>
      <point x="452" y="13"/>
      <point x="462" y="0"/>
      <point x="481" y="0" type="curve" smooth="yes"/>
      <point x="757" y="0" type="line" smooth="yes"/>
      <point x="770" y="0"/>
      <point x="774" y="11"/>
      <point x="774" y="26" type="curve" smooth="yes"/>
      <point x="774" y="47"/>
      <point x="761" y="57"/>
      <point x="730" y="70" type="curve" smooth="yes"/>
      <point x="696" y="84" type="line"/>
      <point x="464" y="695" type="line"/>
      <point x="303" y="695" type="line"/>
      <point x="73" y="85" type="line"/>
      <point x="63" y="85" type="line" smooth="yes"/>
      <point x="24" y="85"/>
      <point x="-3" y="69"/>
      <point x="-3" y="35" type="curve" smooth="yes"/>
      <point x="-3" y="13"/>
      <point x="7" y="0"/>
      <point x="26" y="0" type="curve" smooth="yes"/>
    </contour>
    <contour>
      <point x="364" y="570" type="line"/>
      <point x="466" y="293" type="line"/>
      <point x="261" y="293" type="line"/>
    </contour>
    <contour>
      <point x="449" y="734"/>
      <point x="495" y="784"/>
      <point x="495" y="844" type="curve" smooth="yes"/>
      <point x="495" y="904"/>
      <point x="449" y="954"/>
      <point x="377" y="954" type="curve" smooth="yes"/>
      <point x="305" y="954"/>
      <point x="259" y="904"/>
      <point x="259" y="844" type="curve" smooth="yes"/>
      <point x="259" y="784"/>
      <point x="305" y="734"/>
      <point x="377" y="734" type="curve" smooth="yes"/>
    </contour>
    <contour>
      <point x="354" y="801"/>
      <point x="335" y="816"/>
      <point x="335" y="844" type="curve" smooth="yes"/>
      <point x="335" y="872"/>
      <point x="354" y="887"/>
      <point x="377" y="887" type="curve" smooth="yes"/>
      <point x="400" y="887"/>
      <point x="419" y="872"/>
      <point x="419" y="844" type="curve" smooth="yes"/>
      <point x="419" y="816"/>
      <point x="400" y="801"/>
      <point x="377" y="801" type="curve" smooth="yes"/>
    </contour>
  </outline>
</glyph>
<glyph name="AE" format="1">
  <advance width="1155"/>
  <unicode hex="00C6"/>
  <note>
	AE
  </note>
  <outline>
    <contour>
      <point x="284" y="0" type="line" smooth="yes"/>
      <point x="295" y="0"/>
      <point x="301" y="7"/>
      <point x="301" y="22" type="curve" smooth="yes"/>
      <point x="301" y="41"/>
      <point x="290" y="51"/>
      <point x="254" y="64" type="curve" smooth="yes"/>
      <point x="200" y="84" type="line"/>
      <point x="283" y="199" type="line"/>
      <point x="565" y="199" type="line"/>
      <point x="565" y="93" type="line"/>
      <point x="552" y="88" type="line" smooth="yes"/>
      <point x="506" y="70"/>
      <point x="486" y="59"/>
      <point x="486" y="29" type="curve" smooth="yes"/>
      <point x="486" y="8"/>
      <point x="496" y="0"/>
      <point x="508" y="0" type="curve" smooth="yes"/>
      <point x="1096" y="0" type="line"/>
      <point x="1096" y="172" type="line" smooth="yes"/>
      <point x="1096" y="186"/>
      <point x="1091" y="195"/>
      <point x="1073" y="195" type="curve" smooth="yes"/>
      <point x="1053" y="195"/>
      <point x="1042" y="172"/>
      <point x="1025" y="125" type="curve" smooth="yes"/>
      <point x="1013" y="92" type="line"/>
      <point x="715" y="92" type="line"/>
      <point x="715" y="310" type="line"/>
      <point x="932" y="310" type="line"/>
      <point x="949" y="274" type="line" smooth="yes"/>
      <point x="961" y="249"/>
      <point x="971" y="237"/>
      <point x="984" y="237" type="curve" smooth="yes"/>
      <point x="1000" y="237"/>
      <point x="1005" y="247"/>
      <point x="1005" y="257" type="curve" smooth="yes"/>
      <point x="1005" y="453" type="line" smooth="yes"/>
      <point x="1005" y="463"/>
      <point x="1000" y="473"/>
      <point x="984" y="473" type="curve" smooth="yes"/>
      <point x="971" y="473"/>
      <point x="961" y="461"/>
      <point x="949" y="436" type="curve" smooth="yes"/>
      <point x="932" y="400" type="line"/>
      <point x="715" y="400" type="line"/>
      <point x="715" y="603" type="line"/>
      <point x="998" y="603" type="line"/>
      <point x="1010" y="570" type="line" smooth="yes"/>
      <point x="1027" y="523"/>
      <point x="1038" y="500"/>
      <point x="1058" y="500" type="curve" smooth="yes"/>
      <point x="1076" y="500"/>
      <point x="1081" y="509"/>
      <point x="1081" y="523" type="curve" smooth="yes"/>
      <point x="1081" y="695" type="line"/>
      <point x="387" y="695" type="line" smooth="yes"/>
      <point x="375" y="695"/>
      <point x="363" y="687"/>
      <point x="363" y="666" type="curve" smooth="yes"/>
      <point x="363" y="636"/>
      <point x="383" y="625"/>
      <point x="429" y="607" type="curve" smooth="yes"/>
      <point x="442" y="602" type="line"/>
      <point x="75" y="85" type="line"/>
      <point x="65" y="85" type="line" smooth="yes"/>
      <point x="26" y="85"/>
      <point x="-1" y="69"/>
      <point x="-1" y="35" type="curve" smooth="yes"/>
      <point x="-1" y="13"/>
      <point x="9" y="0"/>
      <point x="28" y="0" type="curve" smooth="yes"/>
    </contour>
    <contour>
      <point x="565" y="598" type="line"/>
      <point x="565" y="293" type="line"/>
      <point x="347" y="293" type="line"/>
    </contour>
  </outline>
</glyph>
<glyph name="Ccedilla" format="1">
  <advance width="676"/>
  <unicode hex="00C7"/>
  <note>
	Ccedilla
  </note>
  <outline>
    <contour>
      <point x="394" y="-217"/>
      <point x="462" y="-174"/>
      <point x="462" y="-123" type="curve" smooth="yes"/>
      <point x="462" y="-91"/>
      <point x="442" y="-71"/>
      <point x="413" y="-59" type="curve"/>
      <point x="433" y="-13" type="line"/>
      <point x="516" y="-7"/>
      <point x="569" y="18"/>
      <point x="597" y="38" type="curve" smooth="yes"/>
      <point x="616" y="51"/>
      <point x="634" y="67"/>
      <point x="634" y="94" type="curve" smooth="yes"/>
      <point x="634" y="119"/>
      <point x="614" y="136"/>
      <point x="595" y="136" type="curve" smooth="yes"/>
      <point x="584" y="136"/>
      <point x="575" y="130"/>
      <point x="554" y="116" type="curve" smooth="yes"/>
      <point x="515" y="90"/>
      <point x="471" y="79"/>
      <point x="412" y="79" type="curve" smooth="yes"/>
      <point x="290" y="79"/>
      <point x="188" y="168"/>
      <point x="188" y="349" type="curve" smooth="yes"/>
      <point x="188" y="529"/>
      <point x="283" y="616"/>
      <point x="408" y="616" type="curve" smooth="yes"/>
      <point x="467" y="616"/>
      <point x="509" y="600"/>
      <point x="529" y="590" type="curve"/>
      <point x="550" y="521" type="line" smooth="yes"/>
      <point x="562" y="481"/>
      <point x="573" y="463"/>
      <point x="599" y="463" type="curve" smooth="yes"/>
      <point x="620" y="463"/>
      <point x="624" y="475"/>
      <point x="624" y="489" type="curve" smooth="yes"/>
      <point x="624" y="633" type="line"/>
      <point x="575" y="673"/>
      <point x="495" y="710"/>
      <point x="380" y="710" type="curve" smooth="yes"/>
      <point x="207" y="710"/>
      <point x="36" y="590"/>
      <point x="36" y="349" type="curve" smooth="yes"/>
      <point x="36" y="126"/>
      <point x="174" y="6"/>
      <point x="343" y="-13" type="curve"/>
      <point x="323" y="-71" type="line"/>
      <point x="350" y="-80"/>
      <point x="364" y="-96"/>
      <point x="364" y="-119" type="curve" smooth="yes"/>
      <point x="364" y="-146"/>
      <point x="345" y="-170"/>
      <point x="298" y="-185" type="curve"/>
      <point x="317" y="-231" type="line"/>
    </contour>
  </outline>
</glyph>
<glyph name="Eacute" format="1">
  <advance width="726"/>
  <unicode hex="00C9"/>
  <note>
	Eacute
  </note>
  <outline>
    <contour>
      <point x="667" y="0" type="line"/>
      <point x="667" y="172" type="line" smooth="yes"/>
      <point x="667" y="186"/>
      <point x="662" y="195"/>
      <point x="644" y="195" type="curve" smooth="yes"/>
      <point x="624" y="195"/>
      <point x="613" y="172"/>
      <point x="596" y="125" type="curve" smooth="yes"/>
      <point x="584" y="92" type="line"/>
      <point x="276" y="92" type="line"/>
      <point x="276" y="310" type="line"/>
      <point x="503" y="310" type="line"/>
      <point x="520" y="274" type="line" smooth="yes"/>
      <point x="532" y="249"/>
      <point x="542" y="237"/>
      <point x="555" y="237" type="curve" smooth="yes"/>
      <point x="571" y="237"/>
      <point x="576" y="247"/>
      <point x="576" y="257" type="curve" smooth="yes"/>
      <point x="576" y="453" type="line" smooth="yes"/>
      <point x="576" y="463"/>
      <point x="571" y="473"/>
      <point x="555" y="473" type="curve" smooth="yes"/>
      <point x="542" y="473"/>
      <point x="532" y="461"/>
      <point x="520" y="436" type="curve" smooth="yes"/>
      <point x="503" y="400" type="line"/>
      <point x="276" y="400" type="line"/>
      <point x="276" y="603" type="line"/>
      <point x="569" y="603" type="line"/>
      <point x="581" y="570" type="line" smooth="yes"/>
      <point x="598" y="523"/>
      <point x="609" y="500"/>
      <point x="629" y="500" type="curve" smooth="yes"/>
      <point x="647" y="500"/>
      <point x="652" y="509"/>
      <point x="652" y="523" type="curve" smooth="yes"/>
      <point x="652" y="695" type="line"/>
      <point x="69" y="695" type="line" smooth="yes"/>
      <point x="57" y="695"/>
      <point x="47" y="687"/>
      <point x="47" y="666" type="curve" smooth="yes"/>
      <point x="47" y="636"/>
      <point x="67" y="625"/>
      <point x="113" y="607" type="curve" smooth="yes"/>
      <point x="126" y="602" type="line"/>
      <point x="126" y="93" type="line"/>
      <point x="113" y="88" type="line" smooth="yes"/>
      <point x="67" y="70"/>
      <point x="47" y="59"/>
      <point x="47" y="29" type="curve" smooth="yes"/>
      <point x="47" y="8"/>
      <point x="57" y="0"/>
      <point x="69" y="0" type="curve" smooth="yes"/>
    </contour>
    <contour>
      <point x="505" y="927" type="line"/>
      <point x="400" y="996" type="line"/>
      <point x="289" y="808" type="line"/>
      <point x="369" y="755" type="line"/>
    </contour>
  </outline>
</glyph>
<glyph name="Ecircumflex" format="1">
  <advance width="726"/>
  <unicode hex="00CA"/>
  <note>
	Ecircumflex
  </note>
  <outline>
    <contour>
      <point x="667" y="0" type="line"/>
      <point x="667" y="172" type="line" smooth="yes"/>
      <point x="667" y="186"/>
      <point x="662" y="195"/>
      <point x="644" y="195" type="curve" smooth="yes"/>
      <point x="624" y="195"/>
      <point x="613" y="172"/>
      <point x="596" y="125" type="curve" smooth="yes"/>
      <point x="584" y="92" type="line"/>
      <point x="276" y="92" type="line"/>
      <point x="276" y="310" type="line"/>
      <point x="503" y="310" type="line"/>
      <point x="520" y="274" type="line" smooth="yes"/>
      <point x="532" y="249"/>
      <point x="542" y="237"/>
      <point x="555" y="237" type="curve" smooth="yes"/>
      <point x="571" y="237"/>
      <point x="576" y="247"/>
      <point x="576" y="257" type="curve" smooth="yes"/>
      <point x="576" y="453" type="line" smooth="yes"/>
      <point x="576" y="463"/>
      <point x="571" y="473"/>
      <point x="555" y="473" type="curve" smooth="yes"/>
      <point x="542" y="473"/>
      <point x="532" y="461"/>
      <point x="520" y="436" type="curve" smooth="yes"/>
      <point x="503" y="400" type="line"/>
      <point x="276" y="400" type="line"/>
      <point x="276" y="603" type="line"/>
      <point x="569" y="603" type="line"/>
      <point x="581" y="570" type="line" smooth="yes"/>
      <point x="598" y="523"/>
      <point x="609" y="500"/>
      <point x="629" y="500" type="curve" smooth="yes"/>
      <point x="647" y="500"/>
      <point x="652" y="509"/>
      <point x="652" y="523" type="curve" smooth="yes"/>
      <point x="652" y="695" type="line"/>
      <point x="69" y="695" type="line" smooth="yes"/>
      <point x="57" y="695"/>
      <point x="47" y="687"/>
      <point x="47" y="666" type="curve" smooth="yes"/>
      <point x="47" y="636"/>
      <point x="67" y="625"/>
      <point x="113" y="607" type="curve" smooth="yes"/>
      <point x="126" y="602" type="line"/>
      <point x="126" y="93" type="line"/>
      <point x="113" y="88" type="line" smooth="yes"/>
      <point x="67" y="70"/>
      <point x="47" y="59"/>
      <point x="47" y="29" type="curve" smooth="yes"/>
      <point x="47" y="8"/>
      <point x="57" y="0"/>
      <point x="69" y="0" type="curve" smooth="yes"/>
    </contour>
    <contour>
      <point x="360" y="865" type="line"/>
      <point x="457" y="754" type="line"/>
      <point x="518" y="808" type="line"/>
      <point x="393" y="971" type="line"/>
      <point x="327" y="971" type="line"/>
      <point x="202" y="808" type="line"/>
      <point x="263" y="754" type="line"/>
    </contour>
  </outline>
</glyph>
<glyph name="Iacute" format="1">
  <advance width="411"/>
  <unicode hex="00CD"/>
  <note>
	Iacute
  </note>
  <outline>
    <contour>
      <point x="340" y="0" type="line" smooth="yes"/>
      <point x="355" y="0"/>
      <point x="359" y="7"/>
      <point x="359" y="20" type="curve" smooth="yes"/>
      <point x="359" y="40"/>
      <point x="346" y="50"/>
      <point x="315" y="65" type="curve" smooth="yes"/>
      <point x="277" y="84" type="line"/>
      <point x="277" y="611" type="line"/>
      <point x="315" y="630" type="line" smooth="yes"/>
      <point x="346" y="645"/>
      <point x="359" y="655"/>
      <point x="359" y="675" type="curve" smooth="yes"/>
      <point x="359" y="688"/>
      <point x="355" y="695"/>
      <point x="340" y="695" type="curve" smooth="yes"/>
      <point x="118" y="695" type="line" smooth="yes"/>
      <point x="79" y="695"/>
      <point x="52" y="679"/>
      <point x="52" y="645" type="curve" smooth="yes"/>
      <point x="52" y="623"/>
      <point x="62" y="610"/>
      <point x="81" y="610" type="curve" smooth="yes"/>
      <point x="127" y="610" type="line"/>
      <point x="127" y="85" type="line"/>
      <point x="118" y="85" type="line" smooth="yes"/>
      <point x="79" y="85"/>
      <point x="52" y="69"/>
      <point x="52" y="35" type="curve" smooth="yes"/>
      <point x="52" y="13"/>
      <point x="62" y="0"/>
      <point x="81" y="0" type="curve" smooth="yes"/>
    </contour>
    <contour>
      <point x="340" y="927" type="line"/>
      <point x="235" y="996" type="line"/>
      <point x="124" y="808" type="line"/>
      <point x="204" y="755" type="line"/>
    </contour>
  </outline>
</glyph>
<glyph name="Icircumflex" format="1">
  <advance width="375"/>
  <unicode hex="00CE"/>
  <note>
	Icircumflex
  </note>
  <outline>
    <contour>
      <point x="330" y="0" type="line" smooth="yes"/>
      <point x="345" y="0"/>
      <point x="349" y="7"/>
      <point x="349" y="20" type="curve" smooth="yes"/>
      <point x="349" y="40"/>
      <point x="336" y="50"/>
      <point x="305" y="65" type="curve" smooth="yes"/>
      <point x="267" y="84" type="line"/>
      <point x="267" y="611" type="line"/>
      <point x="305" y="630" type="line" smooth="yes"/>
      <point x="336" y="645"/>
      <point x="349" y="655"/>
      <point x="349" y="675" type="curve" smooth="yes"/>
      <point x="349" y="688"/>
      <point x="345" y="695"/>
      <point x="330" y="695" type="curve" smooth="yes"/>
      <point x="108" y="695" type="line" smooth="yes"/>
      <point x="69" y="695"/>
      <point x="42" y="679"/>
      <point x="42" y="645" type="curve" smooth="yes"/>
      <point x="42" y="623"/>
      <point x="52" y="610"/>
      <point x="71" y="610" type="curve" smooth="yes"/>
      <point x="117" y="610" type="line"/>
      <point x="117" y="85" type="line"/>
      <point x="108" y="85" type="line" smooth="yes"/>
      <point x="69" y="85"/>
      <point x="42" y="69"/>
      <point x="42" y="35" type="curve" smooth="yes"/>
      <point x="42" y="13"/>
      <point x="52" y="0"/>
      <point x="71" y="0" type="curve" smooth="yes"/>
    </contour>
    <contour>
      <point x="186" y="865" type="line"/>
      <point x="283" y="754" type="line"/>
      <point x="344" y="808" type="line"/>
      <point x="219" y="971" type="line"/>
      <point x="153" y="971" type="line"/>
      <point x="28" y="808" type="line"/>
      <point x="89" y="754" type="line"/>
    </contour>
  </outline>
</glyph>
<glyph name="Idieresis" format="1">
  <advance width="379"/>
  <unicode hex="00CF"/>
  <note>
	Idieresis
  </note>
  <outline>
    <contour>
      <point x="327" y="0" type="line" smooth="yes"/>
      <point x="342" y="0"/>
      <point x="346" y="7"/>
      <point x="346" y="20" type="curve" smooth="yes"/>
      <point x="346" y="40"/>
      <point x="333" y="50"/>
      <point x="302" y="65" type="curve" smooth="yes"/>
      <point x="264" y="84" type="line"/>
      <point x="264" y="611" type="line"/>
      <point x="302" y="630" type="line" smooth="yes"/>
      <point x="333" y="645"/>
      <point x="346" y="655"/>
      <point x="346" y="675" type="curve" smooth="yes"/>
      <point x="346" y="688"/>
      <point x="342" y="695"/>
      <point x="327" y="695" type="curve" smooth="yes"/>
      <point x="105" y="695" type="line" smooth="yes"/>
      <point x="66" y="695"/>
      <point x="39" y="679"/>
      <point x="39" y="645" type="curve" smooth="yes"/>
      <point x="39" y="623"/>
      <point x="49" y="610"/>
      <point x="68" y="610" type="curve" smooth="yes"/>
      <point x="114" y="610" type="line"/>
      <point x="114" y="85" type="line"/>
      <point x="105" y="85" type="line" smooth="yes"/>
      <point x="66" y="85"/>
      <point x="39" y="69"/>
      <point x="39" y="35" type="curve" smooth="yes"/>
      <point x="39" y="13"/>
      <point x="49" y="0"/>
      <point x="68" y="0" type="curve" smooth="yes"/>
    </contour>
    <contour>
      <point x="122" y="765"/>
      <point x="154" y="795"/>
      <point x="154" y="836" type="curve" smooth="yes"/>
      <point x="154" y="877"/>
      <point x="122" y="907"/>
      <point x="84" y="907" type="curve" smooth="yes"/>
      <point x="45" y="907"/>
      <point x="13" y="877"/>
      <point x="13" y="836" type="curve" smooth="yes"/>
      <point x="13" y="795"/>
      <point x="45" y="765"/>
      <point x="84" y="765" type="curve" smooth="yes"/>
    </contour>
    <contour>
      <point x="334" y="765"/>
      <point x="366" y="795"/>
      <point x="366" y="836" type="curve" smooth="yes"/>
      <point x="366" y="877"/>
      <point x="334" y="907"/>
      <point x="296" y="907" type="curve" smooth="yes"/>
      <point x="257" y="907"/>
      <point x="225" y="877"/>
      <point x="225" y="836" type="curve" smooth="yes"/>
      <point x="225" y="795"/>
      <point x="257" y="765"/>
      <point x="296" y="765" type="curve" smooth="yes"/>
    </contour>
  </outline>
</glyph>
<glyph name="Eth" format="1">
  <advance width="775"/>
  <unicode hex="00D0"/>
  <note>
	Eth
  </note>
  <outline>
    <contour>
      <point x="394" y="0" type="line" smooth="yes"/>
      <point x="579" y="0"/>
      <point x="738" y="102"/>
      <point x="738" y="346" type="curve" smooth="yes"/>
      <point x="738" y="590"/>
      <point x="579" y="695"/>
      <point x="394" y="695" type="curve" smooth="yes"/>
      <point x="71" y="695" type="line" smooth="yes"/>
      <point x="59" y="695"/>
      <point x="49" y="687"/>
      <point x="49" y="666" type="curve" smooth="yes"/>
      <point x="49" y="636"/>
      <point x="69" y="625"/>
      <point x="115" y="607" type="curve" smooth="yes"/>
      <point x="128" y="602" type="line"/>
      <point x="128" y="401" type="line"/>
      <point x="59" y="401" type="line"/>
      <point x="59" y="307" type="line"/>
      <point x="128" y="307" type="line"/>
      <point x="128" y="93" type="line"/>
      <point x="115" y="88" type="line" smooth="yes"/>
      <point x="69" y="70"/>
      <point x="49" y="59"/>
      <point x="49" y="29" type="curve" smooth="yes"/>
      <point x="49" y="8"/>
      <point x="59" y="0"/>
      <point x="71" y="0" type="curve" smooth="yes"/>
    </contour>
    <contour>
      <point x="278" y="307" type="line"/>
      <point x="440" y="307" type="line"/>
      <point x="440" y="401" type="line"/>
      <point x="278" y="401" type="line"/>
      <point x="278" y="601" type="line"/>
      <point x="394" y="601" type="line" smooth="yes"/>
      <point x="523" y="601"/>
      <point x="586" y="502"/>
      <point x="586" y="346" type="curve" smooth="yes"/>
      <point x="586" y="190"/>
      <point x="523" y="94"/>
      <point x="394" y="94" type="curve" smooth="yes"/>
      <point x="278" y="94" type="line"/>
    </contour>
  </outline>
</glyph>
<glyph name="Ograve" format="1">
  <advance width="766"/>
  <unicode hex="00D2"/>
  <note>
	Ograve
  </note>
  <outline>
    <contour>
      <point x="571" y="-15"/>
      <point x="727" y="93"/>
      <point x="727" y="347" type="curve" smooth="yes"/>
      <point x="727" y="601"/>
      <point x="571" y="710"/>
      <point x="383" y="710" type="curve" smooth="yes"/>
      <point x="195" y="710"/>
      <point x="39" y="601"/>
      <point x="39" y="347" type="curve" smooth="yes"/>
      <point x="39" y="93"/>
      <point x="195" y="-15"/>
      <point x="383" y="-15" type="curve" smooth="yes"/>
    </contour>
    <contour>
      <point x="256" y="79"/>
      <point x="191" y="174"/>
      <point x="191" y="347" type="curve" smooth="yes"/>
      <point x="191" y="520"/>
      <point x="256" y="616"/>
      <point x="383" y="616" type="curve" smooth="yes"/>
      <point x="510" y="616"/>
      <point x="575" y="520"/>
      <point x="575" y="347" type="curve" smooth="yes"/>
      <point x="575" y="174"/>
      <point x="510" y="79"/>
      <point x="383" y="79" type="curve" smooth="yes"/>
    </contour>
    <contour>
      <point x="450" y="808" type="line"/>
      <point x="339" y="996" type="line"/>
      <point x="234" y="927" type="line"/>
      <point x="370" y="755" type="line"/>
    </contour>
  </outline>
</glyph>
<glyph name="Ocircumflex" format="1">
  <advance width="766"/>
  <unicode hex="00D4"/>
  <note>
	Ocircumflex
  </note>
  <outline>
    <contour>
      <point x="571" y="-15"/>
      <point x="727" y="93"/>
      <point x="727" y="347" type="curve" smooth="yes"/>
      <point x="727" y="601"/>
      <point x="571" y="710"/>
      <point x="383" y="710" type="curve" smooth="yes"/>
      <point x="195" y="710"/>
      <point x="39" y="601"/>
      <point x="39" y="347" type="curve" smooth="yes"/>
      <point x="39" y="93"/>
      <point x="195" y="-15"/>
      <point x="383" y="-15" type="curve" smooth="yes"/>
    </contour>
    <contour>
      <point x="256" y="79"/>
      <point x="191" y="174"/>
      <point x="191" y="347" type="curve" smooth="yes"/>
      <point x="191" y="520"/>
      <point x="256" y="616"/>
      <point x="383" y="616" type="curve" smooth="yes"/>
      <point x="510" y="616"/>
      <point x="575" y="520"/>
      <point x="575" y="347" type="curve" smooth="yes"/>
      <point x="575" y="174"/>
      <point x="510" y="79"/>
      <point x="383" y="79" type="curve" smooth="yes"/>
    </contour>
    <contour>
      <point x="383" y="865" type="line"/>
      <point x="480" y="754" type="line"/>
      <point x="541" y="808" type="line"/>
      <point x="416" y="971" type="line"/>
      <point x="350" y="971" type="line"/>
      <point x="225" y="808" type="line"/>
      <point x="286" y="754" type="line"/>
    </contour>
  </outline>
</glyph>
<glyph name="Otilde" format="1">
  <advance width="766"/>
  <unicode hex="00D5"/>
  <note>
	Otilde
  </note>
  <outline>
    <contour>
      <point x="571" y="-15"/>
      <point x="727" y="93"/>
      <point x="727" y="347" type="curve" smooth="yes"/>
      <point x="727" y="601"/>
      <point x="571" y="710"/>
      <point x="383" y="710" type="curve" smooth="yes"/>
      <point x="195" y="710"/>
      <point x="39" y="601"/>
      <point x="39" y="347" type="curve" smooth="yes"/>
      <point x="39" y="93"/>
      <point x="195" y="-15"/>
      <point x="383" y="-15" type="curve" smooth="yes"/>
    </contour>
    <contour>
      <point x="256" y="79"/>
      <point x="191" y="174"/>
      <point x="191" y="347" type="curve" smooth="yes"/>
      <point x="191" y="520"/>
      <point x="256" y="616"/>
      <point x="383" y="616" type="curve" smooth="yes"/>
      <point x="510" y="616"/>
      <point x="575" y="520"/>
      <point x="575" y="347" type="curve" smooth="yes"/>
      <point x="575" y="174"/>
      <point x="510" y="79"/>
      <point x="383" y="79" type="curve" smooth="yes"/>
    </contour>
    <contour>
      <point x="485" y="765"/>
      <point x="523" y="784"/>
      <point x="556" y="818" type="curve"/>
      <point x="509" y="885" type="line"/>
      <point x="489" y="870"/>
      <point x="471" y="862"/>
      <point x="450" y="862" type="curve" smooth="yes"/>
      <point x="404" y="862"/>
      <point x="367" y="903"/>
      <point x="319" y="903" type="curve" smooth="yes"/>
      <point x="285" y="903"/>
      <point x="243" y="880"/>
      <point x="210" y="850" type="curve"/>
      <point x="257" y="782" type="line"/>
      <point x="276" y="796"/>
      <point x="293" y="806"/>
      <point x="319" y="806" type="curve" smooth="yes"/>
      <point x="365" y="806"/>
      <point x="402" y="765"/>
      <point x="451" y="765" type="curve" smooth="yes"/>
    </contour>
  </outline>
</glyph>
<glyph name="Odieresis" format="1">
  <advance width="766"/>
  <unicode hex="00D6"/>
  <note>
	Odieresis
  </note>
  <outline>
    <contour>
      <point x="571" y="-15"/>
      <point x="727" y="93"/>
      <point x="727" y="347" type="curve" smooth="yes"/>
      <point x="727" y="601"/>
      <point x="571" y="710"/>
      <point x="383" y="710" type="curve" smooth="yes"/>
      <point x="195" y="710"/>
      <point x="39" y="601"/>
      <point x="39" y="347" type="curve" smooth="yes"/>
      <point x="39" y="93"/>
      <point x="195" y="-15"/>
      <point x="383" y="-15" type="curve" smooth="yes"/>
    </contour>
    <contour>
      <point x="256" y="79"/>
      <point x="191" y="174"/>
      <point x="191" y="347" type="curve" smooth="yes"/>
      <point x="191" y="520"/>
      <point x="256" y="616"/>
      <point x="383" y="616" type="curve" smooth="yes"/>
      <point x="510" y="616"/>
      <point x="575" y="520"/>
      <point x="575" y="347" type="curve" smooth="yes"/>
      <point x="575" y="174"/>
      <point x="510" y="79"/>
      <point x="383" y="79" type="curve" smooth="yes"/>
    </contour>
    <contour>
      <point x="316" y="765"/>
      <point x="348" y="795"/>
      <point x="348" y="836" type="curve" smooth="yes"/>
      <point x="348" y="877"/>
      <point x="316" y="907"/>
      <point x="278" y="907" type="curve" smooth="yes"/>
      <point x="239" y="907"/>
      <point x="207" y="877"/>
      <point x="207" y="836" type="curve" smooth="yes"/>
      <point x="207" y="795"/>
      <point x="239" y="765"/>
      <point x="278" y="765" type="curve" smooth="yes"/>
    </contour>
    <contour>
      <point x="528" y="765"/>
      <point x="560" y="795"/>
      <point x="560" y="836" type="curve" smooth="yes"/>
      <point x="560" y="877"/>
      <point x="528" y="907"/>
      <point x="490" y="907" type="curve" smooth="yes"/>
      <point x="451" y="907"/>
      <point x="419" y="877"/>
      <point x="419" y="836" type="curve" smooth="yes"/>
      <point x="419" y="795"/>
      <point x="451" y="765"/>
      <point x="490" y="765" type="curve" smooth="yes"/>
    </contour>
  </outline>
</glyph>
<glyph name="multiply" format="1">
  <advance width="622"/>
  <unicode hex="00D7"/>
  <note>
	multiply
  </note>
  <outline>
    <contour>
      <point x="307" y="255" type="line"/>
      <point x="468" y="91" type="line"/>
      <point x="566" y="179" type="line"/>
      <point x="399" y="349" type="line"/>
      <point x="566" y="519" type="line"/>
      <point x="468" y="607" type="line"/>
      <point x="307" y="443" type="line"/>
      <point x="146" y="607" type="line"/>
      <point x="48" y="519" type="line"/>
      <point x="215" y="349" type="line"/>
      <point x="48" y="179" type="line"/>
      <point x="146" y="91" type="line"/>
    </contour>
  </outline>
</glyph>
<glyph name="Uacute" format="1">
  <advance width="822"/>
  <unicode hex="00DA"/>
  <note>
	Uacute
  </note>
  <outline>
    <contour>
      <point x="582" y="-15"/>
      <point x="713" y="77"/>
      <point x="713" y="271" type="curve" smooth="yes"/>
      <point x="713" y="611" type="line"/>
      <point x="750" y="635" type="line" smooth="yes"/>
      <point x="776" y="652"/>
      <point x="790" y="662"/>
      <point x="790" y="677" type="curve" smooth="yes"/>
      <point x="790" y="690"/>
      <point x="786" y="695"/>
      <point x="771" y="695" type="curve" smooth="yes"/>
      <point x="579" y="695" type="line" smooth="yes"/>
      <point x="540" y="695"/>
      <point x="513" y="679"/>
      <point x="513" y="645" type="curve" smooth="yes"/>
      <point x="513" y="623"/>
      <point x="523" y="610"/>
      <point x="542" y="610" type="curve" smooth="yes"/>
      <point x="597" y="610" type="line"/>
      <point x="597" y="253" type="line" smooth="yes"/>
      <point x="597" y="138"/>
      <point x="527" y="79"/>
      <point x="425" y="79" type="curve" smooth="yes"/>
      <point x="325" y="79"/>
      <point x="257" y="136"/>
      <point x="257" y="253" type="curve" smooth="yes"/>
      <point x="257" y="611" type="line"/>
      <point x="295" y="630" type="line" smooth="yes"/>
      <point x="326" y="645"/>
      <point x="339" y="655"/>
      <point x="339" y="675" type="curve" smooth="yes"/>
      <point x="339" y="688"/>
      <point x="335" y="695"/>
      <point x="320" y="695" type="curve" smooth="yes"/>
      <point x="98" y="695" type="line" smooth="yes"/>
      <point x="59" y="695"/>
      <point x="32" y="679"/>
      <point x="32" y="645" type="curve" smooth="yes"/>
      <point x="32" y="623"/>
      <point x="42" y="610"/>
      <point x="61" y="610" type="curve" smooth="yes"/>
      <point x="107" y="610" type="line"/>
      <point x="107" y="271" type="line" smooth="yes"/>
      <point x="107" y="82"/>
      <point x="247" y="-15"/>
      <point x="417" y="-15" type="curve" smooth="yes"/>
    </contour>
    <contour>
      <point x="543" y="926" type="line"/>
      <point x="438" y="995" type="line"/>
      <point x="327" y="807" type="line"/>
      <point x="407" y="754" type="line"/>
    </contour>
  </outline>
</glyph>
<glyph name="Thorn" format="1">
  <advance width="742"/>
  <unicode hex="00DE"/>
  <note>
	Thorn
  </note>
  <outline>
    <contour>
      <point x="335" y="0" type="line" smooth="yes"/>
      <point x="350" y="0"/>
      <point x="354" y="7"/>
      <point x="354" y="20" type="curve" smooth="yes"/>
      <point x="354" y="40"/>
      <point x="341" y="50"/>
      <point x="310" y="65" type="curve" smooth="yes"/>
      <point x="272" y="84" type="line"/>
      <point x="272" y="138" type="line"/>
      <point x="317" y="124"/>
      <point x="364" y="118"/>
      <point x="408" y="118" type="curve" smooth="yes"/>
      <point x="564" y="118"/>
      <point x="698" y="184"/>
      <point x="698" y="352" type="curve" smooth="yes"/>
      <point x="698" y="520"/>
      <point x="564" y="586"/>
      <point x="408" y="586" type="curve" smooth="yes"/>
      <point x="364" y="586"/>
      <point x="317" y="580"/>
      <point x="272" y="566" type="curve"/>
      <point x="272" y="611" type="line"/>
      <point x="310" y="630" type="line" smooth="yes"/>
      <point x="341" y="645"/>
      <point x="354" y="655"/>
      <point x="354" y="675" type="curve" smooth="yes"/>
      <point x="354" y="688"/>
      <point x="350" y="695"/>
      <point x="335" y="695" type="curve" smooth="yes"/>
      <point x="113" y="695" type="line" smooth="yes"/>
      <point x="74" y="695"/>
      <point x="47" y="679"/>
      <point x="47" y="645" type="curve" smooth="yes"/>
      <point x="47" y="623"/>
      <point x="57" y="610"/>
      <point x="76" y="610" type="curve" smooth="yes"/>
      <point x="122" y="610" type="line"/>
      <point x="122" y="85" type="line"/>
      <point x="113" y="85" type="line" smooth="yes"/>
      <point x="74" y="85"/>
      <point x="47" y="69"/>
      <point x="47" y="35" type="curve" smooth="yes"/>
      <point x="47" y="13"/>
      <point x="57" y="0"/>
      <point x="76" y="0" type="curve" smooth="yes"/>
    </contour>
    <contour>
      <point x="367" y="212"/>
      <point x="326" y="217"/>
      <point x="272" y="234" type="curve"/>
      <point x="272" y="471" type="line"/>
      <point x="326" y="488"/>
      <point x="367" y="493"/>
      <point x="408" y="493" type="curve" smooth="yes"/>
      <point x="510" y="493"/>
      <point x="548" y="436"/>
      <point x="548" y="352" type="curve" smooth="yes"/>
      <point x="548" y="268"/>
      <point x="510" y="212"/>
      <point x="408" y="212" type="curve" smooth="yes"/>
    </contour>
  </outline>
</glyph>
<glyph name="germandbls" format="1">
  <advance width="742"/>
  <unicode hex="00DF"/>
  <note>
	germandbls
  </note>
  <outline>
    <contour>
      <point x="599" y="-15"/>
      <point x="692" y="37"/>
      <point x="692" y="152" type="curve" smooth="yes"/>
      <point x="692" y="281"/>
      <point x="567" y="316"/>
      <point x="567" y="375" type="curve" smooth="yes"/>
      <point x="567" y="431"/>
      <point x="630" y="459"/>
      <point x="630" y="555" type="curve" smooth="yes"/>
      <point x="630" y="649"/>
      <point x="522" y="724"/>
      <point x="385" y="724" type="curve" smooth="yes"/>
      <point x="233" y="724"/>
      <point x="130" y="652"/>
      <point x="130" y="488" type="curve" smooth="yes"/>
      <point x="130" y="80" type="line"/>
      <point x="111" y="80" type="line" smooth="yes"/>
      <point x="74" y="80"/>
      <point x="47" y="65"/>
      <point x="47" y="33" type="curve" smooth="yes"/>
      <point x="47" y="12"/>
      <point x="58" y="0"/>
      <point x="76" y="0" type="curve" smooth="yes"/>
      <point x="270" y="0" type="line"/>
      <point x="270" y="516" type="line" smooth="yes"/>
      <point x="270" y="588"/>
      <point x="307" y="630"/>
      <point x="383" y="630" type="curve" smooth="yes"/>
      <point x="444" y="630"/>
      <point x="485" y="588"/>
      <point x="485" y="528" type="curve" smooth="yes"/>
      <point x="485" y="453"/>
      <point x="427" y="442"/>
      <point x="427" y="375" type="curve" smooth="yes"/>
      <point x="427" y="297"/>
      <point x="547" y="265"/>
      <point x="547" y="155" type="curve" smooth="yes"/>
      <point x="547" y="107"/>
      <point x="521" y="79"/>
      <point x="473" y="79" type="curve" smooth="yes"/>
      <point x="450" y="79"/>
      <point x="425" y="87"/>
      <point x="405" y="98" type="curve"/>
      <point x="394" y="142" type="line" smooth="yes"/>
      <point x="387" y="170"/>
      <point x="376" y="187"/>
      <point x="351" y="187" type="curve" smooth="yes"/>
      <point x="333" y="187"/>
      <point x="325" y="175"/>
      <point x="325" y="163" type="curve" smooth="yes"/>
      <point x="325" y="30" type="line"/>
      <point x="370" y="4"/>
      <point x="429" y="-15"/>
      <point x="487" y="-15" type="curve" smooth="yes"/>
    </contour>
  </outline>
</glyph>
